<svg width="35" height="35" viewBox="0 0 35 35" fill="none" xmlns="http://www.w3.org/2000/svg">
<path d="M22.2396 27.3438C22.5312 27.3438 22.7865 27.2344 23.0052 27.0156C23.224 26.7969 23.3333 26.5417 23.3333 26.25C23.3333 25.9583 23.224 25.7031 23.0052 25.4844C22.7865 25.2656 22.5312 25.1562 22.2396 25.1562C21.9479 25.1562 21.6927 25.2656 21.474 25.4844C21.2552 25.7031 21.1458 25.9583 21.1458 26.25C21.1458 26.5417 21.2552 26.7969 21.474 27.0156C21.6927 27.2344 21.9479 27.3438 22.2396 27.3438ZM26.25 27.3438C26.5417 27.3438 26.7969 27.2344 27.0156 27.0156C27.2344 26.7969 27.3438 26.5417 27.3438 26.25C27.3438 25.9583 27.2344 25.7031 27.0156 25.4844C26.7969 25.2656 26.5417 25.1562 26.25 25.1562C25.9583 25.1562 25.7031 25.2656 25.4844 25.4844C25.2656 25.7031 25.1562 25.9583 25.1562 26.25C25.1562 26.5417 25.2656 26.7969 25.4844 27.0156C25.7031 27.2344 25.9583 27.3438 26.25 27.3438ZM30.2604 27.3438C30.5521 27.3438 30.8073 27.2344 31.026 27.0156C31.2448 26.7969 31.3542 26.5417 31.3542 26.25C31.3542 25.9583 31.2448 25.7031 31.026 25.4844C30.8073 25.2656 30.5521 25.1562 30.2604 25.1562C29.9688 25.1562 29.7135 25.2656 29.4948 25.4844C29.276 25.7031 29.1667 25.9583 29.1667 26.25C29.1667 26.5417 29.276 26.7969 29.4948 27.0156C29.7135 27.2344 29.9688 27.3438 30.2604 27.3438ZM7.29167 30.625C6.48958 30.625 5.80319 30.3397 5.2325 29.769C4.66181 29.1983 4.37597 28.5114 4.375 27.7083V7.29167C4.375 6.48958 4.66083 5.80319 5.2325 5.2325C5.80417 4.66181 6.49056 4.37597 7.29167 4.375H27.7083C28.5104 4.375 29.1973 4.66083 29.769 5.2325C30.3406 5.80417 30.626 6.49056 30.625 7.29167V17.0625C30.1632 16.8438 29.6892 16.6556 29.2031 16.4981C28.717 16.3406 28.2188 16.2249 27.7083 16.151V7.29167H7.29167V27.7083H16.1146C16.1875 28.2431 16.3032 28.7535 16.4617 29.2396C16.6201 29.7257 16.8083 30.1875 17.026 30.625H7.29167ZM7.29167 26.25V27.7083V7.29167V16.151V16.0417V26.25ZM10.2083 24.7917H16.151C16.224 24.2812 16.3397 23.783 16.4981 23.2969C16.6566 22.8108 16.8326 22.3368 17.026 21.875H10.2083V24.7917ZM10.2083 18.9583H19.1042C19.8819 18.2292 20.7511 17.6215 21.7117 17.1354C22.6722 16.6493 23.6989 16.3212 24.7917 16.151V16.0417H10.2083V18.9583ZM10.2083 13.125H24.7917V10.2083H10.2083V13.125ZM26.25 33.5417C24.2326 33.5417 22.5133 32.8305 21.0919 31.4081C19.6705 29.9858 18.9593 28.2664 18.9583 26.25C18.9574 24.2336 19.6685 22.5142 21.0919 21.0919C22.5152 19.6695 24.2346 18.9583 26.25 18.9583C28.2654 18.9583 29.9853 19.6695 31.4096 21.0919C32.8339 22.5142 33.5446 24.2336 33.5417 26.25C33.5388 28.2664 32.8276 29.9862 31.4081 31.4096C29.9887 32.8329 28.2693 33.5436 26.25 33.5417Z" fill="#117A7A"/>
</svg>
