<svg width="35" height="35" viewBox="0 0 35 35" fill="none" xmlns="http://www.w3.org/2000/svg">
<path d="M11.668 30.625C10.8659 30.625 10.1795 30.3397 9.6088 29.769C9.03811 29.1983 8.75227 28.5114 8.7513 27.7083V24.7917H5.83464C5.03255 24.7917 4.34616 24.5063 3.77547 23.9356C3.20477 23.3649 2.91894 22.6781 2.91797 21.875V16.0417C2.91797 14.8021 3.34332 13.7633 4.19401 12.9252C5.0447 12.0872 6.07769 11.6676 7.29297 11.6667H27.7096C28.9492 11.6667 29.9885 12.0862 30.8276 12.9252C31.6666 13.7642 32.0856 14.8031 32.0846 16.0417V21.875C32.0846 22.6771 31.7993 23.364 31.2286 23.9356C30.6579 24.5073 29.971 24.7926 29.168 24.7917H26.2513V27.7083C26.2513 28.5104 25.966 29.1973 25.3953 29.769C24.8246 30.3406 24.1377 30.626 23.3346 30.625H11.668ZM5.83464 21.875H8.7513C8.7513 21.0729 9.03714 20.3865 9.6088 19.8158C10.1805 19.2451 10.8669 18.9593 11.668 18.9583H23.3346C24.1367 18.9583 24.8236 19.2442 25.3953 19.8158C25.9669 20.3875 26.2523 21.0739 26.2513 21.875H29.168V16.0417C29.168 15.6285 29.028 15.2824 28.748 15.0033C28.468 14.7243 28.1219 14.5843 27.7096 14.5833H7.29297C6.87977 14.5833 6.53366 14.7233 6.25464 15.0033C5.97561 15.2833 5.83561 15.6294 5.83464 16.0417V21.875ZM23.3346 11.6667V7.29167H11.668V11.6667H8.7513V7.29167C8.7513 6.48958 9.03714 5.80319 9.6088 5.2325C10.1805 4.66181 10.8669 4.37597 11.668 4.375H23.3346C24.1367 4.375 24.8236 4.66083 25.3953 5.2325C25.9669 5.80417 26.2523 6.49056 26.2513 7.29167V11.6667H23.3346ZM26.2513 18.2292C26.6645 18.2292 27.0111 18.0892 27.2911 17.8092C27.5711 17.5292 27.7106 17.1831 27.7096 16.7708C27.7087 16.3586 27.5687 16.0125 27.2896 15.7325C27.0106 15.4525 26.6645 15.3125 26.2513 15.3125C25.8381 15.3125 25.492 15.4525 25.213 15.7325C24.9339 16.0125 24.7939 16.3586 24.793 16.7708C24.792 17.1831 24.932 17.5297 25.213 17.8106C25.4939 18.0916 25.8401 18.2311 26.2513 18.2292ZM23.3346 27.7083V21.875H11.668V27.7083H23.3346Z" fill="#117A7A"/>
</svg>
