<svg width="35" height="35" viewBox="0 0 35 35" fill="none" xmlns="http://www.w3.org/2000/svg">
<path d="M11.668 16.0417C12.0812 16.0417 12.4278 15.9017 12.7078 15.6217C12.9878 15.3417 13.1273 14.9956 13.1263 14.5834C13.1253 14.1712 12.9853 13.8251 12.7063 13.5451C12.4273 13.2651 12.0812 13.1251 11.668 13.1251C11.2548 13.1251 10.9087 13.2651 10.6296 13.5451C10.3506 13.8251 10.2106 14.1712 10.2096 14.5834C10.2087 14.9956 10.3487 15.3422 10.6296 15.6232C10.9106 15.9042 11.2567 16.0437 11.668 16.0417ZM17.5013 16.0417C17.9145 16.0417 18.2611 15.9017 18.5411 15.6217C18.8211 15.3417 18.9606 14.9956 18.9596 14.5834C18.9587 14.1712 18.8187 13.8251 18.5396 13.5451C18.2606 13.2651 17.9145 13.1251 17.5013 13.1251C17.0881 13.1251 16.742 13.2651 16.463 13.5451C16.1839 13.8251 16.0439 14.1712 16.043 14.5834C16.042 14.9956 16.182 15.3422 16.463 15.6232C16.7439 15.9042 17.0901 16.0437 17.5013 16.0417ZM23.3346 16.0417C23.7478 16.0417 24.0944 15.9017 24.3744 15.6217C24.6544 15.3417 24.7939 14.9956 24.793 14.5834C24.792 14.1712 24.652 13.8251 24.373 13.5451C24.0939 13.2651 23.7478 13.1251 23.3346 13.1251C22.9214 13.1251 22.5753 13.2651 22.2963 13.5451C22.0173 13.8251 21.8773 14.1712 21.8763 14.5834C21.8753 14.9956 22.0153 15.3422 22.2963 15.6232C22.5773 15.9042 22.9234 16.0437 23.3346 16.0417ZM2.91797 32.0834V5.83341C2.91797 5.03133 3.2038 4.34494 3.77547 3.77425C4.34714 3.20355 5.03352 2.91772 5.83464 2.91675H29.168C29.9701 2.91675 30.6569 3.20258 31.2286 3.77425C31.8003 4.34591 32.0856 5.0323 32.0846 5.83341V23.3334C32.0846 24.1355 31.7993 24.8224 31.2286 25.394C30.6579 25.9657 29.971 26.2511 29.168 26.2501H8.7513L2.91797 32.0834ZM7.51172 23.3334H29.168V5.83341H5.83464V24.974L7.51172 23.3334Z" fill="#117A7A"/>
</svg>
