<svg width="20" height="20" viewBox="0 0 20 20" fill="none" xmlns="http://www.w3.org/2000/svg">
<g clip-path="url(#clip0_108_22002)">
<path d="M2.51374 0H14.9311C15.03 0.0327219 15.159 0.040837 15.263 0.0612098C15.3948 0.087019 15.5236 0.116997 15.6518 0.1568C16.5548 0.438073 17.3103 1.06456 17.7538 1.89995C17.9669 2.30361 18.1001 2.74466 18.1461 3.19885C18.1707 3.44031 18.1665 3.66048 18.1665 3.90297L18.1665 4.747L18.1663 7.5212L18.166 16.4824C18.5358 16.484 18.9329 16.4762 19.2993 16.4868L19.2994 17.4854C19.2996 17.6997 19.3064 17.9479 19.2855 18.158C19.2398 18.6318 19.0287 19.0743 18.6892 19.408C18.4581 19.6363 18.1538 19.8255 17.839 19.9146C17.7647 19.9356 17.5519 19.976 17.4991 20H5.44436C5.37108 19.9672 5.18521 19.9417 5.09787 19.9148C4.76149 19.8115 4.45814 19.6277 4.21429 19.3771C3.91368 19.0691 3.71862 18.6736 3.65726 18.2478C3.62786 18.0436 3.6346 17.7936 3.63455 17.5835L3.63476 16.6847L3.63477 13.5594L3.63457 6.98819C3.63448 5.84163 3.62178 4.66626 3.63669 3.52199C2.66839 3.50842 1.67388 3.5177 0.70368 3.51887C0.715895 3.14942 0.69794 2.76996 0.7047 2.39937C0.709055 2.16055 0.696581 1.94323 0.736342 1.70401C0.768275 1.51028 0.828941 1.32239 0.916336 1.14657C1.15075 0.662798 1.56803 0.292175 2.07607 0.116479C2.22181 0.0662201 2.37806 0.048659 2.51374 0ZM6.56714 16.4847L14.6745 16.484C15.4313 16.484 16.2389 16.497 16.9921 16.4835L16.9939 10.7116C16.9939 9.91904 16.9795 9.07698 16.996 8.28763C15.951 8.27497 14.8896 8.28434 13.8436 8.28432L8.07383 8.28443L5.76449 8.2843L5.1616 8.28571C5.06735 8.28615 4.8947 8.29321 4.80852 8.27943C4.79657 9.02508 4.80685 9.7958 4.80688 10.5431L4.80682 14.8354L4.80679 17.0182L4.80672 17.6728C4.80694 18.0281 4.78802 18.2869 5.05735 18.5618C5.22045 18.7296 5.44432 18.8245 5.67833 18.8251C5.91237 18.8262 6.13725 18.7342 6.30345 18.5693C6.47022 18.4051 6.5539 18.1868 6.56211 17.9536C6.5792 17.4676 6.54775 16.9696 6.56714 16.4847ZM2.65924 1.18483C2.41086 1.21682 2.22096 1.30798 2.06268 1.50919C1.85962 1.76733 1.87546 2.03319 1.8769 2.34274L2.86782 2.34333C3.11993 2.34333 3.38174 2.34708 3.633 2.34294C3.63651 1.99311 3.64922 1.71362 3.38615 1.44205C3.22516 1.27434 3.00293 1.17924 2.77046 1.17858C2.73055 1.17821 2.69897 1.17951 2.65924 1.18483ZM7.53696 18.8264L14.1242 18.8276L16.2476 18.8275L16.9075 18.8282C17.2528 18.8284 17.4803 18.8593 17.7751 18.652C18.1354 18.3604 18.125 18.091 18.129 17.6626C17.2322 17.6521 16.3236 17.6593 15.4261 17.6593L10.5646 17.6592L8.60065 17.6594L8.06792 17.6605C7.97267 17.6611 7.82784 17.6683 7.73829 17.6544C7.73479 18.0666 7.7358 18.4446 7.53696 18.8264ZM16.9922 7.10772L16.9942 4.75264L16.9943 3.99865C16.9947 3.6591 17.0084 3.35236 16.9289 3.01754C16.8282 2.59221 16.6129 2.20261 16.3064 1.89106C15.8167 1.39213 15.2289 1.17907 14.5411 1.17522L7.71964 1.17513L5.66058 1.1752C5.34336 1.17521 4.92179 1.18861 4.61443 1.17319C4.69583 1.39135 4.76531 1.56224 4.78978 1.80052C4.81565 2.05235 4.8073 2.30702 4.80715 2.56046L4.8069 3.68047C4.80671 4.81696 4.81846 5.97268 4.80662 7.1074L12.759 7.10906L15.5789 7.10898L16.5079 7.10903C16.6573 7.10905 16.8456 7.11415 16.9922 7.10772Z" fill="black"/>
<path d="M6.33309 9.45359L11.3724 9.45248L13.9855 9.4525C14.4801 9.4508 14.9747 9.45169 15.4693 9.45516C15.4715 9.84563 15.4711 10.2362 15.4681 10.6266C14.5068 10.6418 13.5083 10.6282 12.5446 10.6282H6.3277C6.3402 10.2543 6.31027 9.81858 6.33309 9.45359Z" fill="black"/>
<path d="M6.33279 14.141L11.3918 14.14H13.9852C14.4798 14.1383 14.9744 14.1392 15.469 14.1427C15.4712 14.5331 15.4709 14.9237 15.4678 15.3141C14.5029 15.3296 13.4989 15.3157 12.5314 15.3157H6.32741C6.33994 14.9405 6.31063 14.509 6.33279 14.141Z" fill="black"/>
<path d="M6.3328 11.7974L11.3721 11.7962H13.9852C14.4798 11.7946 14.9744 11.7954 15.469 11.799C15.4713 12.1894 15.4709 12.5799 15.4678 12.9703C14.5045 12.9856 13.5037 12.9719 12.5379 12.9719H6.32742C6.33994 12.5968 6.31062 12.1652 6.3328 11.7974Z" fill="black"/>
<path d="M7.97915 2.4261C8.94628 2.36772 9.77808 3.10334 9.83843 4.07035C9.89878 5.03736 9.16483 5.87067 8.19793 5.93295C7.22829 5.99539 6.39209 5.25889 6.33159 4.28913C6.2711 3.31936 7.00927 2.48465 7.97915 2.4261ZM8.16875 4.75628C8.48828 4.70961 8.70889 4.41192 8.66056 4.09263C8.61223 3.77335 8.31341 3.55429 7.99438 3.60427C7.67767 3.65388 7.46056 3.95005 7.50854 4.26701C7.55651 4.58397 7.85154 4.80261 8.16875 4.75628Z" fill="black"/>
<path d="M11.3719 2.42231L13.5394 2.42127C14.1786 2.42122 14.8307 2.41462 15.469 2.42389C15.4712 2.81436 15.4709 3.20483 15.4679 3.59529C15.0159 3.60295 14.5475 3.59683 14.0945 3.59686L11.3665 3.59691C11.379 3.2217 11.3497 2.79022 11.3719 2.42231Z" fill="black"/>
<path d="M11.3718 4.76609L13.5592 4.76505C14.1917 4.76499 14.8375 4.75833 15.469 4.76767C15.4713 5.15813 15.4709 5.54861 15.4678 5.93907C15.0199 5.94658 14.5587 5.94062 14.1091 5.94064L11.3665 5.9407C11.3791 5.56549 11.3497 5.13406 11.3718 4.76609Z" fill="black"/>
</g>
<defs>
<clipPath id="clip0_108_22002">
<rect width="20" height="20" fill="white"/>
</clipPath>
</defs>
</svg>
