<svg width="35" height="35" viewBox="0 0 35 35" fill="none" xmlns="http://www.w3.org/2000/svg">
<path d="M27.3438 17.5H18.5938C18.0136 17.5 17.4572 17.7305 17.047 18.1407C16.6367 18.5509 16.4062 19.1073 16.4062 19.6875V26.25H4.375V15.3125H2.1875V32.8125H4.375V28.4375H30.625V32.8125H32.8125V22.9688C32.8108 21.5189 32.234 20.1289 31.2088 19.1037C30.1836 18.0785 28.7936 17.5017 27.3438 17.5ZM30.625 26.25H18.5938V19.6875H27.3438C28.2137 19.6884 29.0478 20.0343 29.663 20.6495C30.2782 21.2647 30.6241 22.0988 30.625 22.9688V26.25Z" fill="#117A7A"/>
<path d="M10.3906 18.5938C10.7151 18.5938 11.0323 18.69 11.3021 18.8702C11.5719 19.0505 11.7822 19.3068 11.9064 19.6065C12.0305 19.9063 12.063 20.2362 11.9997 20.5544C11.9364 20.8727 11.7802 21.165 11.5507 21.3945C11.3213 21.6239 11.0289 21.7802 10.7107 21.8435C10.3924 21.9068 10.0626 21.8743 9.76279 21.7501C9.463 21.6259 9.20677 21.4157 9.0265 21.1459C8.84622 20.8761 8.75 20.5589 8.75 20.2344C8.75 19.7993 8.92285 19.382 9.23053 19.0743C9.53821 18.7666 9.95551 18.5938 10.3906 18.5938ZM10.3906 16.4062C9.63349 16.4062 8.89337 16.6308 8.26383 17.0514C7.6343 17.472 7.14364 18.0699 6.8539 18.7694C6.56416 19.4689 6.48835 20.2386 6.63606 20.9812C6.78377 21.7238 7.14836 22.4059 7.68373 22.9413C8.21911 23.4766 8.90121 23.8412 9.6438 23.9889C10.3864 24.1367 11.1561 24.0608 11.8556 23.7711C12.5551 23.4814 13.153 22.9907 13.5736 22.3612C13.9942 21.7316 14.2188 20.9915 14.2188 20.2344C14.2188 19.2191 13.8154 18.2454 13.0975 17.5275C12.3796 16.8096 11.4059 16.4062 10.3906 16.4062ZM22.9688 6.5625H18.5938V2.1875H16.4063V6.5625H12.0313V8.75H16.4063V13.125H18.5938V8.75H22.9688V6.5625Z" fill="#117A7A"/>
</svg>
