<svg width="35" height="35" viewBox="0 0 35 35" fill="none" xmlns="http://www.w3.org/2000/svg">
<path d="M27.3438 17.5H18.5938C18.0136 17.5 17.4572 17.7305 17.047 18.1407C16.6367 18.5509 16.4062 19.1073 16.4062 19.6875V26.25H4.375V15.3125H2.1875V32.8125H4.375V28.4375H30.625V32.8125H32.8125V22.9688C32.8108 21.5189 32.234 20.1289 31.2088 19.1037C30.1836 18.0785 28.7936 17.5017 27.3438 17.5ZM30.625 26.25H18.5938V19.6875H27.3438C28.2137 19.6884 29.0478 20.0343 29.663 20.6495C30.2782 21.2647 30.6241 22.0988 30.625 22.9688V26.25Z" fill="#117A7A"/>
<path d="M10.3906 18.5938C10.7151 18.5938 11.0323 18.69 11.3021 18.8702C11.5719 19.0505 11.7822 19.3068 11.9064 19.6065C12.0305 19.9063 12.063 20.2362 11.9997 20.5544C11.9364 20.8727 11.7802 21.165 11.5507 21.3945C11.3213 21.6239 11.0289 21.7802 10.7107 21.8435C10.3924 21.9068 10.0626 21.8743 9.76279 21.7501C9.463 21.6259 9.20677 21.4157 9.0265 21.1459C8.84622 20.8761 8.75 20.5589 8.75 20.2344C8.75 19.7993 8.92285 19.382 9.23053 19.0743C9.53821 18.7666 9.95551 18.5938 10.3906 18.5938ZM10.3906 16.4062C9.6335 16.4063 8.89337 16.6308 8.26383 17.0514C7.6343 17.472 7.14364 18.0699 6.8539 18.7694C6.56416 19.4689 6.48835 20.2386 6.63606 20.9812C6.78377 21.7238 7.14836 22.4059 7.68373 22.9413C8.21911 23.4766 8.90121 23.8412 9.6438 23.9889C10.3864 24.1367 11.1561 24.0608 11.8556 23.7711C12.5551 23.4814 13.153 22.9907 13.5736 22.3612C13.9942 21.7316 14.2188 20.9915 14.2188 20.2344C14.2188 19.2191 13.8154 18.2454 13.0975 17.5275C12.3796 16.8096 11.4059 16.4062 10.3906 16.4062Z" fill="#117A7A"/>
<path d="M33 1V7.5C33 7.76522 32.8946 8.01957 32.7071 8.20711C32.5196 8.39464 32.2652 8.5 32 8.5H25.2069L25.8538 9.14625C25.9002 9.19271 25.9371 9.24786 25.9622 9.30855C25.9873 9.36925 26.0003 9.4343 26.0003 9.5C26.0003 9.5657 25.9873 9.63075 25.9622 9.69145C25.9371 9.75214 25.9002 9.80729 25.8538 9.85375C25.8073 9.90021 25.7521 9.93705 25.6914 9.9622C25.6308 9.98734 25.5657 10.0003 25.5 10.0003C25.4343 10.0003 25.3692 9.98734 25.3086 9.9622C25.2479 9.93705 25.1927 9.90021 25.1462 9.85375L23.6462 8.35375C23.5998 8.30731 23.5629 8.25217 23.5377 8.19147C23.5126 8.13077 23.4996 8.06571 23.4996 8C23.4996 7.93429 23.5126 7.86923 23.5377 7.80853C23.5629 7.74783 23.5998 7.69269 23.6462 7.64625L25.1462 6.14625C25.2401 6.05243 25.3673 5.99972 25.5 5.99972C25.6327 5.99972 25.7599 6.05243 25.8538 6.14625C25.9476 6.24007 26.0003 6.36732 26.0003 6.5C26.0003 6.63268 25.9476 6.75993 25.8538 6.85375L25.2069 7.5H32V1H25V1.5C25 1.63261 24.9473 1.75979 24.8536 1.85355C24.7598 1.94732 24.6326 2 24.5 2C24.3674 2 24.2402 1.94732 24.1464 1.85355C24.0527 1.75979 24 1.63261 24 1.5V1C24 0.734784 24.1054 0.48043 24.2929 0.292893C24.4804 0.105357 24.7348 0 25 0H32C32.2652 0 32.5196 0.105357 32.7071 0.292893C32.8946 0.48043 33 0.734784 33 1ZM29.5 10C29.3674 10 29.2402 10.0527 29.1464 10.1464C29.0527 10.2402 29 10.3674 29 10.5V11H22V4.5H28.7931L28.1462 5.14625C28.0524 5.24007 27.9997 5.36732 27.9997 5.5C27.9997 5.63268 28.0524 5.75993 28.1462 5.85375C28.2401 5.94757 28.3673 6.00028 28.5 6.00028C28.6327 6.00028 28.7599 5.94757 28.8538 5.85375L30.3538 4.35375C30.4002 4.30731 30.4371 4.25217 30.4623 4.19147C30.4874 4.13077 30.5004 4.06571 30.5004 4C30.5004 3.93429 30.4874 3.86923 30.4623 3.80853C30.4371 3.74783 30.4002 3.69269 30.3538 3.64625L28.8538 2.14625C28.7599 2.05243 28.6327 1.99972 28.5 1.99972C28.3673 1.99972 28.2401 2.05243 28.1462 2.14625C28.0524 2.24007 27.9997 2.36732 27.9997 2.5C27.9997 2.63268 28.0524 2.75993 28.1462 2.85375L28.7931 3.5H22C21.7348 3.5 21.4804 3.60536 21.2929 3.79289C21.1054 3.98043 21 4.23478 21 4.5V11C21 11.2652 21.1054 11.5196 21.2929 11.7071C21.4804 11.8946 21.7348 12 22 12H29C29.2652 12 29.5196 11.8946 29.7071 11.7071C29.8946 11.5196 30 11.2652 30 11V10.5C30 10.3674 29.9473 10.2402 29.8536 10.1464C29.7598 10.0527 29.6326 10 29.5 10Z" fill="#117A7A"/>
</svg>
