<svg width="20" height="20" viewBox="0 0 20 20" fill="none" xmlns="http://www.w3.org/2000/svg">
<path d="M9.98791 2.5H12.1454M11.0667 2.5V4.34889M15.2068 3.76791L15.9691 4.53093M15.9691 4.53093L16.7321 5.29324M15.9691 4.53093L14.662 5.83796M18 8.35458V10.5121M18 9.43333H16.1511M16.7321 13.5734L15.9691 14.3357M15.9691 14.3357L15.2068 15.0988M15.9691 14.3357L14.662 13.0287M5.40124 5.29324L6.16427 4.53093M6.16427 4.53093L6.92658 3.76791M6.16427 4.53093L7.47129 5.83796M12.1454 8.97111C11.8593 8.97111 11.5849 8.85746 11.3826 8.65515C11.1803 8.45284 11.0667 8.17846 11.0667 7.89236C11.0667 7.60625 11.1803 7.33187 11.3826 7.12956C11.5849 6.92725 11.8593 6.8136 12.1454 6.8136C12.4315 6.8136 12.7059 6.92725 12.9082 7.12956C13.1105 7.33187 13.2242 7.60625 13.2242 7.89236C13.2242 8.17846 13.1105 8.45284 12.9082 8.65515C12.7059 8.85746 12.4315 8.97111 12.1454 8.97111Z" stroke="#1E1E1E" stroke-width="1.5" stroke-linecap="round" stroke-linejoin="round"/>
<path d="M6.13658 8.19271C6.35365 7.32834 6.79411 6.53621 7.41381 5.89571C8.0335 5.25521 8.81067 4.78885 9.66741 4.54336C10.5241 4.29788 11.4304 4.2819 12.2952 4.49703C13.1601 4.71216 13.9532 5.15084 14.5951 5.76909C15.237 6.38735 15.7051 7.16346 15.9525 8.01964C16.1999 8.87583 16.2179 9.78201 16.0047 10.6473C15.7916 11.5127 15.3547 12.3068 14.7379 12.9501C14.121 13.5934 13.346 14.0632 12.4904 14.3125" stroke="#1E1E1E" stroke-width="1.5" stroke-linecap="round" stroke-linejoin="round"/>
<path d="M4.50913 15.9909C4.83203 16.3138 5.21537 16.5699 5.63726 16.7447C6.05915 16.9194 6.51133 17.0094 6.96798 17.0094C7.89023 17.0094 8.7747 16.643 9.42683 15.9909C10.079 15.3387 10.4453 14.4543 10.4453 13.532C10.4453 12.6098 10.079 11.7253 9.42683 11.0732C8.7747 10.421 7.89023 10.0547 6.96798 10.0547C6.51133 10.0547 6.05915 10.1446 5.63726 10.3194C5.21537 10.4941 4.83203 10.7503 4.50913 11.0732C4.18623 11.3961 3.93009 11.7794 3.75534 12.2013C3.58059 12.6232 3.49065 13.0754 3.49065 13.532C3.49065 13.9887 3.58059 14.4408 3.75534 14.8627C3.93009 15.2846 4.18623 15.668 4.50913 15.9909ZM4.50913 15.9909L2.00016 18.4998" stroke="#1E1E1E" stroke-width="1.5" stroke-linecap="round" stroke-linejoin="round"/>
</svg>
