<svg width="35" height="35" viewBox="0 0 35 35" fill="none" xmlns="http://www.w3.org/2000/svg">
<path d="M20.418 10.2083H29.168M24.793 5.83325V14.5833" stroke="#117A7A" stroke-width="2.91667" stroke-linecap="round" stroke-linejoin="round"/>
<path d="M11.668 7.2917L12.7748 6.34232C12.6379 6.18272 12.4681 6.05462 12.2771 5.96679C12.086 5.87897 11.8782 5.8335 11.668 5.8335C11.4577 5.8335 11.2499 5.87897 11.0589 5.96679C10.8678 6.05462 10.698 6.18272 10.5611 6.34232L11.668 7.2917ZM11.668 7.2917L10.5596 6.34232V6.34524L10.5523 6.35107C10.4388 6.4835 10.328 6.61818 10.2198 6.75503C8.95908 8.3365 7.80586 10.0008 6.76797 11.7367C4.91151 14.8604 2.91797 19.1523 2.91797 23.3334H5.83464C5.83464 19.9646 7.48693 16.2371 9.2763 13.2271C10.2427 11.611 11.316 10.0612 12.489 8.58816L12.7603 8.25857L12.7719 8.24399L12.7748 8.24107L11.668 7.2917ZM20.418 23.3334C20.418 19.1523 18.4244 14.8604 16.568 11.7367C15.5301 10.0008 14.3769 8.3365 13.1161 6.75503L12.7836 6.35107L12.7778 6.34524L12.7748 6.34232L11.668 7.2917L10.5611 8.24107L10.564 8.24399L10.5757 8.25857C10.6681 8.36677 10.7585 8.47665 10.8469 8.58816C12.0199 10.0612 13.0932 11.611 14.0596 13.2271C15.8476 16.2371 17.5013 19.9646 17.5013 23.3334H20.418ZM17.5013 23.3334C17.5013 24.8805 16.8867 26.3642 15.7928 27.4582C14.6988 28.5521 13.2151 29.1667 11.668 29.1667V32.0834C13.9886 32.0834 16.2142 31.1615 17.8552 29.5205C19.4961 27.8796 20.418 25.654 20.418 23.3334H17.5013ZM11.668 29.1667C10.1209 29.1667 8.63714 28.5521 7.54318 27.4582C6.44922 26.3642 5.83464 24.8805 5.83464 23.3334H2.91797C2.91797 25.654 3.83984 27.8796 5.48078 29.5205C7.12173 31.1615 9.34732 32.0834 11.668 32.0834V29.1667Z" fill="#117A7A"/>
</svg>
