<svg width="27" height="27" viewBox="0 0 27 27" fill="none" xmlns="http://www.w3.org/2000/svg">
<path fill-rule="evenodd" clip-rule="evenodd" d="M9.8765 1.37337C10.3118 0.937968 10.8286 0.592579 11.3974 0.356933C11.9662 0.121287 12.5758 0 13.1915 0C13.8072 0 14.4168 0.121287 14.9856 0.356933C15.5544 0.592579 16.0712 0.937968 16.5065 1.37337L25.0096 9.8765C25.445 10.3118 25.7904 10.8286 26.0261 11.3974C26.2617 11.9662 26.383 12.5758 26.383 13.1915C26.383 13.8072 26.2617 14.4168 26.0261 14.9856C25.7904 15.5544 25.445 16.0712 25.0096 16.5065L16.5065 25.0096C16.0712 25.445 15.5544 25.7904 14.9856 26.0261C14.4168 26.2617 13.8072 26.383 13.1915 26.383C12.5758 26.383 11.9662 26.2617 11.3974 26.0261C10.8286 25.7904 10.3118 25.445 9.8765 25.0096L1.37337 16.5065C0.937965 16.0712 0.592575 15.5544 0.35693 14.9856C0.121283 14.4168 -1.90735e-06 13.8072 -1.90735e-06 13.1915C-1.90735e-06 12.5758 0.121283 11.9662 0.35693 11.3974C0.592575 10.8286 0.937965 10.3118 1.37337 9.8765L9.8765 1.37337ZM14.129 7.3115V11.999H18.8165V13.874H14.129V18.5615H12.254V13.874H7.5665V11.999H12.254V7.3115H14.129Z" fill="#B7B7B7"/>
</svg>
