<svg width="35" height="35" viewBox="0 0 35 35" fill="none" xmlns="http://www.w3.org/2000/svg">
<path d="M32.0846 32.084H2.91797" stroke="#117A7A" stroke-width="2.1875" stroke-linecap="round"/>
<path d="M30.625 32.0837V21.1462C30.625 20.566 30.3945 20.0096 29.9843 19.5994C29.5741 19.1891 29.0177 18.9587 28.4375 18.9587H24.0625C23.4823 18.9587 22.9259 19.1891 22.5157 19.5994C22.1055 20.0096 21.875 20.566 21.875 21.1462V32.0837V7.29199C21.875 5.22991 21.875 4.19887 21.2333 3.55866C20.5946 2.91699 19.5635 2.91699 17.5 2.91699C15.4365 2.91699 14.4069 2.91699 13.7667 3.55866C13.125 4.19741 13.125 5.22845 13.125 7.29199V32.0837V13.8545C13.125 13.2743 12.8945 12.7179 12.4843 12.3077C12.0741 11.8975 11.5177 11.667 10.9375 11.667H6.5625C5.98234 11.667 5.42594 11.8975 5.0157 12.3077C4.60547 12.7179 4.375 13.2743 4.375 13.8545V32.0837" stroke="#117A7A" stroke-width="2.1875"/>
</svg>
