<svg width="25" height="25" viewBox="0 0 25 25" fill="none" xmlns="http://www.w3.org/2000/svg">
<path d="M12.5031 0C11.8781 0 11.2531 0.2375 10.7406 0.7375L6.61562 4.85L12.5031 10.725L18.3906 4.85L14.2656 0.7375C13.7531 0.2375 13.1281 0 12.5031 0ZM4.85313 6.6125L0.740625 10.7375C-0.246875 11.7125 -0.246875 13.2875 0.740625 14.2625L4.85313 18.3875L10.7281 12.5L4.85313 6.6125ZM20.1531 6.6125L14.2781 12.5L20.1531 18.3875L24.2656 14.2625C25.2531 13.2875 25.2531 11.7125 24.2656 10.7375L20.1531 6.6125ZM12.5031 14.275L6.61562 20.15L10.7406 24.2625C11.7156 25.25 13.2906 25.25 14.2656 24.2625L18.3906 20.15L12.5031 14.275Z" fill="#B7B7B7"/>
</svg>
