<svg width="35" height="35" viewBox="0 0 35 35" fill="none" xmlns="http://www.w3.org/2000/svg">
<path d="M14.9486 10.8158C7.58767 12.7882 9.29902 18.4502 16.108 24.4643C17.1733 25.4414 17.5007 25.8971 17.5007 27.1914V33.1771C24.9798 33.1771 31.4176 27.8936 32.8766 20.5582C34.3357 13.2228 30.4099 5.87714 23.5003 3.01589C16.5907 0.15464 8.6209 2.5711 4.46611 8.78943C2.5419 11.6694 1.62558 15.1054 1.86026 18.5611C2.09493 22.0167 3.46739 25.2974 5.76329 27.8907" stroke="#117A7A" stroke-width="1.5" stroke-linecap="round" stroke-linejoin="round"/>
<path d="M20.0539 10.8157C27.4148 12.7881 25.7035 18.4508 18.8945 24.4642" stroke="#117A7A" stroke-width="1.5" stroke-linecap="round" stroke-linejoin="round"/>
<path d="M7.44792 33.1771C9.05875 33.1771 10.3646 31.8712 10.3646 30.2604C10.3646 28.6496 9.05875 27.3438 7.44792 27.3438C5.83709 27.3438 4.53125 28.6496 4.53125 30.2604C4.53125 31.8712 5.83709 33.1771 7.44792 33.1771Z" stroke="#117A7A" stroke-width="1.5" stroke-linecap="round" stroke-linejoin="round"/>
</svg>
