<svg width="20" height="20" viewBox="0 0 20 20" fill="none" xmlns="http://www.w3.org/2000/svg">
<g clip-path="url(#clip0_108_22168)">
<path d="M2.07244 0H7.29184C7.43451 0.0503455 7.6038 0.0639537 7.75829 0.115788C8.35111 0.312105 8.8422 0.734988 9.12432 1.29211C9.25447 1.55329 9.33574 1.83608 9.36412 2.12651C9.39073 2.4018 9.37587 2.91652 9.37567 3.20572L9.37556 5.15383L9.37556 7.50284L9.37586 8.25651C9.37594 8.40986 9.37995 8.58553 9.3697 8.73671C9.35616 8.94586 9.315 9.1523 9.24728 9.35064C9.04172 9.94502 8.60768 10.4329 8.04131 10.7063C7.4613 10.9871 7.01356 10.9415 6.39754 10.9409L4.92524 10.9407L3.17354 10.9408C2.87039 10.941 2.44923 10.9533 2.15606 10.9313C1.95522 10.9146 1.75736 10.8721 1.56735 10.8049C0.978994 10.596 0.49713 10.1629 0.226899 9.60003C0.160498 9.46052 0.113888 9.32771 0.0729574 9.17894C0.0535086 9.10824 0.0279084 8.92064 0 8.86589V2.06224C0.030916 1.99791 0.0624609 1.81123 0.0846233 1.72678C0.13016 1.55327 0.174811 1.44225 0.254848 1.28404C0.533494 0.729058 1.02249 0.308532 1.61294 0.116118C1.7645 0.0651157 1.92881 0.0499399 2.07244 0ZM7.03274 9.37325C7.43858 9.3419 7.75183 9.1022 7.80469 8.6725C7.81966 8.55069 7.81282 8.41273 7.81285 8.28903L7.81293 7.69659L7.81292 5.73062L7.81268 3.44514L7.81317 2.74645C7.81347 2.58813 7.8156 2.43476 7.80542 2.27779C7.78343 1.93857 7.50932 1.62561 7.16866 1.58202C6.96815 1.55638 6.74843 1.56499 6.54484 1.56513L5.56241 1.56577C4.49905 1.56605 3.41942 1.5553 2.35754 1.56694C2.10719 1.58562 1.92592 1.63437 1.75226 1.83305C1.64937 1.95239 1.58558 2.10043 1.56947 2.25718C1.559 2.35504 1.56273 2.52134 1.5627 2.62268L1.56267 3.21539L1.56312 5.14545L1.56337 7.50247L1.56284 8.21228C1.56168 8.59874 1.51656 8.91447 1.84344 9.19145C1.95194 9.28462 2.08536 9.34396 2.22722 9.36216C2.38779 9.38377 2.67018 9.37525 2.8419 9.37507L3.8576 9.37463C4.90174 9.37438 5.99234 9.39074 7.03274 9.37325Z" fill="#B7B7B7"/>
<path d="M12.7074 20.0001C12.6396 19.9733 12.475 19.9477 12.3955 19.928C12.211 19.8825 12.0418 19.8161 11.8741 19.727C11.3207 19.4341 10.9069 18.9325 10.7247 18.3334C10.6724 18.1628 10.6406 17.9865 10.6303 17.8084C10.6208 17.6493 10.6248 17.4661 10.625 17.3058L10.6253 16.5275L10.6252 14.0845L10.6247 12.2205C10.6246 11.9126 10.6101 11.4373 10.6398 11.1505C10.6725 10.8486 10.7641 10.5562 10.9094 10.2895C11.2021 9.74299 11.7017 9.33662 12.2966 9.16145C12.4659 9.10964 12.6408 9.0782 12.8176 9.06784C13.111 9.04989 13.5266 9.06222 13.8274 9.0624L15.6763 9.06238L17.068 9.06218C17.3281 9.06197 17.6875 9.05141 17.9344 9.07967C18.2313 9.11645 18.5186 9.20917 18.781 9.35292C19.2967 9.6355 19.6873 10.1016 19.8755 10.6587C19.9349 10.8397 19.9483 10.9963 19.9969 11.1561L19.9997 11.1651V17.9062C19.9514 18.0467 19.9381 18.2105 19.8905 18.3598C19.6473 19.1224 19.0119 19.7348 18.2323 19.9268C18.1472 19.9477 18.0029 19.9685 17.927 20.0001H12.7074ZM17.6582 18.4358C18.0637 18.4045 18.3767 18.1642 18.4294 17.7352C18.4443 17.6133 18.4375 17.4754 18.4376 17.3517V16.7592V14.7933L18.4374 12.5077L18.4379 11.8091C18.4382 11.6507 18.4402 11.4973 18.4302 11.3404C18.4083 11.0016 18.1337 10.6878 17.7933 10.6446C17.5899 10.6187 17.366 10.6275 17.1594 10.6277L16.1805 10.6284C15.119 10.6286 14.0422 10.6182 12.9821 10.6296C12.7293 10.6486 12.545 10.6989 12.3716 10.9017C12.2718 11.0202 12.2099 11.1661 12.1942 11.3203C12.1837 11.4169 12.1874 11.586 12.1874 11.686V12.3043L12.1879 14.3334L12.1881 16.6208L12.1874 17.3127C12.1862 17.6953 12.1508 17.9914 12.4776 18.2619C12.5844 18.3507 12.7142 18.4071 12.8519 18.4247C13.0125 18.4464 13.2949 18.4379 13.4666 18.4377L14.4823 18.4372H16.5457C16.9129 18.4372 17.2925 18.4421 17.6582 18.4358Z" fill="#B7B7B7"/>
<path d="M12.6971 0H17.9165C18.0697 0.0536432 18.2507 0.0709275 18.4185 0.127815C18.9915 0.327564 19.4656 0.740222 19.7426 1.28019C19.8288 1.44664 19.8931 1.62356 19.9338 1.80653C19.948 1.87186 19.9796 2.04889 19.9996 2.10254V5.71879C19.9714 5.79056 19.9475 5.96144 19.926 6.04541C19.8862 6.20024 19.833 6.34354 19.763 6.48744C19.4852 7.05844 18.9895 7.49381 18.3875 7.69571C18.2102 7.75603 18.0261 7.79365 17.8394 7.80766C17.538 7.82787 17.1238 7.81591 16.817 7.81579L15.0385 7.81602L13.5867 7.81625C13.3299 7.81623 12.9622 7.82706 12.7151 7.80089C12.4392 7.76905 12.1708 7.689 11.9225 7.56438C11.3604 7.28322 10.9343 6.78895 10.7389 6.1917C10.6839 6.024 10.6486 5.85049 10.6339 5.67465C10.617 5.46088 10.6249 5.17686 10.6249 4.95736L10.625 3.77025L10.6245 2.75825C10.6244 2.52792 10.6168 2.26536 10.645 2.03938C10.6802 1.77139 10.7617 1.51154 10.8859 1.27146C11.1556 0.74156 11.6184 0.335377 12.1787 0.136715C12.3539 0.0760683 12.5338 0.0560763 12.6971 0ZM17.6581 6.2482C18.0559 6.21646 18.3589 5.99368 18.4242 5.57654C18.4509 5.40593 18.4383 5.20239 18.4381 5.02696L18.4374 4.1077L18.4379 2.94259C18.4381 2.72919 18.4413 2.51759 18.4319 2.30477C18.416 1.94324 18.1411 1.62139 17.7768 1.58033C17.574 1.55748 17.3669 1.56503 17.1628 1.56514L16.1733 1.56573C15.1152 1.56613 14.0389 1.55482 12.9823 1.56693C12.5752 1.59757 12.278 1.78429 12.2005 2.22153C12.1721 2.38157 12.1866 2.58969 12.1869 2.75528L12.188 3.62981L12.1873 4.85203C12.187 5.06501 12.1823 5.29599 12.1903 5.50804C12.1984 5.72217 12.2974 5.91932 12.4607 6.06039C12.5689 6.15542 12.7028 6.21644 12.8455 6.23586C12.9992 6.25829 13.2838 6.25035 13.4516 6.25016L14.4602 6.24959L16.5361 6.24961C16.9059 6.24961 17.2897 6.25459 17.6581 6.2482Z" fill="#B7B7B7"/>
<path d="M0 14.2499C0.0427461 14.1621 0.0527454 14.0186 0.0800096 13.9208C0.278729 13.2078 0.781434 12.6327 1.46862 12.3574C1.68115 12.2716 1.90524 12.2176 2.13359 12.1974C2.40044 12.1746 2.82571 12.1869 3.10276 12.1869L4.82422 12.1873L6.37766 12.1872C6.63795 12.1872 7.03424 12.1757 7.28254 12.2016C7.51832 12.2275 7.74881 12.289 7.96614 12.384C8.53495 12.6326 8.98228 13.0963 9.21045 13.6736C9.29095 13.879 9.34266 14.0945 9.36411 14.314C9.38375 14.5181 9.37612 14.7915 9.37594 15.0021L9.3756 16.1043L9.37569 17.1808C9.37573 17.4217 9.38441 17.6932 9.35737 17.9297C9.33075 18.1584 9.26995 18.3817 9.17699 18.5924C8.92045 19.1722 8.44362 19.626 7.85185 19.8536C7.73145 19.8997 7.63546 19.9219 7.5104 19.9482C7.46148 19.9585 7.34291 19.9828 7.30216 20.0002H2.08271C2.02489 19.9765 1.89941 19.9546 1.83436 19.941C0.957793 19.7581 0.222579 19.0216 0.0538912 18.1403C0.0428658 18.0827 0.023991 17.9807 0 17.9286V14.2499ZM7.03339 18.4359C7.43094 18.4048 7.73462 18.1807 7.79957 17.7642C7.8262 17.5935 7.81363 17.3901 7.8135 17.2146L7.81275 16.2954L7.81329 15.1303C7.8135 14.9169 7.81667 14.7053 7.8073 14.4925C7.79136 14.1309 7.51649 13.8091 7.15211 13.7681C6.94897 13.7451 6.74132 13.7527 6.53677 13.7528L5.54384 13.7534C4.48701 13.7538 3.41262 13.7428 2.3574 13.7547C2.10635 13.7737 1.92526 13.8203 1.75196 14.0213C1.65931 14.1294 1.59869 14.2613 1.57696 14.402C1.55407 14.5437 1.56211 14.8195 1.56239 14.9724L1.56342 15.8893L1.56268 17.0788C1.56249 17.1934 1.56403 17.3136 1.56226 17.4282C1.55797 17.7037 1.55656 17.9186 1.73492 18.1434C2.01879 18.5013 2.42791 18.4383 2.83838 18.4378L3.85523 18.4373H5.924C6.28986 18.4373 6.66897 18.4422 7.03339 18.4359Z" fill="#B7B7B7"/>
</g>
<defs>
<clipPath id="clip0_108_22168">
<rect width="20" height="20" fill="white"/>
</clipPath>
</defs>
</svg>
