<svg width="14" height="16" viewBox="0 0 14 16" fill="none" xmlns="http://www.w3.org/2000/svg">
<path d="M2.625 16C2.14375 16 1.73192 15.8261 1.3895 15.4782C1.0465 15.1298 0.875 14.7111 0.875 14.2222V2.66667C0.627083 2.66667 0.419125 2.58163 0.251125 2.41156C0.0837085 2.24089 0 2.02963 0 1.77778C0 1.52593 0.0837085 1.31467 0.251125 1.144C0.419125 0.973926 0.627083 0.888889 0.875 0.888889H4.375C4.375 0.637037 4.459 0.425778 4.627 0.255111C4.79442 0.085037 5.00208 0 5.25 0H8.75C8.99792 0 9.20588 0.085037 9.37388 0.255111C9.54129 0.425778 9.625 0.637037 9.625 0.888889H13.125C13.3729 0.888889 13.5806 0.973926 13.748 1.144C13.916 1.31467 14 1.52593 14 1.77778C14 2.02963 13.916 2.24089 13.748 2.41156C13.5806 2.58163 13.3729 2.66667 13.125 2.66667V14.2222C13.125 14.7111 12.9538 15.1298 12.6114 15.4782C12.2684 15.8261 11.8563 16 11.375 16H2.625ZM4.375 11.5556C4.375 11.8074 4.459 12.0184 4.627 12.1884C4.79442 12.3591 5.00208 12.4444 5.25 12.4444C5.49792 12.4444 5.70588 12.3591 5.87388 12.1884C6.04129 12.0184 6.125 11.8074 6.125 11.5556V5.33333C6.125 5.08148 6.04129 4.87022 5.87388 4.69956C5.70588 4.52948 5.49792 4.44444 5.25 4.44444C5.00208 4.44444 4.79442 4.52948 4.627 4.69956C4.459 4.87022 4.375 5.08148 4.375 5.33333V11.5556ZM7.875 11.5556C7.875 11.8074 7.959 12.0184 8.127 12.1884C8.29442 12.3591 8.50208 12.4444 8.75 12.4444C8.99792 12.4444 9.20588 12.3591 9.37388 12.1884C9.54129 12.0184 9.625 11.8074 9.625 11.5556V5.33333C9.625 5.08148 9.54129 4.87022 9.37388 4.69956C9.20588 4.52948 8.99792 4.44444 8.75 4.44444C8.50208 4.44444 8.29442 4.52948 8.127 4.69956C7.959 4.87022 7.875 5.08148 7.875 5.33333V11.5556Z" fill="#C50303"/>
</svg>
