<svg width="24" height="24" viewBox="0 0 24 24" fill="none" xmlns="http://www.w3.org/2000/svg">
<g clip-path="url(#clip0_7038_8038)">
<path fill-rule="evenodd" clip-rule="evenodd" d="M10.9336 3.18311C9.91585 3.18311 8.90807 3.38356 7.9678 3.77304C7.02752 4.16251 6.17317 4.73337 5.45352 5.45303C4.73386 6.17268 4.163 7.02704 3.77353 7.96731C3.38405 8.90758 3.18359 9.91536 3.18359 10.9331C3.18359 11.9508 3.38405 12.9586 3.77353 13.8989C4.163 14.8392 4.73386 15.6935 5.45352 16.4132C6.17317 17.1328 7.02752 17.7037 7.9678 18.0932C8.90807 18.4826 9.91585 18.6831 10.9336 18.6831C12.989 18.6831 14.9603 17.8666 16.4137 16.4132C17.8671 14.9598 18.6836 12.9885 18.6836 10.9331C18.6836 8.87768 17.8671 6.90643 16.4137 5.45303C14.9603 3.99962 12.989 3.18311 10.9336 3.18311ZM0.683594 10.9331C0.683594 5.27311 5.27259 0.683105 10.9336 0.683105C16.5946 0.683105 21.1836 5.27311 21.1836 10.9331C21.1836 13.3131 20.3716 15.5031 19.0106 17.2431L23.3166 21.5491L21.5496 23.3171L17.2436 19.0111C15.4433 20.4221 13.221 21.1871 10.9336 21.1831C5.27259 21.1831 0.683594 16.5941 0.683594 10.9331ZM15.6396 9.23011H12.6366V6.22711H9.22959V9.23011H6.22659V12.6361H9.22959V15.6391H12.6366V12.6371H15.6396V9.23011Z" fill="#1E1E1E"/>
</g>
<defs>
<clipPath id="clip0_7038_8038">
<rect width="24" height="24" fill="white"/>
</clipPath>
</defs>
</svg>
