<svg width="24" height="24" viewBox="0 0 24 24" fill="none" xmlns="http://www.w3.org/2000/svg">
<path fill-rule="evenodd" clip-rule="evenodd" d="M10.9225 5.71429V4H12.0722V5.71429H13.7968V6.85714H12.0722V8.57143H10.9225V6.85714H9.19786V5.71429H10.9225ZM0.373088 9.75086C0.230416 9.8041 0.114848 9.91147 0.0517874 10.0494C-0.0112737 10.1873 -0.0166674 10.3444 0.0367915 10.4863L1.69815 14.8914L0.701337 18.8571H0.574866C0.422402 18.8571 0.276183 18.9173 0.168375 19.0245C0.0605662 19.1317 0 19.277 0 19.4286C0 19.5801 0.0605662 19.7255 0.168375 19.8326C0.276183 19.9398 0.422402 20 0.574866 20H22.4198C22.5722 20 22.7185 19.9398 22.8263 19.8326C22.9341 19.7255 22.9946 19.5801 22.9946 19.4286C22.9946 19.277 22.9341 19.1317 22.8263 19.0245C22.7185 18.9173 22.5722 18.8571 22.4198 18.8571H22.2933L21.2965 14.8914L22.9579 10.4863C22.9867 10.4156 23.001 10.3398 22.9999 10.2635C22.9989 10.1872 22.9824 10.1119 22.9516 10.042C22.9207 9.9721 22.8761 9.90906 22.8204 9.85659C22.7646 9.80412 22.6989 9.76328 22.627 9.73648C22.5551 9.70969 22.4785 9.69747 22.4018 9.70057C22.3251 9.70366 22.2498 9.722 22.1803 9.7545C22.1109 9.787 22.0487 9.833 21.9974 9.88979C21.9461 9.94658 21.9067 10.013 21.8817 10.0851L21.723 10.5051C21.659 10.4237 21.574 10.361 21.477 10.3238C21.38 10.2866 21.2746 10.2762 21.1722 10.2938C21.0697 10.3114 20.9739 10.3563 20.8951 10.4237C20.8163 10.4911 20.7573 10.5785 20.7245 10.6766L20.2813 12H14.9465V13.1429H16.0963V14.2857H15.5214C15.4459 14.2842 15.3708 14.2975 15.3005 14.3248C15.2302 14.3522 15.166 14.393 15.1115 14.445C15.0571 14.497 15.0135 14.5592 14.9832 14.6279C14.9529 14.6967 14.9365 14.7707 14.935 14.8457C14.9335 14.9208 14.9469 14.9954 14.9744 15.0653C15.0019 15.1352 15.043 15.199 15.0953 15.2531C15.1476 15.3072 15.2101 15.3506 15.2793 15.3807C15.3484 15.4108 15.4229 15.4271 15.4984 15.4286L14.5131 18.8571H8.48158L7.49626 15.4286C7.64872 15.4255 7.79373 15.3624 7.89938 15.2531C8.00503 15.1438 8.06267 14.9973 8.05962 14.8457C8.05657 14.6942 7.99308 14.55 7.88312 14.445C7.77316 14.34 7.62572 14.2827 7.47326 14.2857H6.89839V13.1429H8.04813V12H2.71337L2.27015 10.6766C2.23733 10.5785 2.17837 10.4911 2.09954 10.4237C2.02071 10.3563 1.92496 10.3114 1.82249 10.2938C1.72002 10.2762 1.61467 10.2866 1.51766 10.3238C1.42065 10.361 1.33561 10.4237 1.2716 10.5051L1.11294 10.0851C1.05938 9.94332 0.951364 9.82845 0.812629 9.76576C0.673895 9.70308 0.515798 9.69772 0.373088 9.75086ZM17.246 14.2857H20.2968L20.7279 13.1429H17.246V14.2857ZM5.74866 13.1429V14.2857H2.69785L2.2667 13.1429H5.74866ZM15.7088 18.8571H21.1085L20.3899 16H16.5297L15.7088 18.8571ZM6.46495 16L7.28585 18.8571H1.88614L2.60472 16H6.46495Z" fill="#1E1E1E"/>
</svg>
