<svg width="35" height="35" viewBox="0 0 35 35" fill="none" xmlns="http://www.w3.org/2000/svg">
<path fill-rule="evenodd" clip-rule="evenodd" d="M3.3912 14.6302C3.21023 14.6981 3.06364 14.8351 2.98366 15.0111C2.90367 15.1871 2.89683 15.3876 2.96464 15.5686L5.07193 21.1898L3.80755 26.2502H3.64714C3.45375 26.2502 3.26828 26.327 3.13154 26.4638C2.99479 26.6005 2.91797 26.786 2.91797 26.9794C2.91797 27.1728 2.99479 27.3582 3.13154 27.495C3.26828 27.6317 3.45375 27.7085 3.64714 27.7085H31.3555C31.5489 27.7085 31.7343 27.6317 31.8711 27.495C32.0078 27.3582 32.0846 27.1728 32.0846 26.9794C32.0846 26.786 32.0078 26.6005 31.8711 26.4638C31.7343 26.327 31.5489 26.2502 31.3555 26.2502H31.1951L29.9307 21.1898L32.038 15.5686C32.0746 15.4784 32.0927 15.3817 32.0914 15.2844C32.09 15.187 32.0691 15.0909 32.03 15.0017C31.9909 14.9125 31.9343 14.8321 31.8636 14.7651C31.7929 14.6982 31.7095 14.6461 31.6183 14.6119C31.5271 14.5777 31.43 14.5621 31.3327 14.566C31.2354 14.57 31.1399 14.5934 31.0518 14.6348C30.9636 14.6763 30.8847 14.735 30.8197 14.8075C30.7546 14.8799 30.7047 14.9647 30.673 15.0568L29.483 18.2294H21.8763V19.6877H23.3346V21.146H22.6055C22.4321 21.1461 22.2644 21.2079 22.1325 21.3204C22.0005 21.4329 21.913 21.5888 21.8856 21.76C21.8582 21.9312 21.8928 22.1066 21.983 22.2546C22.0732 22.4027 22.2133 22.5138 22.378 22.5679L21.3265 26.2502H13.6761L12.6246 22.5679C12.7894 22.5138 12.9294 22.4027 13.0196 22.2546C13.1098 22.1066 13.1444 21.9312 13.117 21.76C13.0896 21.5888 13.0021 21.4329 12.8701 21.3204C12.7382 21.2079 12.5705 21.1461 12.3971 21.146H11.668V19.6877H13.1263V18.2294H5.51964L4.32964 15.0568C4.2617 14.8758 4.12469 14.7292 3.94872 14.6492C3.77274 14.5692 3.57221 14.5624 3.3912 14.6302ZM28.4855 20.8901C28.4547 20.9719 28.4389 21.0586 28.4388 21.146H24.793V19.6877H28.9361L28.4855 20.8901ZM29.6922 26.2502L28.7808 22.6044H23.8844L22.8432 26.2502H29.6922ZM6.51714 20.8901L6.06651 19.6877H10.2096V21.146H6.5638C6.56371 21.0586 6.54791 20.9719 6.51714 20.8901ZM12.1594 26.2502L11.1182 22.6044H6.22109L5.30964 26.2502H12.1594Z" fill="#117A7A"/>
<path d="M16.7734 9.47949V7.29199H18.2318V9.47949H20.4193V10.9378H18.2318V13.1253H16.7734V10.9378H14.5859V9.47949H16.7734Z" fill="#117A7A"/>
</svg>
