<svg width="20" height="22" viewBox="0 0 20 22" fill="none" xmlns="http://www.w3.org/2000/svg">
<path d="M19 6C18 6 18 5 18 5V4H16V6H14V5C14 3.27 12.75 0 8 0C3.25 0 2 3.27 2 5V18C2 18.33 1.9 20 0 20V22C2.93 22 4 19.61 4 18V5C4 4.88 4.05 2 8 2C11.83 2 12 4.7 12 5V6H10V4H8V5C8 5 8 6 7 6C6 6 6 7 6 7V19C6 19 6 21 11 21H15C20 21 20 19 20 19V7C20 7 20 6 19 6ZM13 18.4C12.2044 18.4 11.4413 18.0839 10.8787 17.5213C10.3161 16.9587 10 16.1956 10 15.4C10 13.4 13 10 13 10C13 10 16 13.4 16 15.4C16 16.1956 15.6839 16.9587 15.1213 17.5213C14.5587 18.0839 13.7956 18.4 13 18.4Z" fill="#B7B7B7"/>
</svg>
