<svg width="20" height="20" viewBox="0 0 20 20" fill="none" xmlns="http://www.w3.org/2000/svg">
<path d="M14.4 14.34V12.5C14.4 12.3933 14.36 12.3 14.28 12.22C14.2 12.14 14.1067 12.1 14 12.1C13.8933 12.1 13.8 12.14 13.72 12.22C13.64 12.3 13.6 12.3933 13.6 12.5V14.34C13.6 14.4467 13.62 14.5467 13.66 14.64C13.7 14.7333 13.76 14.82 13.84 14.9L15.06 16.12C15.14 16.2 15.2333 16.24 15.34 16.24C15.4467 16.24 15.54 16.2 15.62 16.12C15.7 16.04 15.74 15.9467 15.74 15.84C15.74 15.7333 15.7 15.64 15.62 15.56L14.4 14.34ZM3.6 16.9C3.16 16.9 2.78333 16.7433 2.47 16.43C2.15667 16.1167 2 15.74 2 15.3V4.1C2 3.66 2.15667 3.28333 2.47 2.97C2.78333 2.65667 3.16 2.5 3.6 2.5H14.8C15.24 2.5 15.6167 2.65667 15.93 2.97C16.2433 3.28333 16.4 3.66 16.4 4.1V8.1C16.4 8.32667 16.3233 8.51667 16.17 8.67C16.0167 8.82333 15.8267 8.9 15.6 8.9C15.3733 8.9 15.1833 8.82333 15.03 8.67C14.8767 8.51667 14.8 8.32667 14.8 8.1V4.1H3.6V15.3H7.6C7.82667 15.3 8.01667 15.3767 8.17 15.53C8.32333 15.6833 8.4 15.8733 8.4 16.1C8.4 16.3267 8.32333 16.5167 8.17 16.67C8.01667 16.8233 7.82667 16.9 7.6 16.9H3.6ZM3.6 14.5V15.3V4.1V8.96V8.9V14.5ZM5.2 12.9C5.2 13.1267 5.27667 13.3167 5.43 13.47C5.58333 13.6233 5.77333 13.7 6 13.7H7.66C7.88667 13.7 8.07667 13.6233 8.23 13.47C8.38333 13.3167 8.46 13.1267 8.46 12.9C8.46 12.6733 8.38333 12.4833 8.23 12.33C8.07667 12.1767 7.88667 12.1 7.66 12.1H6C5.77333 12.1 5.58333 12.1767 5.43 12.33C5.27667 12.4833 5.2 12.6733 5.2 12.9ZM5.2 9.7C5.2 9.92667 5.27667 10.1167 5.43 10.27C5.58333 10.4233 5.77333 10.5 6 10.5H10C10.2267 10.5 10.4167 10.4233 10.57 10.27C10.7233 10.1167 10.8 9.92667 10.8 9.7C10.8 9.47333 10.7233 9.28333 10.57 9.13C10.4167 8.97667 10.2267 8.9 10 8.9H6C5.77333 8.9 5.58333 8.97667 5.43 9.13C5.27667 9.28333 5.2 9.47333 5.2 9.7ZM5.2 6.5C5.2 6.72667 5.27667 6.91667 5.43 7.07C5.58333 7.22333 5.77333 7.3 6 7.3H12.4C12.6267 7.3 12.8167 7.22333 12.97 7.07C13.1233 6.91667 13.2 6.72667 13.2 6.5C13.2 6.27333 13.1233 6.08333 12.97 5.93C12.8167 5.77667 12.6267 5.7 12.4 5.7H6C5.77333 5.7 5.58333 5.77667 5.43 5.93C5.27667 6.08333 5.2 6.27333 5.2 6.5ZM14 18.5C12.8933 18.5 11.95 18.11 11.17 17.33C10.39 16.55 10 15.6067 10 14.5C10 13.3933 10.39 12.45 11.17 11.67C11.95 10.89 12.8933 10.5 14 10.5C15.1067 10.5 16.05 10.89 16.83 11.67C17.61 12.45 18 13.3933 18 14.5C18 15.6067 17.61 16.55 16.83 17.33C16.05 18.11 15.1067 18.5 14 18.5Z" fill="#1E1E1E"/>
</svg>
