<svg width="16" height="17" viewBox="0 0 16 17" fill="none" xmlns="http://www.w3.org/2000/svg">
<path fill-rule="evenodd" clip-rule="evenodd" d="M8 0C7.84089 0 7.68829 0.0653914 7.57578 0.181789C7.46327 0.298186 7.40006 0.456055 7.40006 0.620666V9.70142L6.05619 8.07859C6.00492 8.01664 5.94237 7.96575 5.8721 7.92881C5.80182 7.89188 5.7252 7.86962 5.64661 7.86332C5.56803 7.85702 5.48901 7.8668 5.41407 7.89209C5.33914 7.91738 5.26975 7.95769 5.20987 8.01073C5.14999 8.06376 5.1008 8.12848 5.0651 8.20118C5.0294 8.27388 5.00789 8.35315 5.00179 8.43445C4.9957 8.51575 5.00515 8.5975 5.0296 8.67502C5.05405 8.75255 5.09301 8.82433 5.14428 8.88628L7.54404 11.7827C7.60037 11.8509 7.67029 11.9056 7.749 11.9431C7.82771 11.9806 7.91334 12 8 12C8.08666 12 8.17229 11.9806 8.251 11.9431C8.32971 11.9056 8.39963 11.8509 8.45596 11.7827L10.8557 8.88628C10.907 8.82433 10.946 8.75255 10.9704 8.67502C10.9948 8.5975 11.0043 8.51575 10.9982 8.43445C10.9921 8.35315 10.9706 8.27388 10.9349 8.20118C10.8992 8.12848 10.85 8.06376 10.7901 8.01073C10.7303 7.95769 10.6609 7.91738 10.5859 7.89209C10.511 7.8668 10.432 7.85702 10.3534 7.86332C10.2748 7.86962 10.1982 7.89188 10.1279 7.92881C10.0576 7.96575 9.99508 8.01664 9.94381 8.07859L8.59994 9.70059V0.620666C8.59994 0.456055 8.53673 0.298186 8.42422 0.181789C8.31171 0.0653914 8.15911 0 8 0Z" fill="#1E1E1E"/>
<path d="M9.8 7V7.29077C10.1739 7.16298 10.5812 7.15763 10.9586 7.27555C11.336 7.39347 11.6623 7.62804 11.8866 7.94276C12.111 8.25747 12.2208 8.63468 12.1991 9.01565C12.1773 9.39663 12.0252 9.76001 11.7664 10.0492L9.3664 12.7415C9.19742 12.931 8.98781 13.0831 8.75196 13.1874C8.51611 13.2917 8.25959 13.3456 8 13.3456C7.74041 13.3456 7.48389 13.2917 7.24804 13.1874C7.01219 13.0831 6.80258 12.931 6.6336 12.7415L4.2336 10.0492C3.97551 9.75984 3.824 9.39661 3.80261 9.01594C3.78121 8.63527 3.89113 8.25846 4.11528 7.94401C4.33944 7.62956 4.6653 7.39508 5.04226 7.27696C5.41923 7.15883 5.8262 7.16369 6.2 7.29077V7H4.8C2.5376 7 1.4056 7 0.7032 7.67615C-4.76837e-08 8.35154 0 9.44 0 11.6154V12.3846C0 14.56 -4.76837e-08 15.6485 0.7032 16.3238C1.4056 17 2.5376 17 4.8 17H11.2C13.4624 17 14.5944 17 15.2968 16.3238C16 15.6485 16 14.56 16 12.3846V11.6154C16 9.44 16 8.35154 15.2968 7.67615C14.5944 7 13.4624 7 11.2 7H9.8Z" fill="#1E1E1E"/>
</svg>
