<svg width="20" height="20" viewBox="0 0 20 20" fill="none" xmlns="http://www.w3.org/2000/svg">
<path d="M6.54937 0.62808C6.88364 0.612787 7.309 0.624225 7.64948 0.624239L9.70413 0.624308L12.1616 0.624069C12.5852 0.623981 13.0109 0.622897 13.4345 0.625172C13.4846 0.629166 13.6145 0.630306 13.6546 0.659434C13.8692 0.814932 14.074 1.04239 14.2612 1.22976L15.2435 2.2143L15.8672 2.83873C16.2695 3.24136 16.2836 3.1514 16.2832 3.72492L16.2829 4.36511L16.2825 6.8313V13.2952V15.3856C16.2827 15.7335 16.2842 16.082 16.2835 16.43C16.2833 16.5166 16.278 16.6133 16.23 16.6873C16.1793 16.7646 16.0989 16.8175 16.0079 16.8332C15.8479 16.8607 15.4926 16.5751 15.361 16.4844L14.4701 15.8727C14.3679 15.9441 13.7945 16.3972 13.7583 16.47C13.7162 16.5547 13.7377 16.8619 13.7378 16.974L13.7395 18.3541C13.7396 18.5373 13.7654 19.0949 13.6921 19.222C13.6498 19.2947 13.5793 19.3465 13.4975 19.3651C13.3595 19.3967 13.2683 19.3318 13.1611 19.2592C12.7496 18.9806 12.3444 18.6884 11.9296 18.4151C11.8859 18.442 11.8432 18.4783 11.8027 18.5105L11.1481 19.0494C11.0404 19.138 10.9127 19.2544 10.7964 19.3278C10.5455 19.4865 10.3802 19.2399 10.2241 19.0848C10.0296 18.8918 9.84154 18.6639 9.63422 18.4849C9.53899 18.622 9.34993 18.8171 9.23791 18.9489C9.10988 19.0995 8.92898 19.3786 8.71923 19.3707C8.65508 19.3685 8.59323 19.3463 8.54248 19.307C8.46059 19.2443 8.3413 19.0921 8.2698 19.0092C8.12007 18.8356 7.97658 18.6589 7.82098 18.4898C7.75694 18.5379 7.63514 18.6693 7.57551 18.7315L7.19394 19.1285C6.90312 19.429 6.8333 19.466 6.49953 19.2047C6.18281 18.9567 5.86511 18.6552 5.54272 18.4213L5.53223 18.4137C5.07359 18.707 4.63188 19.0501 4.16958 19.3394C4.13602 19.3604 4.07929 19.3726 4.03963 19.3738C3.95249 19.3758 3.86838 19.3417 3.80726 19.2796C3.73301 19.2053 3.71924 19.116 3.71875 19.0155L3.71981 8.74944L3.71982 5.20967L3.7194 4.0845C3.71932 3.88093 3.71776 3.67809 3.72316 3.4746C3.72689 3.33442 3.82174 3.18715 3.9706 3.17586C4.2214 3.15686 4.48071 3.16501 4.73301 3.16502L6.26228 3.1674C6.25615 3.05844 6.26232 2.88741 6.26261 2.77375L6.2629 2.02884L6.2624 1.33906C6.26235 1.20625 6.25927 1.07507 6.26718 0.942391C6.27884 0.746704 6.36036 0.661948 6.54937 0.62808ZM4.3457 18.4612C4.60331 18.3004 4.84983 18.1176 5.09984 17.9449C5.20421 17.8728 5.31634 17.7797 5.43267 17.7287C5.4869 17.705 5.55153 17.7014 5.60898 17.7138C5.79949 17.7551 6.56159 18.4652 6.80071 18.631L7.35226 18.0627C7.39795 18.0156 7.44336 17.9674 7.48909 17.921C7.59065 17.8178 7.67597 17.7061 7.83543 17.7085C7.93902 17.71 8.02183 17.7598 8.09101 17.8356C8.2371 18.0021 8.38017 18.1742 8.525 18.342C8.58619 18.4128 8.66624 18.5137 8.73436 18.5735L9.18488 18.0469C9.24098 17.9816 9.30437 17.9127 9.35903 17.8471C9.50807 17.6684 9.70486 17.6599 9.8723 17.8231C10.0653 18.0112 10.2528 18.2163 10.4421 18.4092C10.5064 18.4746 10.5965 18.5747 10.6659 18.6296C10.797 18.528 10.9242 18.4117 11.0539 18.3152C11.1931 18.1975 11.3333 18.0811 11.4746 17.9659C11.5685 17.8885 11.6661 17.7928 11.7744 17.7371C11.8229 17.7122 11.8818 17.703 11.9359 17.7084C12.1363 17.7281 12.8631 18.3265 13.1163 18.4611C13.105 18.1084 13.113 17.7209 13.113 17.3642L13.1131 15.3621L13.1136 9.31901V7.29739C13.1136 6.98321 13.1271 6.55038 13.1101 6.24633C12.6173 6.24202 12.1245 6.24057 11.6316 6.24194C11.4855 6.24211 11.0622 6.25463 10.9453 6.23529C10.8738 6.22354 10.8079 6.18951 10.757 6.13808C10.6467 6.02856 10.6685 5.79936 10.6715 5.6518C10.6833 5.05994 10.6615 4.4583 10.6729 3.86749C10.6735 3.84415 10.6743 3.82082 10.6754 3.79749C9.19755 3.78136 7.6973 3.79462 6.21767 3.79479L4.94276 3.79534C4.82181 3.7955 4.45084 3.8051 4.34447 3.79296L4.34402 13.4734L4.34406 16.7637C4.34407 17.3152 4.33144 17.9154 4.3457 18.4612ZM7.14594 1.25441C7.06323 1.25631 6.96876 1.26078 6.88716 1.2557L6.88712 2.50027C6.8871 2.71246 6.89252 2.95279 6.88474 3.16214C7.24234 3.17024 7.6123 3.16583 7.9708 3.1658L9.77328 3.16551L10.5222 3.16536C10.6972 3.16533 10.8746 3.16022 11.0483 3.17702C11.1096 3.18295 11.1973 3.2533 11.2417 3.29583C11.4041 3.45104 11.5645 3.61449 11.7233 3.77339L12.6174 4.66868L13.2887 5.34117C13.4244 5.47721 13.5702 5.61401 13.6926 5.76201C13.7343 5.81246 13.7312 5.90931 13.7377 5.9722C13.7406 6.27204 13.7391 6.57418 13.7389 6.87411L13.7385 8.60753V13.8967L13.7387 15.0401C13.7387 15.189 13.7301 15.4945 13.746 15.6273C13.8871 15.62 14.273 15.0477 14.5447 15.1859C14.7861 15.3088 14.9945 15.4701 15.2167 15.6252C15.3532 15.7181 15.5204 15.8386 15.6598 15.9234L15.659 3.70659L14.177 3.70283C14.0317 3.703 13.6008 3.71567 13.4849 3.69517C13.4138 3.68275 13.3483 3.64882 13.2971 3.59798C13.1884 3.49024 13.209 3.26897 13.2119 3.12389C13.2235 2.52659 13.2026 1.92073 13.2133 1.32431C13.2138 1.30189 13.2146 1.27949 13.2157 1.25708C11.4489 1.23469 9.67648 1.26695 7.90925 1.25383C7.65648 1.25196 7.39816 1.24976 7.14594 1.25441Z" fill="black"/>
<path d="M5.82173 7.20967C6.03287 7.19362 6.37796 7.20396 6.59967 7.20395L8.06435 7.20396L10.3365 7.20413C10.7232 7.20416 11.1114 7.20329 11.4981 7.20492C11.5453 7.20513 11.6754 7.21449 11.7159 7.23413C11.7945 7.27225 11.8565 7.34206 11.8814 7.4267C11.9057 7.50954 11.8956 7.59869 11.8535 7.67407C11.7999 7.76804 11.7209 7.80354 11.6235 7.83103C11.4797 7.84952 11.106 7.84049 10.9482 7.84053L9.62737 7.8407L7.19212 7.84066C6.78589 7.84064 6.37773 7.84141 5.97139 7.8401C5.90711 7.83456 5.79461 7.83108 5.73837 7.80333C5.57273 7.7216 5.51138 7.51141 5.60959 7.35414C5.66528 7.26497 5.72416 7.2349 5.82173 7.20967Z" fill="black"/>
<path d="M5.87073 11.3903C6.10971 11.3761 6.4993 11.3879 6.74556 11.3878L8.49589 11.3876H10.4941C10.8364 11.3877 11.182 11.3854 11.5243 11.3903C11.6148 11.3916 11.6841 11.3989 11.7599 11.4489C11.8261 11.4924 11.8715 11.5611 11.8856 11.639C11.9239 11.8386 11.7981 11.9809 11.6076 12.0192C11.3413 12.0355 10.9492 12.0237 10.6765 12.0237L8.88897 12.0236L6.89779 12.0235C6.57392 12.0235 6.24638 12.0262 5.92253 12.0231C5.83144 12.0207 5.79088 12.0169 5.71027 11.97C5.54942 11.8799 5.52091 11.6627 5.61973 11.5168C5.67841 11.43 5.77497 11.4047 5.87073 11.3903Z" fill="black"/>
<path d="M5.86525 15.5801C6.10781 15.564 6.50795 15.5762 6.75783 15.5761L8.49006 15.576L10.4907 15.5762C10.8342 15.5763 11.1776 15.5744 11.5211 15.5791C11.7049 15.5817 11.8622 15.6395 11.8924 15.8452C11.9053 15.9303 11.882 16.0169 11.8283 16.0842C11.77 16.1575 11.7044 16.1903 11.6135 16.2024C11.4198 16.2185 11.0588 16.2077 10.8523 16.2077H9.42411L7.1149 16.2076C6.73071 16.2076 6.34533 16.2093 5.96112 16.2074C5.89171 16.202 5.80988 16.2075 5.7457 16.178C5.73439 16.1728 5.7168 16.1607 5.70668 16.1545C5.63551 16.1089 5.58601 16.0363 5.56958 15.9534C5.52891 15.746 5.66821 15.6068 5.86525 15.5801Z" fill="black"/>
<path d="M5.85249 9.30051C6.11717 9.28645 6.46426 9.29637 6.73318 9.29632L8.38056 9.2962L10.4366 9.29637C10.7885 9.29642 11.1423 9.29514 11.4943 9.29802C11.5666 9.30443 11.6751 9.29945 11.7371 9.33984C11.9937 9.5069 11.9259 9.85938 11.6193 9.9211C11.3227 9.93702 10.9284 9.92608 10.6265 9.92618H8.79499H6.89402C6.57492 9.92627 6.25703 9.92891 5.93684 9.9251C5.76643 9.93008 5.59268 9.85948 5.56672 9.66802C5.53771 9.45405 5.66086 9.33486 5.85249 9.30051Z" fill="black"/>
<path d="M5.83244 13.4897C6.01532 13.4735 6.36539 13.4835 6.55912 13.4835L7.97011 13.4833L10.2876 13.4834C10.6879 13.4834 11.0894 13.4824 11.4896 13.4849C11.5676 13.4907 11.6493 13.4805 11.72 13.5179C11.9871 13.6589 11.9456 14.0307 11.6402 14.1038C11.481 14.1222 11.0764 14.1119 10.8947 14.1119H9.44494H7.13348C6.72813 14.112 6.31875 14.1146 5.91335 14.1093C5.82597 14.1081 5.77683 14.1047 5.70277 14.0574C5.63236 14.0124 5.58367 13.9402 5.56819 13.8581C5.53458 13.6764 5.65324 13.5222 5.83244 13.4897Z" fill="black"/>
<path d="M5.89517 5.11168C6.58154 5.10209 7.27702 5.11488 7.9642 5.11016C8.1178 5.1091 8.44549 5.08733 8.56546 5.1731C8.63349 5.22194 8.67832 5.2967 8.68935 5.37971C8.71904 5.5956 8.56238 5.72016 8.3633 5.7394C7.90473 5.75558 7.3544 5.74095 6.88924 5.74098L6.25185 5.7415C6.10283 5.74163 5.81733 5.76461 5.69639 5.68005C5.62617 5.63128 5.57899 5.55589 5.5658 5.47143C5.55194 5.38257 5.58279 5.2905 5.63796 5.2207C5.7068 5.13361 5.79351 5.12029 5.89517 5.11168Z" fill="black"/>
</svg>
