<svg width="20" height="20" viewBox="0 0 20 20" fill="none" xmlns="http://www.w3.org/2000/svg">
<path d="M5.85676 5.99898C5.87629 5.12472 5.83687 4.24013 5.87337 3.36652C5.89108 2.94258 6.12586 2.46703 6.43249 2.17288C6.68314 1.93276 6.99462 1.76569 7.33331 1.68971C7.58211 1.63585 7.9698 1.64298 8.22561 1.6429L9.15612 1.64271L10.9634 1.64283C11.8345 1.64308 12.6642 1.52381 13.3268 2.22266C13.5621 2.46674 13.7267 2.77029 13.8025 3.10074C13.8596 3.34212 13.8555 3.66113 13.8555 3.90807L13.855 4.57387C13.8546 5.01465 13.8676 5.5251 13.8546 5.9591C13.8542 5.97151 13.8538 5.98392 13.8532 5.99631C14.422 6.0001 14.9907 6.00104 15.5595 5.99913C15.9138 5.99899 16.5002 5.97787 16.8273 6.05604C17.1719 6.13859 17.4865 6.31551 17.736 6.56696C17.9779 6.81277 18.1471 7.12072 18.2247 7.45674C18.3009 7.77873 18.2801 8.48041 18.2799 8.84485C18.2828 9.36118 18.2826 9.87755 18.2793 10.3939C18.5107 10.3957 18.7422 10.3961 18.9735 10.395C19.2699 10.3944 19.6064 10.35 19.8327 10.5721C19.937 10.6743 19.9375 10.7619 20 10.8721V11.0914L19.9963 11.0988C19.9558 11.1806 19.933 11.2587 19.8806 11.3332C19.6924 11.6009 19.3346 11.581 19.0381 11.5703C18.818 11.5624 18.4904 11.5931 18.2796 11.5641C18.2812 12.2998 18.2947 12.8691 17.7258 13.4433C17.4711 13.6954 17.1515 13.872 16.8024 13.9533C16.5148 14.0218 15.8765 14.0041 15.5625 14.0038L13.9428 14.0049C13.9118 14.0049 13.8908 14.0039 13.86 14.0005C13.8495 14.2236 13.8546 14.476 13.8547 14.7013L13.8552 15.8562C13.8552 16.2007 13.8743 16.5893 13.7964 16.9244C13.6376 17.6069 13.0522 18.1715 12.3674 18.314C12.077 18.3744 11.7277 18.3596 11.4292 18.3597L10.3422 18.3595H8.67077C7.79903 18.3599 7.00996 18.4649 6.35694 17.7445C6.14173 17.5116 5.98966 17.2276 5.91519 16.9193C5.83893 16.6045 5.8596 16.0139 5.85962 15.6656L5.85931 14.0063C5.38993 14.0104 4.89919 14.0021 4.42839 14.0036C4.05391 14.0048 3.35253 14.0265 3.01699 13.9457C2.68003 13.8657 2.37126 13.6953 2.12389 13.4529C1.57399 12.9158 1.54591 12.2911 1.56709 11.5733C1.33895 11.5681 0.593776 11.588 0.425446 11.5417C0.32272 11.5137 0.229441 11.4584 0.155383 11.3818C0.0515796 11.2745 0.0549156 11.1889 0 11.1018V10.8609C0.00138513 10.8586 0.00280015 10.8564 0.00415537 10.8541C0.0320201 10.8069 0.048186 10.7552 0.0726678 10.7065C0.145355 10.5618 0.263293 10.4664 0.418766 10.4239C0.618804 10.3693 1.31852 10.3913 1.56514 10.3985L1.56524 8.72805C1.56529 8.37898 1.54434 7.76949 1.62044 7.45082C1.7024 7.1078 1.87714 6.79395 2.12553 6.54359C2.76772 5.90635 3.51539 5.99814 4.34184 5.999L5.85676 5.99898ZM2.73566 10.3947C3.64204 10.3952 4.59471 10.3801 5.49619 10.3983C5.68419 9.68031 5.8918 8.96626 6.0824 8.24889C6.13071 8.06705 6.19661 7.90579 6.36577 7.80279C6.50288 7.72075 6.66713 7.69704 6.82186 7.73695C6.96529 7.7747 7.09935 7.86603 7.17293 7.99634C7.32729 8.26969 7.98916 10.4415 8.04308 10.4638C8.09872 10.4166 8.14294 10.3075 8.1803 10.242C8.30475 10.0238 8.6617 9.31774 8.81773 9.1874C8.92922 9.09429 9.09127 9.04999 9.23517 9.06181C9.38101 9.07378 9.5314 9.14221 9.62761 9.25413C9.7283 9.37126 9.79268 9.52914 9.8627 9.66626L10.3355 10.5866C10.3743 10.6618 10.5159 10.9465 10.5561 10.9997C10.5893 10.9769 10.6235 10.8665 10.6417 10.8226C10.6893 10.7072 10.7358 10.5911 10.7833 10.4757L11.4999 8.73608C11.5796 8.54282 11.6688 8.34173 11.7432 8.14709C11.8568 7.84925 12.0909 7.65482 12.4257 7.71947C12.5799 7.74849 12.7158 7.83841 12.8028 7.96893C12.8815 8.08805 13.0011 8.41526 13.0652 8.56563L13.5814 9.79279C13.6575 9.97404 13.7514 10.2175 13.8341 10.3913C14.1657 10.4031 14.5138 10.3935 14.847 10.396C15.5986 10.4017 16.3564 10.3882 17.1077 10.3972L17.1083 8.66892C17.1084 8.36662 17.1264 7.99294 17.0793 7.69861C17.0429 7.47045 16.7824 7.22756 16.5551 7.19796C16.326 7.16459 16.0664 7.17995 15.8324 7.18031L14.1246 7.17979C13.8428 7.17982 13.5501 7.1856 13.2687 7.17691C13.1887 7.17444 13.0871 7.14949 13.0163 7.11364C12.7638 6.98574 12.6855 6.79072 12.6852 6.52241C12.6841 5.79741 12.6876 5.07803 12.6859 4.35335C12.6761 4.02265 12.7081 3.68328 12.6613 3.3552C12.6448 3.23969 12.5492 3.1006 12.4695 3.01854C12.2335 2.77546 11.8822 2.81678 11.5635 2.81713L10.799 2.81808L7.90955 2.81722C7.645 2.81982 7.43064 2.82774 7.23312 3.02698C7.04136 3.22042 7.02884 3.44136 7.03071 3.69999C7.03167 3.83355 7.03062 3.97218 7.03071 4.10697L7.03183 5.76867C7.03191 6.05031 7.0404 6.34355 7.02386 6.62309C7.00182 6.99525 6.67011 7.20453 6.31943 7.18072C5.35482 7.18024 4.37979 7.17459 3.4144 7.18525C3.01166 7.19055 2.74153 7.50753 2.73847 7.898C2.73643 8.15876 2.73509 8.4193 2.73511 8.68025L2.73566 10.3947ZM6.73959 10.299C6.68045 10.4969 6.52824 11.1324 6.44817 11.2717C6.39361 11.3669 6.31411 11.4455 6.21822 11.4989C6.14132 11.5415 6.05557 11.562 5.96843 11.5652C5.73423 11.5738 5.49432 11.5701 5.25981 11.5699L3.94016 11.5695L3.1321 11.5703C3.03478 11.5705 2.82188 11.5776 2.73694 11.5647L2.73544 11.9319C2.73492 12.2045 2.73839 12.408 2.94327 12.6165C3.12371 12.8001 3.32031 12.8267 3.56536 12.8271L5.58464 12.8256L6.12505 12.8254C6.26827 12.8253 6.42818 12.8196 6.56774 12.8456C6.67577 12.8659 6.77532 12.9179 6.8537 12.9949C6.97696 13.1151 7.00968 13.237 7.02958 13.3982L7.03091 15.609V16.1879C7.03097 16.4947 7.00571 16.7533 7.24753 16.9863C7.50563 17.2349 7.85052 17.1845 8.18467 17.1846L9.11727 17.1848H10.9435C11.2651 17.1848 11.5871 17.1862 11.9094 17.183C12.1488 17.1806 12.3175 17.1361 12.4873 16.9621C12.5543 16.8934 12.6472 16.743 12.6599 16.6505C12.6997 16.3617 12.6857 16 12.6857 15.7076L12.6855 13.955C12.6854 13.7296 12.6547 13.3497 12.7445 13.1592C12.8541 12.9266 13.0629 12.8271 13.3113 12.8259C13.5677 12.8247 13.8235 12.826 14.0792 12.826L15.6502 12.8257C15.8304 12.8257 16.3891 12.8382 16.5402 12.8075C16.6819 12.7797 16.8116 12.7086 16.9112 12.6041C17.1687 12.3301 17.1056 11.9352 17.1096 11.5734C16.2378 11.5578 15.3273 11.5688 14.4523 11.5692L13.7946 11.5705C13.6406 11.5708 13.4781 11.5812 13.3262 11.5549C13.2169 11.536 13.1005 11.4719 13.024 11.3916C12.8252 11.1831 12.4075 9.90724 12.3193 9.83859C12.2153 10.0457 12.0896 10.3806 11.997 10.6058L11.4155 12.0196C11.358 12.1593 11.2979 12.3016 11.2419 12.4416C11.1461 12.6816 11.0663 12.8827 10.8007 12.9724C10.6534 13.0216 10.4926 13.0093 10.3546 12.9383C10.1181 12.8196 10.0003 12.4974 9.88272 12.2679L9.41367 11.3554C9.34344 11.219 9.23983 11.0025 9.16272 10.8756C9.02322 11.1525 8.84822 11.4462 8.69271 11.7162C8.54252 11.9769 8.3918 12.3719 8.09333 12.4719C7.94394 12.5209 7.78115 12.508 7.6413 12.4361C7.53304 12.3792 7.42172 12.2711 7.37668 12.1572C7.30566 11.9777 7.2449 11.7871 7.1827 11.6043L6.73959 10.299Z" fill="#B7B7B7"/>
</svg>
