<svg width="20" height="20" viewBox="0 0 20 20" fill="none" xmlns="http://www.w3.org/2000/svg">
<path d="M3.33333 3.75H16.6667C16.8877 3.75 17.0996 3.8378 17.2559 3.99408C17.4122 4.15036 17.5 4.36232 17.5 4.58333V17.0833C17.5 17.3043 17.4122 17.5163 17.2559 17.6726C17.0996 17.8289 16.8877 17.9167 16.6667 17.9167H3.33333C3.11232 17.9167 2.90036 17.8289 2.74408 17.6726C2.5878 17.5163 2.5 17.3043 2.5 17.0833V4.58333C2.5 4.36232 2.5878 4.15036 2.74408 3.99408C2.90036 3.8378 3.11232 3.75 3.33333 3.75Z" stroke="#1E1E1E" stroke-width="2" stroke-linejoin="round"/>
<path d="M13.75 2.08301V3.74967M6.25 2.08301V3.74967M17.5 7.08301H2.5M12.5 12.4997H7.5M10 9.99968V14.9997M17.5 4.58301V9.58301M2.5 4.58301V9.58301" stroke="#1E1E1E" stroke-width="2" stroke-linecap="round"/>
</svg>
