<svg width="30" height="30" viewBox="0 0 30 30" fill="none" xmlns="http://www.w3.org/2000/svg">
<path d="M24 22.7143V12.4286C24 12.0667 23.9201 11.7238 23.7604 11.4C23.6006 11.0762 23.3805 10.8095 23.1 10.6L16.35 5.45714C15.9563 5.15238 15.5063 5 15 5C14.4938 5 14.0438 5.15238 13.65 5.45714L6.9 10.6C6.61875 10.8095 6.39825 11.0762 6.2385 11.4C6.07875 11.7238 5.99925 12.0667 6 12.4286V22.7143C6 23.3429 6.2205 23.8811 6.6615 24.3291C7.1025 24.7771 7.632 25.0008 8.25 25H11.625C11.9438 25 12.2108 24.8903 12.426 24.6709C12.6413 24.4514 12.7493 24.1802 12.75 23.8571V18.1429C12.75 17.819 12.858 17.5478 13.074 17.3291C13.29 17.1105 13.557 17.0008 13.875 17H16.125C16.4438 17 16.7108 17.1097 16.926 17.3291C17.1413 17.5486 17.2493 17.8198 17.25 18.1429V23.8571C17.25 24.1809 17.358 24.4526 17.574 24.672C17.79 24.8914 18.057 25.0008 18.375 25H21.75C22.3688 25 22.8983 24.7764 23.3385 24.3291C23.7788 23.8819 23.9993 23.3436 24 22.7143Z" fill="#B7B7B7"/>
</svg>
