<svg width="35" height="35" viewBox="0 0 35 35" fill="none" xmlns="http://www.w3.org/2000/svg">
<path fill-rule="evenodd" clip-rule="evenodd" d="M16.8995 4.375H17.5003V16.4062C17.5003 17.4256 17.9116 17.8223 18.2324 18.0097C18.2625 18.0272 18.2929 18.0435 18.3235 18.0585C18.3353 17.6425 18.3378 17.2263 18.3308 16.8102C18.3235 16.1357 18.3148 15.2884 18.3797 14.4113C18.7484 15.091 19.223 15.7079 19.7855 16.2385C19.786 16.4174 19.7872 16.5912 19.7892 16.7599C19.7916 16.9611 19.7928 17.1532 19.7928 17.3359C19.7928 17.947 19.7687 18.593 19.7432 19.2704C19.7009 20.4101 19.6557 21.6388 19.7155 22.941C19.7615 23.9276 19.8686 24.8325 20.0684 25.5901C20.2711 26.3586 20.5417 26.8661 20.8348 27.1673C21.6967 28.054 23.058 28.7693 24.4412 29.0456C25.7997 29.3169 26.8716 29.1156 27.4965 28.6344L27.5037 28.6176C27.5431 28.5155 27.592 28.3369 27.6321 28.0649C27.7123 27.5187 27.7327 26.7575 27.6787 25.8191C27.5716 23.9509 27.1814 21.5826 26.5653 19.2515C26.4623 18.8613 26.3529 18.4728 26.2372 18.0863C26.7146 17.9897 27.1812 17.8456 27.6299 17.656C29.1757 22.8054 29.7051 28.6657 28.5209 29.68C26.3378 31.551 21.973 30.4289 19.7899 28.1845C18.1201 26.4673 18.169 22.5772 18.2718 19.5876C18.0006 19.5165 17.7401 19.4093 17.4974 19.269C17.2222 19.1094 16.9765 18.9037 16.7711 18.6608C16.5546 18.9175 16.3045 19.1173 16.0449 19.269C15.77 19.4294 15.4995 19.5271 15.2705 19.5876C15.3733 22.5772 15.4222 26.4673 13.7524 28.1845C11.57 30.4289 7.20447 31.551 5.02135 29.6807C2.83822 27.8104 6.47676 9.47917 11.5693 9.47917C15.288 9.47917 15.237 14.323 15.2114 16.8102C15.2095 17.0003 15.2083 17.1753 15.2078 17.3352C15.2078 17.5603 15.2115 17.8014 15.2187 18.0585C15.2494 18.044 15.2797 18.0277 15.3099 18.0097C15.6307 17.8223 16.042 17.4256 16.042 16.4062V4.375H16.8995ZM11.5693 10.9375C12.1839 10.9375 12.523 11.1336 12.7651 11.391C13.0524 11.6958 13.2988 12.1946 13.4724 12.9099C13.7765 14.1597 13.7641 15.5991 13.7531 16.7599C13.7512 16.9616 13.75 17.1536 13.7495 17.3359C13.7495 17.947 13.7735 18.593 13.7991 19.2704C13.8413 20.4101 13.8866 21.6388 13.8268 22.941C13.7816 23.9276 13.6736 24.8325 13.4738 25.5901C13.2711 26.3586 13.0006 26.8661 12.7075 27.1673C11.8456 28.054 10.485 28.7693 9.10103 29.0456C7.7426 29.3169 6.67072 29.1156 6.04583 28.6344L6.03853 28.6176C5.97645 28.4384 5.93343 28.2531 5.9102 28.0649C5.82999 27.5187 5.80958 26.7575 5.86353 25.8191C5.97072 23.9509 6.36082 21.5826 6.97697 19.2515C7.59603 16.9108 8.41853 14.7 9.34968 13.1097C9.81635 12.3127 10.2728 11.7352 10.6913 11.3728C11.107 11.0126 11.3943 10.9375 11.5693 10.9375ZM27.4782 28.6759L27.476 28.6796L27.4768 28.6781L27.4782 28.6759Z" fill="#117A7A"/>
<path fill-rule="evenodd" clip-rule="evenodd" d="M22.7801 7.89574C23.1692 7.63846 23.6041 7.45826 24.0612 7.36491V6.56283C23.8678 6.56283 23.6823 6.486 23.5456 6.34926C23.4089 6.21251 23.332 6.02705 23.332 5.83366C23.332 5.64027 23.4089 5.45481 23.5456 5.31806C23.6823 5.18132 23.8678 5.10449 24.0612 5.10449H25.5195C25.7129 5.10449 25.8984 5.18132 26.0351 5.31806C26.1719 5.45481 26.2487 5.64027 26.2487 5.83366C26.2487 6.02705 26.1719 6.21251 26.0351 6.34926C25.8984 6.486 25.7129 6.56283 25.5195 6.56283V7.36491C25.9847 7.4597 26.4186 7.64199 26.8007 7.89574L27.4052 7.29199C27.2723 7.15447 27.1988 6.97028 27.2005 6.7791C27.2022 6.58791 27.2788 6.40503 27.414 6.26983C27.5492 6.13464 27.7321 6.05795 27.9233 6.05629C28.1145 6.05463 28.2987 6.12813 28.4362 6.26095L29.4672 7.29199C29.5369 7.35926 29.5924 7.43972 29.6306 7.52868C29.6689 7.61764 29.689 7.71332 29.6898 7.81014C29.6907 7.90696 29.6722 8.00297 29.6355 8.09258C29.5989 8.1822 29.5447 8.26361 29.4763 8.33207C29.4078 8.40054 29.3264 8.45468 29.2368 8.49134C29.1472 8.528 29.0512 8.54645 28.9543 8.54561C28.8575 8.54477 28.7618 8.52466 28.6729 8.48644C28.5839 8.44823 28.5035 8.39268 28.4362 8.32303L27.8324 8.92751C28.0855 9.3096 28.2685 9.74345 28.3633 10.2087H29.1654C29.1654 10.0153 29.2422 9.82981 29.3789 9.69306C29.5157 9.55631 29.7011 9.47949 29.8945 9.47949C30.0879 9.47949 30.2734 9.55631 30.4101 9.69306C30.5469 9.82981 30.6237 10.0153 30.6237 10.2087V11.667C30.6237 11.8604 30.5469 12.0458 30.4101 12.1826C30.2734 12.3193 30.0879 12.3962 29.8945 12.3962C29.7011 12.3962 29.5157 12.3193 29.3789 12.1826C29.2422 12.0458 29.1654 11.8604 29.1654 11.667H28.3633C28.2699 12.1241 28.0897 12.559 27.8324 12.9481L28.4362 13.5526C28.5035 13.483 28.5839 13.4274 28.6729 13.3892C28.7618 13.351 28.8575 13.3309 28.9543 13.33C29.0512 13.3292 29.1472 13.3476 29.2368 13.3843C29.3264 13.421 29.4078 13.4751 29.4763 13.5436C29.5447 13.612 29.5989 13.6935 29.6355 13.7831C29.6722 13.8727 29.6907 13.9687 29.6898 14.0655C29.689 14.1623 29.6689 14.258 29.6306 14.347C29.5924 14.4359 29.5369 14.5164 29.4672 14.5837L28.4362 15.6147C28.2987 15.7475 28.1145 15.821 27.9233 15.8194C27.7321 15.8177 27.5492 15.741 27.414 15.6058C27.2788 15.4706 27.2022 15.2877 27.2005 15.0966C27.1988 14.9054 27.2723 14.7212 27.4052 14.5837L26.8007 13.9799C26.4115 14.2372 25.9766 14.4174 25.5195 14.5107V15.3128C25.7129 15.3128 25.8984 15.3896 26.0351 15.5264C26.1719 15.6631 26.2487 15.8486 26.2487 16.042C26.2487 16.2354 26.1719 16.4208 26.0351 16.5576C25.8984 16.6943 25.7129 16.7712 25.5195 16.7712H24.0612C23.8678 16.7712 23.6823 16.6943 23.5456 16.5576C23.4089 16.4208 23.332 16.2354 23.332 16.042C23.332 15.8486 23.4089 15.6631 23.5456 15.5264C23.6823 15.3896 23.8678 15.3128 24.0612 15.3128V14.5107C23.6041 14.4174 23.1692 14.2372 22.7801 13.9799L22.1756 14.5837C22.3084 14.7212 22.3819 14.9054 22.3802 15.0966C22.3786 15.2877 22.3019 15.4706 22.1667 15.6058C22.0315 15.741 21.8486 15.8177 21.6574 15.8194C21.4662 15.821 21.2821 15.7475 21.1445 15.6147L20.1135 14.5837C19.9807 14.4461 19.9072 14.2619 19.9088 14.0708C19.9105 13.8796 19.9872 13.6967 20.1224 13.5615C20.2576 13.4263 20.4404 13.3496 20.6316 13.348C20.8228 13.3463 21.007 13.4198 21.1445 13.5526L21.7483 12.9481C21.491 12.559 21.3108 12.1241 21.2174 11.667H20.4154C20.4154 11.8604 20.3385 12.0458 20.2018 12.1826C20.0651 12.3193 19.8796 12.3962 19.6862 12.3962C19.4928 12.3962 19.3073 12.3193 19.1706 12.1826C19.0339 12.0458 18.957 11.8604 18.957 11.667V10.2087C18.957 10.0153 19.0339 9.82981 19.1706 9.69306C19.3073 9.55631 19.4928 9.47949 19.6862 9.47949C19.8796 9.47949 20.0651 9.55631 20.2018 9.69306C20.3385 9.82981 20.4154 10.0153 20.4154 10.2087H21.2174C21.3122 9.74345 21.4945 9.3096 21.7483 8.92751L21.1445 8.32303C21.007 8.45586 20.8228 8.52935 20.6316 8.52769C20.4404 8.52603 20.2576 8.44934 20.1224 8.31415C19.9872 8.17896 19.9105 7.99607 19.9088 7.80489C19.9072 7.6137 19.9807 7.42951 20.1135 7.29199L20.6224 6.78303L20.629 6.77574L20.6363 6.76991L21.1445 6.26095C21.2821 6.12813 21.4662 6.05463 21.6574 6.05629C21.8486 6.05795 22.0315 6.13464 22.1667 6.26983C22.3019 6.40503 22.3786 6.58791 22.3802 6.7791C22.3819 6.97028 22.3084 7.15447 22.1756 7.29199L22.7801 7.89574ZM22.6029 10.9378C22.6029 10.3577 22.8333 9.80127 23.2436 9.39103C23.6538 8.98079 24.2102 8.75033 24.7904 8.75033C25.3705 8.75033 25.9269 8.98079 26.3372 9.39103C26.7474 9.80127 26.9779 10.3577 26.9779 10.9378C26.9779 11.518 26.7474 12.0744 26.3372 12.4846C25.9269 12.8949 25.3705 13.1253 24.7904 13.1253C24.2102 13.1253 23.6538 12.8949 23.2436 12.4846C22.8333 12.0744 22.6029 11.518 22.6029 10.9378Z" fill="#117A7A"/>
</svg>
