<svg width="20" height="20" viewBox="0 0 20 20" fill="none" xmlns="http://www.w3.org/2000/svg">
<g clip-path="url(#clip0_108_22086)">
<path d="M1.51179 2.28948C1.8176 2.2805 2.16281 2.28829 2.47114 2.28829C2.91856 2.28613 3.36599 2.28733 3.81339 2.29188C3.80616 2.53852 3.81878 2.79106 3.81256 3.03845C3.80964 3.15462 3.80916 3.28324 3.81521 3.39906L2.28849 3.39905C2.08417 3.39911 1.71728 3.4116 1.52891 3.39703L1.52859 11.253L1.5286 13.4581L1.52789 14.1125C1.52738 14.52 1.51076 14.7801 1.81748 15.0998C2.14318 15.4393 2.47986 15.4488 2.92062 15.4375C3.15898 15.4313 3.41807 15.439 3.65801 15.4372C3.87936 15.4395 4.07938 15.4994 4.25256 15.6391C4.56908 15.8945 4.58877 16.1887 4.58826 16.564L4.58684 17.1478C4.58671 17.2629 4.58515 17.3787 4.59039 17.4945C4.60147 17.928 4.97313 18.391 5.41015 18.4543C5.65996 18.4905 6.0027 18.473 6.26528 18.4729H7.81279L11.6928 18.4731C12.3905 18.4731 13.1114 18.4643 13.8074 18.4759C13.7984 18.3773 13.8064 18.1465 13.8065 18.0362L13.8087 17.1258C14.2006 17.0942 14.4408 17.062 14.8217 16.9549C14.8503 16.9482 14.8884 16.9339 14.917 16.9242C14.91 17.0473 14.916 17.2045 14.9161 17.3313L14.9163 18.137C14.9164 18.3118 14.9231 18.5709 14.8841 18.7358C14.8449 18.8979 14.769 19.0488 14.6624 19.1769C14.2519 19.6722 13.7298 19.5804 13.1528 19.5799L11.8058 19.5798L7.49603 19.58L3.42121 19.5798L2.1529 19.5799C1.92941 19.5802 1.62577 19.5906 1.41069 19.5709C1.18602 19.5496 0.973531 19.459 0.802703 19.3115C0.588817 19.1297 0.455255 18.8708 0.43099 18.5911C0.411108 18.3349 0.424034 17.9072 0.424257 17.6396L0.424348 15.9397L0.42429 10.5081L0.424199 5.62172L0.423892 4.09829C0.423819 3.82398 0.416668 3.52624 0.433691 3.25469C0.446113 3.05655 0.561065 2.81383 0.692281 2.66625C0.92691 2.40233 1.172 2.31689 1.51179 2.28948ZM4.12245 17.9516C4.04137 17.6652 4.03958 17.5231 4.03974 17.2302L4.04059 16.6689C4.04115 16.4072 4.08611 16.0117 3.71171 15.9926C3.31509 15.9722 2.91363 15.9973 2.51587 15.9823C2.32711 15.9753 2.23447 15.9323 2.06572 15.8996C2.08214 15.9449 2.19261 16.0417 2.23062 16.0794L2.53078 16.3794L3.56437 17.4131C3.62492 17.4736 4.0759 17.9325 4.10617 17.9454C4.11153 17.9476 4.11696 17.9498 4.12245 17.9516Z" fill="#B7B7B7"/>
<path d="M13.4436 9.61353C14.3552 9.55949 15.2516 9.86551 15.94 10.4657C17.0147 11.4013 17.4112 12.8971 16.9411 14.2424C16.9028 14.3511 16.8494 14.4864 16.8004 14.5899C16.699 14.8042 16.5426 14.9824 16.5671 15.2351C16.5863 15.4349 16.6913 15.5671 16.8372 15.693C17.0865 15.5612 17.2093 15.6005 17.3987 15.7894C17.8297 16.2193 18.2597 16.6502 18.6902 17.0805L19.1095 17.4996C19.3485 17.7386 19.5713 17.9012 19.5741 18.2687C19.5773 18.4675 19.5004 18.6593 19.361 18.8009C19.2205 18.9425 19.0295 19.0223 18.8301 19.0226C18.6985 19.0223 18.5694 18.9866 18.4565 18.9192C18.3112 18.8323 18.1131 18.6165 17.9865 18.4893L17.431 17.9331C17.2402 17.7417 16.2386 16.7812 16.1913 16.6485C16.1436 16.5146 16.1914 16.3961 16.2486 16.2757C15.8985 15.8688 15.6078 16.0052 15.2175 16.2068C15.0841 16.275 14.9467 16.3348 14.806 16.386C13.6264 16.8161 12.3047 16.5376 11.361 15.7262C10.664 15.1215 10.2359 14.2644 10.171 13.3438C10.1048 12.4178 10.41 11.5034 11.0192 10.8027C11.6485 10.0762 12.4923 9.68223 13.4436 9.61353ZM13.774 15.5618C15.1359 15.4927 16.1841 14.3331 16.1159 12.9712C16.0478 11.6093 14.889 10.5602 13.5271 10.6274C12.1637 10.6947 11.1133 11.8549 11.1816 13.2181C11.2498 14.5814 12.4109 15.631 13.774 15.5618Z" fill="#B7B7B7"/>
<path d="M6.20971 5.02449C6.6259 5.04051 7.07672 5.02003 7.50131 5.03054L7.50301 7.89574C7.50325 8.40403 7.51027 8.93341 7.49909 9.43985C7.15004 9.45661 6.70842 9.44435 6.35271 9.44434L4.18503 9.44444L3.4485 9.44507C3.34353 9.44499 3.19382 9.43724 3.09458 9.44628C3.1026 9.06426 3.0933 8.67392 3.09684 8.29119C3.10685 7.20685 3.08404 6.11174 3.09901 5.02805C3.51416 5.02776 3.98535 5.0141 4.39455 5.03272L4.39375 5.89058C4.3937 6.03976 4.38787 6.19374 4.40174 6.34159C4.42159 6.5228 4.55372 6.58255 4.71824 6.58343C5.02675 6.58615 5.33588 6.58422 5.64399 6.58421C5.96788 6.58421 6.21745 6.62771 6.20848 6.19744C6.20655 6.10466 6.20874 5.98232 6.20869 5.88644L6.20971 5.02449Z" fill="#B7B7B7"/>
<path d="M7.62006 0.424046C8.24259 0.413287 8.77124 0.801254 8.91904 1.41277C8.95766 1.57249 8.95492 1.71702 8.95302 1.87931C9.25853 1.84132 9.57348 1.77201 9.87822 1.72269C10.0152 1.70052 10.2127 1.65547 10.3462 1.65517C10.5116 1.65353 10.6708 1.71842 10.7879 1.83527C10.8683 1.91439 10.9253 2.0141 10.9527 2.12351C10.9906 2.27275 10.9779 2.59636 10.9778 2.76596L10.9773 3.67485C10.5979 3.6833 10.1963 3.67729 9.81523 3.67733L7.70986 3.67735C6.59952 3.67742 5.46365 3.68949 4.35547 3.67456C4.36274 3.56808 4.35831 3.41726 4.35816 3.30754L4.35701 2.62638C4.35663 2.30125 4.32744 1.97677 4.62903 1.76453C4.72131 1.6997 4.82995 1.66213 4.94256 1.6561C5.08509 1.6474 5.41228 1.71452 5.57177 1.74263L6.38379 1.88466C6.30306 1.10573 6.84164 0.479022 7.62006 0.424046ZM7.76747 2.04627C7.97773 1.99135 8.10405 1.77682 8.05008 1.56632C7.9961 1.35581 7.78214 1.22854 7.5714 1.28156C7.35932 1.33493 7.23104 1.55056 7.28537 1.76239C7.33969 1.97423 7.55588 2.10153 7.76747 2.04627Z" fill="#B7B7B7"/>
<path d="M11.5296 2.28467C11.6973 2.29719 11.9631 2.2885 12.1414 2.28854L13.3001 2.28836C13.5349 2.28817 13.8658 2.27411 14.0829 2.3266C14.2789 2.37381 14.4576 2.47517 14.5987 2.61912C14.7549 2.77559 14.8587 2.97663 14.8958 3.19455C14.9268 3.37703 14.9166 3.72129 14.9163 3.92071L14.9157 5.07762L14.9144 9.26157C14.4882 9.1302 14.2456 9.10464 13.8057 9.06538C13.8135 8.916 13.8073 8.70615 13.8074 8.55336V7.58102L13.8075 4.84787C13.8074 4.37543 13.7974 3.87089 13.8093 3.40175C13.3777 3.39854 12.9462 3.39765 12.5147 3.39906C12.1881 3.39905 11.8498 3.39467 11.5239 3.401C11.5277 3.15347 11.5215 2.90195 11.5241 2.65414C11.5254 2.53489 11.5199 2.4021 11.5296 2.28467Z" fill="#B7B7B7"/>
<path d="M3.05485 11.4665C3.2689 11.4512 3.60388 11.4612 3.82512 11.4614L5.214 11.4616L9.95581 11.4628C9.88667 11.6413 9.82954 11.8274 9.75632 12.0032C9.74809 12.0086 9.73985 12.0141 9.7316 12.0197L5.31848 12.0196L3.91391 12.0199C3.73542 12.0201 3.09014 12.0433 2.96784 11.9788C2.90118 11.9435 2.85219 11.8821 2.83258 11.8092C2.78762 11.6406 2.89475 11.5078 3.05485 11.4665Z" fill="#B7B7B7"/>
<path d="M3.07399 13.0695C3.32877 13.057 3.63894 13.0651 3.89688 13.0652L5.34091 13.0655L9.61223 13.0667C9.62389 13.2553 9.63238 13.4291 9.64794 13.6189C9.57054 13.6233 9.48789 13.6226 9.40999 13.6234L5.18522 13.6236H3.82718C3.62278 13.6238 3.10238 13.6572 2.94906 13.5761C2.76221 13.4773 2.77049 13.1354 3.07399 13.0695Z" fill="#B7B7B7"/>
<path d="M6.36434 16.2841C6.55066 16.2644 6.919 16.2767 7.1204 16.2768L8.56905 16.2769L10.3152 16.2763C10.5714 16.2762 10.9146 16.2634 11.1713 16.2944C11.2233 16.3008 11.3708 16.4235 11.4274 16.4609C11.6523 16.6094 11.8857 16.7266 12.1312 16.8374C12.0227 16.8325 11.9618 16.8234 11.8471 16.827C11.4635 16.823 11.0648 16.8295 10.6796 16.8296H7.93803L6.99712 16.8299C6.82013 16.8304 6.64191 16.8323 6.46514 16.8303C6.41505 16.8248 6.34055 16.8317 6.29612 16.8082C6.12733 16.719 6.07987 16.5555 6.18343 16.3934C6.22806 16.3236 6.28537 16.3004 6.36434 16.2841Z" fill="#B7B7B7"/>
<path d="M6.42719 14.6725C6.67291 14.6643 6.95854 14.6711 7.20658 14.6712L8.71833 14.6717L9.47738 14.6707C9.5993 14.6705 9.83224 14.6632 9.94064 14.6865C10.0351 14.8588 10.1188 15.0394 10.221 15.2228L9.91788 15.2264L7.52074 15.2269L6.81632 15.2279C6.67478 15.2285 6.5222 15.2351 6.38415 15.2222C6.15578 15.2009 6.05471 14.9478 6.19547 14.77C6.25775 14.6914 6.33746 14.682 6.42719 14.6725Z" fill="#B7B7B7"/>
<path d="M8.78942 5.04273C9.03081 5.03601 9.29376 5.04061 9.53685 5.04051L10.8904 5.04019L11.7436 5.04025C11.91 5.0403 12.0762 5.03768 12.2423 5.04632C12.5908 5.06443 12.6114 5.54597 12.2463 5.58737C12.022 5.59692 11.7697 5.59159 11.5437 5.59165L10.3206 5.59171L9.37764 5.59201C9.21817 5.59229 8.75262 5.61496 8.64077 5.54307C8.57854 5.50347 8.5362 5.43915 8.52444 5.36634C8.49327 5.17547 8.61403 5.06884 8.78942 5.04273Z" fill="#B7B7B7"/>
<path d="M8.75948 8.25591C8.89614 8.24586 9.10507 8.25167 9.24618 8.25164L10.1226 8.25148L11.4447 8.25154C11.69 8.25158 11.9358 8.25008 12.1811 8.25372C12.2768 8.25513 12.3226 8.25374 12.4027 8.31101C12.459 8.35051 12.4963 8.41165 12.5059 8.47978C12.5307 8.6536 12.4252 8.7704 12.2578 8.79785C12.0984 8.81024 11.8476 8.80296 11.6823 8.80295L10.6531 8.80284L9.4906 8.80281C9.27088 8.80312 9.05735 8.80377 8.83179 8.80031C8.57986 8.79645 8.43843 8.60406 8.56913 8.36993C8.60708 8.30193 8.68393 8.26954 8.75948 8.25591Z" fill="#B7B7B7"/>
<path d="M8.85359 6.64506C9.55761 6.63438 10.2946 6.64444 11.0007 6.6442L11.7782 6.64406C11.9252 6.64406 12.0689 6.64138 12.2172 6.64966C12.3671 6.65294 12.5056 6.73372 12.5091 6.90083C12.5136 7.12286 12.3685 7.18563 12.1843 7.19455L9.945 7.19503L9.19974 7.19545C9.05864 7.1955 8.91295 7.19985 8.77241 7.18991C8.53763 7.17328 8.43661 6.9002 8.59874 6.72958C8.67395 6.65044 8.75162 6.65106 8.85359 6.64506Z" fill="#B7B7B7"/>
<path d="M8.79337 9.85775C9.00315 9.84994 9.24501 9.85531 9.45685 9.85541L10.6341 9.85599C10.8289 9.85648 11.0474 9.86429 11.24 9.85541C11.088 9.96546 10.935 10.1105 10.8002 10.2402C10.7474 10.2963 10.6942 10.3567 10.6337 10.4036C10.522 10.4136 10.3815 10.4095 10.2676 10.4094L9.71077 10.4095L9.13793 10.4101C9.01241 10.4102 8.70679 10.4275 8.62243 10.3487C8.42282 10.1622 8.52386 9.88783 8.79337 9.85775Z" fill="#B7B7B7"/>
<path d="M4.94115 5.03076C5.1162 5.02316 5.33885 5.02118 5.51301 5.02851C5.54077 5.04724 5.54994 5.05055 5.58213 5.06078C5.61179 5.11699 5.61132 5.88827 5.58848 5.96697C5.5841 5.98169 5.57923 5.99626 5.57387 6.01066C5.45377 6.01009 5.00663 5.99242 4.9375 6.03472C4.94524 5.93774 4.94095 5.79038 4.94102 5.68833L4.94115 5.03076Z" fill="#B7B7B7"/>
<path d="M5.51301 5.02849L5.6623 5.02832C5.66413 5.33239 5.67532 5.74508 5.65946 6.04291C5.57587 6.04603 4.97465 6.05987 4.9375 6.0347C5.00663 5.9924 5.45377 6.01007 5.57387 6.01063C5.57923 5.99624 5.5841 5.98167 5.58848 5.96694C5.61132 5.88825 5.61179 5.11697 5.58213 5.06076C5.54994 5.05053 5.54077 5.04722 5.51301 5.02849Z" fill="#B7B7B7"/>
</g>
<defs>
<clipPath id="clip0_108_22086">
<rect width="20" height="20" fill="white"/>
</clipPath>
</defs>
</svg>
