<svg width="20" height="20" viewBox="0 0 20 20" fill="none" xmlns="http://www.w3.org/2000/svg">
<mask id="path-1-outside-1_108_22037" maskUnits="userSpaceOnUse" x="0.785156" y="0.599121" width="18" height="18" fill="black">
<rect fill="white" x="0.785156" y="0.599121" width="18" height="18"/>
<path d="M3.39239 1.60498C3.45269 1.60229 3.51306 1.60102 3.57343 1.60118L9.02777 1.60128L10.9608 1.60094C11.0528 1.60091 12.0926 1.59152 12.1211 1.61571C12.3154 1.78059 12.614 2.09372 12.8028 2.28248L14.5651 4.04137C14.5834 4.05962 14.6887 4.17001 14.6891 4.18654C14.7023 4.69904 14.6949 5.25569 14.6948 5.76569L14.6954 11.0986C15.3048 11.4677 15.7404 11.9556 15.964 12.645C16.1504 13.2206 16.1415 13.8416 15.9387 14.4118C15.8769 14.5827 15.8062 14.7181 15.7241 14.8792C15.8615 15.024 16.065 15.2264 16.2117 15.359C16.4437 15.3072 16.549 15.3081 16.7246 15.4815C17.0881 15.8403 17.4481 16.2026 17.8096 16.5633C17.9104 16.6639 18.0042 16.7508 18.078 16.8741C18.3032 17.2505 18.2498 17.7403 17.9422 18.0551C17.76 18.2444 17.5092 18.3521 17.2465 18.3539C17.0727 18.3547 16.902 18.3079 16.753 18.2183C16.5975 18.1244 16.3509 17.86 16.2097 17.7182L15.639 17.1476C15.5189 17.0231 15.3559 16.8854 15.2566 16.7474C15.1676 16.6238 15.1966 16.4784 15.2283 16.3411C15.1551 16.2644 14.8092 15.9056 14.7392 15.8702L14.7205 15.8808C14.6601 16.0085 14.7175 16.6168 14.6906 16.802C14.6775 16.9587 14.6067 17.0927 14.4851 17.1956C14.2973 17.3545 13.866 17.3517 13.6281 17.3229C13.6046 17.6389 13.6911 17.9983 13.4572 18.2284C13.2908 18.3918 13.1459 18.401 12.9258 18.4018L5.65124 18.4016H3.38556L2.7187 18.4023C2.44733 18.403 2.14602 18.442 1.94496 18.2266C1.84422 18.1187 1.80028 18.0266 1.79228 17.8768C1.78184 17.681 1.78587 17.4859 1.78615 17.2901L1.7869 16.2871L1.78691 13.0539L1.78566 3.36258C1.78992 2.60114 2.2859 2.66864 2.85791 2.67663C2.85277 2.21365 2.78056 1.67713 3.39239 1.60498ZM3.24699 16.9252C3.47117 16.9458 3.79901 16.9357 4.03357 16.9354L5.34855 16.9352H9.59078L12.8364 16.9351L13.4986 16.9332C13.678 16.9343 14.0835 16.9489 14.2332 16.9107C14.2945 16.8544 14.309 16.7834 14.3121 16.7018C14.3201 16.4927 14.3043 16.2699 14.3146 16.0623C14.1636 16.111 14.0293 16.1548 13.8726 16.1851C13.2768 16.299 12.6601 16.2103 12.1204 15.9331C12.0728 15.9091 12.0258 15.8835 11.9797 15.8565C11.3475 15.4871 10.889 14.8806 10.7062 14.1716C10.5261 13.4592 10.6377 12.7043 11.0162 12.0744C11.3912 11.4496 12.0016 11.0016 12.7101 10.8311C13.2165 10.7081 13.8292 10.73 14.3144 10.9258C14.3037 10.6611 14.3117 10.3397 14.3118 10.0713L14.3121 8.49232L14.3131 4.45316L12.8346 4.45136C12.602 4.45135 12.355 4.46434 12.1269 4.43874C11.9883 4.42318 11.8559 4.26174 11.8555 4.12642C11.8534 3.41941 11.8417 2.69178 11.8514 1.98624L5.96815 1.98552L4.40228 1.98532C4.13174 1.98525 3.82943 1.9789 3.56171 1.98693C3.32609 1.98944 3.24361 1.97979 3.24275 2.25334C3.24174 2.56975 3.2437 2.88676 3.24367 3.20317L3.24348 5.20054L3.24356 11.184L3.24361 15.0252L3.24345 16.2485C3.24336 16.4482 3.23519 16.7316 3.24699 16.9252ZM2.19886 17.9484C2.26153 17.9935 2.29775 18.0129 2.37755 18.0138C2.64677 18.0166 2.91726 18.0154 3.1865 18.0154L4.72725 18.0152L9.33933 18.0149H11.8888L12.6512 18.0155C12.783 18.0155 12.9925 18.0211 13.1174 18.0063C13.2644 17.9205 13.2429 17.7957 13.2426 17.6417C13.2424 17.5418 13.245 17.4285 13.2379 17.3299C12.5577 17.3368 11.8594 17.3274 11.177 17.3274H6.61205L4.36675 17.3275L3.67799 17.3281C3.54223 17.3282 3.37819 17.3388 3.24619 17.3206C2.78974 17.2578 2.85824 16.8287 2.85861 16.51L2.85933 15.7577L2.85944 13.3179V6.47576L2.85937 4.21884C2.85935 3.85478 2.87099 3.42347 2.85755 3.06611C2.67202 3.06758 2.48507 3.06335 2.30008 3.06833C2.25667 3.08778 2.18608 3.12908 2.18246 3.17505C2.15545 3.51797 2.16852 4.0199 2.16874 4.35164L2.16889 7.0743L2.16893 14.2022L2.1685 16.544C2.16842 16.7793 2.1402 17.775 2.19886 17.9484ZM15.4873 15.2107C15.3844 15.352 15.1916 15.5238 15.0607 15.6433C15.1571 15.7196 15.4423 16.0385 15.5085 16.0592C15.6188 15.9409 15.8096 15.7431 15.9301 15.6367C15.8747 15.5734 15.5426 15.2189 15.4873 15.2107ZM12.2367 2.27105C12.2293 2.85525 12.2505 3.4874 12.231 4.06402C12.8214 4.07191 13.4499 4.05142 14.0332 4.06894C14.0254 4.03617 13.7246 3.74725 13.6738 3.69628L12.6536 2.67532C12.5951 2.61678 12.287 2.29642 12.2367 2.27105ZM13.5114 15.8403C14.8072 15.7561 15.7897 14.638 15.7067 13.3421C15.6236 12.0463 14.5064 11.0628 13.2105 11.1448C11.9129 11.2268 10.928 12.3456 11.0111 13.6431C11.0943 14.9406 12.214 15.9246 13.5114 15.8403ZM16.3894 15.707C16.3416 15.7707 16.2428 15.8605 16.1814 15.9204C16.0564 16.0424 15.9322 16.1653 15.8087 16.289C15.7448 16.353 15.6205 16.4744 15.5674 16.5444C16.0086 16.9503 16.4138 17.4163 16.8571 17.8219C16.9117 17.8719 16.9984 17.9222 17.0685 17.9424C17.2386 17.9871 17.3813 17.9791 17.5361 17.888C17.6728 17.8092 17.7719 17.6786 17.8111 17.5257C17.8653 17.3094 17.8036 17.1014 17.6474 16.9439C17.4066 16.7008 17.1641 16.4591 16.9215 16.2178C16.8382 16.1352 16.4573 15.7441 16.3894 15.707Z"/>
</mask>
<path d="M3.39239 1.60498C3.45269 1.60229 3.51306 1.60102 3.57343 1.60118L9.02777 1.60128L10.9608 1.60094C11.0528 1.60091 12.0926 1.59152 12.1211 1.61571C12.3154 1.78059 12.614 2.09372 12.8028 2.28248L14.5651 4.04137C14.5834 4.05962 14.6887 4.17001 14.6891 4.18654C14.7023 4.69904 14.6949 5.25569 14.6948 5.76569L14.6954 11.0986C15.3048 11.4677 15.7404 11.9556 15.964 12.645C16.1504 13.2206 16.1415 13.8416 15.9387 14.4118C15.8769 14.5827 15.8062 14.7181 15.7241 14.8792C15.8615 15.024 16.065 15.2264 16.2117 15.359C16.4437 15.3072 16.549 15.3081 16.7246 15.4815C17.0881 15.8403 17.4481 16.2026 17.8096 16.5633C17.9104 16.6639 18.0042 16.7508 18.078 16.8741C18.3032 17.2505 18.2498 17.7403 17.9422 18.0551C17.76 18.2444 17.5092 18.3521 17.2465 18.3539C17.0727 18.3547 16.902 18.3079 16.753 18.2183C16.5975 18.1244 16.3509 17.86 16.2097 17.7182L15.639 17.1476C15.5189 17.0231 15.3559 16.8854 15.2566 16.7474C15.1676 16.6238 15.1966 16.4784 15.2283 16.3411C15.1551 16.2644 14.8092 15.9056 14.7392 15.8702L14.7205 15.8808C14.6601 16.0085 14.7175 16.6168 14.6906 16.802C14.6775 16.9587 14.6067 17.0927 14.4851 17.1956C14.2973 17.3545 13.866 17.3517 13.6281 17.3229C13.6046 17.6389 13.6911 17.9983 13.4572 18.2284C13.2908 18.3918 13.1459 18.401 12.9258 18.4018L5.65124 18.4016H3.38556L2.7187 18.4023C2.44733 18.403 2.14602 18.442 1.94496 18.2266C1.84422 18.1187 1.80028 18.0266 1.79228 17.8768C1.78184 17.681 1.78587 17.4859 1.78615 17.2901L1.7869 16.2871L1.78691 13.0539L1.78566 3.36258C1.78992 2.60114 2.2859 2.66864 2.85791 2.67663C2.85277 2.21365 2.78056 1.67713 3.39239 1.60498ZM3.24699 16.9252C3.47117 16.9458 3.79901 16.9357 4.03357 16.9354L5.34855 16.9352H9.59078L12.8364 16.9351L13.4986 16.9332C13.678 16.9343 14.0835 16.9489 14.2332 16.9107C14.2945 16.8544 14.309 16.7834 14.3121 16.7018C14.3201 16.4927 14.3043 16.2699 14.3146 16.0623C14.1636 16.111 14.0293 16.1548 13.8726 16.1851C13.2768 16.299 12.6601 16.2103 12.1204 15.9331C12.0728 15.9091 12.0258 15.8835 11.9797 15.8565C11.3475 15.4871 10.889 14.8806 10.7062 14.1716C10.5261 13.4592 10.6377 12.7043 11.0162 12.0744C11.3912 11.4496 12.0016 11.0016 12.7101 10.8311C13.2165 10.7081 13.8292 10.73 14.3144 10.9258C14.3037 10.6611 14.3117 10.3397 14.3118 10.0713L14.3121 8.49232L14.3131 4.45316L12.8346 4.45136C12.602 4.45135 12.355 4.46434 12.1269 4.43874C11.9883 4.42318 11.8559 4.26174 11.8555 4.12642C11.8534 3.41941 11.8417 2.69178 11.8514 1.98624L5.96815 1.98552L4.40228 1.98532C4.13174 1.98525 3.82943 1.9789 3.56171 1.98693C3.32609 1.98944 3.24361 1.97979 3.24275 2.25334C3.24174 2.56975 3.2437 2.88676 3.24367 3.20317L3.24348 5.20054L3.24356 11.184L3.24361 15.0252L3.24345 16.2485C3.24336 16.4482 3.23519 16.7316 3.24699 16.9252ZM2.19886 17.9484C2.26153 17.9935 2.29775 18.0129 2.37755 18.0138C2.64677 18.0166 2.91726 18.0154 3.1865 18.0154L4.72725 18.0152L9.33933 18.0149H11.8888L12.6512 18.0155C12.783 18.0155 12.9925 18.0211 13.1174 18.0063C13.2644 17.9205 13.2429 17.7957 13.2426 17.6417C13.2424 17.5418 13.245 17.4285 13.2379 17.3299C12.5577 17.3368 11.8594 17.3274 11.177 17.3274H6.61205L4.36675 17.3275L3.67799 17.3281C3.54223 17.3282 3.37819 17.3388 3.24619 17.3206C2.78974 17.2578 2.85824 16.8287 2.85861 16.51L2.85933 15.7577L2.85944 13.3179V6.47576L2.85937 4.21884C2.85935 3.85478 2.87099 3.42347 2.85755 3.06611C2.67202 3.06758 2.48507 3.06335 2.30008 3.06833C2.25667 3.08778 2.18608 3.12908 2.18246 3.17505C2.15545 3.51797 2.16852 4.0199 2.16874 4.35164L2.16889 7.0743L2.16893 14.2022L2.1685 16.544C2.16842 16.7793 2.1402 17.775 2.19886 17.9484ZM15.4873 15.2107C15.3844 15.352 15.1916 15.5238 15.0607 15.6433C15.1571 15.7196 15.4423 16.0385 15.5085 16.0592C15.6188 15.9409 15.8096 15.7431 15.9301 15.6367C15.8747 15.5734 15.5426 15.2189 15.4873 15.2107ZM12.2367 2.27105C12.2293 2.85525 12.2505 3.4874 12.231 4.06402C12.8214 4.07191 13.4499 4.05142 14.0332 4.06894C14.0254 4.03617 13.7246 3.74725 13.6738 3.69628L12.6536 2.67532C12.5951 2.61678 12.287 2.29642 12.2367 2.27105ZM13.5114 15.8403C14.8072 15.7561 15.7897 14.638 15.7067 13.3421C15.6236 12.0463 14.5064 11.0628 13.2105 11.1448C11.9129 11.2268 10.928 12.3456 11.0111 13.6431C11.0943 14.9406 12.214 15.9246 13.5114 15.8403ZM16.3894 15.707C16.3416 15.7707 16.2428 15.8605 16.1814 15.9204C16.0564 16.0424 15.9322 16.1653 15.8087 16.289C15.7448 16.353 15.6205 16.4744 15.5674 16.5444C16.0086 16.9503 16.4138 17.4163 16.8571 17.8219C16.9117 17.8719 16.9984 17.9222 17.0685 17.9424C17.2386 17.9871 17.3813 17.9791 17.5361 17.888C17.6728 17.8092 17.7719 17.6786 17.8111 17.5257C17.8653 17.3094 17.8036 17.1014 17.6474 16.9439C17.4066 16.7008 17.1641 16.4591 16.9215 16.2178C16.8382 16.1352 16.4573 15.7441 16.3894 15.707Z" fill="black"/>
<path d="M3.39239 1.60498C3.45269 1.60229 3.51306 1.60102 3.57343 1.60118L9.02777 1.60128L10.9608 1.60094C11.0528 1.60091 12.0926 1.59152 12.1211 1.61571C12.3154 1.78059 12.614 2.09372 12.8028 2.28248L14.5651 4.04137C14.5834 4.05962 14.6887 4.17001 14.6891 4.18654C14.7023 4.69904 14.6949 5.25569 14.6948 5.76569L14.6954 11.0986C15.3048 11.4677 15.7404 11.9556 15.964 12.645C16.1504 13.2206 16.1415 13.8416 15.9387 14.4118C15.8769 14.5827 15.8062 14.7181 15.7241 14.8792C15.8615 15.024 16.065 15.2264 16.2117 15.359C16.4437 15.3072 16.549 15.3081 16.7246 15.4815C17.0881 15.8403 17.4481 16.2026 17.8096 16.5633C17.9104 16.6639 18.0042 16.7508 18.078 16.8741C18.3032 17.2505 18.2498 17.7403 17.9422 18.0551C17.76 18.2444 17.5092 18.3521 17.2465 18.3539C17.0727 18.3547 16.902 18.3079 16.753 18.2183C16.5975 18.1244 16.3509 17.86 16.2097 17.7182L15.639 17.1476C15.5189 17.0231 15.3559 16.8854 15.2566 16.7474C15.1676 16.6238 15.1966 16.4784 15.2283 16.3411C15.1551 16.2644 14.8092 15.9056 14.7392 15.8702L14.7205 15.8808C14.6601 16.0085 14.7175 16.6168 14.6906 16.802C14.6775 16.9587 14.6067 17.0927 14.4851 17.1956C14.2973 17.3545 13.866 17.3517 13.6281 17.3229C13.6046 17.6389 13.6911 17.9983 13.4572 18.2284C13.2908 18.3918 13.1459 18.401 12.9258 18.4018L5.65124 18.4016H3.38556L2.7187 18.4023C2.44733 18.403 2.14602 18.442 1.94496 18.2266C1.84422 18.1187 1.80028 18.0266 1.79228 17.8768C1.78184 17.681 1.78587 17.4859 1.78615 17.2901L1.7869 16.2871L1.78691 13.0539L1.78566 3.36258C1.78992 2.60114 2.2859 2.66864 2.85791 2.67663C2.85277 2.21365 2.78056 1.67713 3.39239 1.60498ZM3.24699 16.9252C3.47117 16.9458 3.79901 16.9357 4.03357 16.9354L5.34855 16.9352H9.59078L12.8364 16.9351L13.4986 16.9332C13.678 16.9343 14.0835 16.9489 14.2332 16.9107C14.2945 16.8544 14.309 16.7834 14.3121 16.7018C14.3201 16.4927 14.3043 16.2699 14.3146 16.0623C14.1636 16.111 14.0293 16.1548 13.8726 16.1851C13.2768 16.299 12.6601 16.2103 12.1204 15.9331C12.0728 15.9091 12.0258 15.8835 11.9797 15.8565C11.3475 15.4871 10.889 14.8806 10.7062 14.1716C10.5261 13.4592 10.6377 12.7043 11.0162 12.0744C11.3912 11.4496 12.0016 11.0016 12.7101 10.8311C13.2165 10.7081 13.8292 10.73 14.3144 10.9258C14.3037 10.6611 14.3117 10.3397 14.3118 10.0713L14.3121 8.49232L14.3131 4.45316L12.8346 4.45136C12.602 4.45135 12.355 4.46434 12.1269 4.43874C11.9883 4.42318 11.8559 4.26174 11.8555 4.12642C11.8534 3.41941 11.8417 2.69178 11.8514 1.98624L5.96815 1.98552L4.40228 1.98532C4.13174 1.98525 3.82943 1.9789 3.56171 1.98693C3.32609 1.98944 3.24361 1.97979 3.24275 2.25334C3.24174 2.56975 3.2437 2.88676 3.24367 3.20317L3.24348 5.20054L3.24356 11.184L3.24361 15.0252L3.24345 16.2485C3.24336 16.4482 3.23519 16.7316 3.24699 16.9252ZM2.19886 17.9484C2.26153 17.9935 2.29775 18.0129 2.37755 18.0138C2.64677 18.0166 2.91726 18.0154 3.1865 18.0154L4.72725 18.0152L9.33933 18.0149H11.8888L12.6512 18.0155C12.783 18.0155 12.9925 18.0211 13.1174 18.0063C13.2644 17.9205 13.2429 17.7957 13.2426 17.6417C13.2424 17.5418 13.245 17.4285 13.2379 17.3299C12.5577 17.3368 11.8594 17.3274 11.177 17.3274H6.61205L4.36675 17.3275L3.67799 17.3281C3.54223 17.3282 3.37819 17.3388 3.24619 17.3206C2.78974 17.2578 2.85824 16.8287 2.85861 16.51L2.85933 15.7577L2.85944 13.3179V6.47576L2.85937 4.21884C2.85935 3.85478 2.87099 3.42347 2.85755 3.06611C2.67202 3.06758 2.48507 3.06335 2.30008 3.06833C2.25667 3.08778 2.18608 3.12908 2.18246 3.17505C2.15545 3.51797 2.16852 4.0199 2.16874 4.35164L2.16889 7.0743L2.16893 14.2022L2.1685 16.544C2.16842 16.7793 2.1402 17.775 2.19886 17.9484ZM15.4873 15.2107C15.3844 15.352 15.1916 15.5238 15.0607 15.6433C15.1571 15.7196 15.4423 16.0385 15.5085 16.0592C15.6188 15.9409 15.8096 15.7431 15.9301 15.6367C15.8747 15.5734 15.5426 15.2189 15.4873 15.2107ZM12.2367 2.27105C12.2293 2.85525 12.2505 3.4874 12.231 4.06402C12.8214 4.07191 13.4499 4.05142 14.0332 4.06894C14.0254 4.03617 13.7246 3.74725 13.6738 3.69628L12.6536 2.67532C12.5951 2.61678 12.287 2.29642 12.2367 2.27105ZM13.5114 15.8403C14.8072 15.7561 15.7897 14.638 15.7067 13.3421C15.6236 12.0463 14.5064 11.0628 13.2105 11.1448C11.9129 11.2268 10.928 12.3456 11.0111 13.6431C11.0943 14.9406 12.214 15.9246 13.5114 15.8403ZM16.3894 15.707C16.3416 15.7707 16.2428 15.8605 16.1814 15.9204C16.0564 16.0424 15.9322 16.1653 15.8087 16.289C15.7448 16.353 15.6205 16.4744 15.5674 16.5444C16.0086 16.9503 16.4138 17.4163 16.8571 17.8219C16.9117 17.8719 16.9984 17.9222 17.0685 17.9424C17.2386 17.9871 17.3813 17.9791 17.5361 17.888C17.6728 17.8092 17.7719 17.6786 17.8111 17.5257C17.8653 17.3094 17.8036 17.1014 17.6474 16.9439C17.4066 16.7008 17.1641 16.4591 16.9215 16.2178C16.8382 16.1352 16.4573 15.7441 16.3894 15.707Z" stroke="black" stroke-width="0.26" mask="url(#path-1-outside-1_108_22037)"/>
<path d="M6.38281 5.19824C7.69147 5.12122 8.81538 6.11821 8.89453 7.42676C8.97355 8.73554 7.97761 9.86153 6.66895 9.94238C5.35784 10.0233 4.22976 9.02501 4.15039 7.71387C4.07122 6.40252 5.07136 5.27561 6.38281 5.19824ZM6.26562 5.72754C5.79531 5.78891 5.36607 6.02897 5.06836 6.39941C4.75584 6.78812 4.61259 7.2858 4.66992 7.78125C4.72759 8.27469 4.97952 8.72523 5.37012 9.03223C5.71823 9.30863 6.12139 9.4351 6.55469 9.42969L6.74219 9.41895C6.80688 9.40915 6.87047 9.39992 6.93066 9.38672C7.67414 9.22351 8.26846 8.5838 8.36914 7.8291L7.12891 7.83105H7.12793C6.92583 7.83125 6.7052 7.83965 6.49707 7.82422C6.4451 7.82036 6.39333 7.79595 6.35449 7.7627C6.31583 7.72957 6.28219 7.68079 6.27539 7.62305L6.27441 7.62207C6.25695 7.4621 6.26553 7.28882 6.26562 7.13672L6.2666 6.19238L6.26562 5.72754ZM6.78125 5.94141C6.77756 6.1783 6.77996 6.41673 6.78223 6.65625C6.78428 6.87336 6.78504 7.09165 6.78125 7.30859C6.89708 7.30654 7.01504 7.30672 7.12891 7.30859C7.34685 7.31219 7.56655 7.30942 7.78711 7.30762C7.98059 7.30604 8.17479 7.30622 8.36816 7.30957C8.22262 6.54205 7.77672 5.98087 6.98926 5.76562C6.94995 5.75491 6.90394 5.74713 6.85254 5.73828C6.83112 5.73459 6.80942 5.72733 6.78711 5.72266C6.78401 5.79234 6.78244 5.86492 6.78125 5.94141Z" fill="black" stroke="black" stroke-width="0.13"/>
<path d="M5.09473 15.6836H9.02246C9.45217 15.6837 9.88257 15.6835 10.3125 15.6846H10.3193C10.3284 15.6855 10.3437 15.686 10.3652 15.6865C10.3858 15.687 10.411 15.6875 10.4355 15.6885C10.4599 15.6895 10.4858 15.6911 10.5088 15.6943C10.5292 15.6972 10.5571 15.7029 10.5791 15.7158C10.6838 15.7773 10.7292 15.8778 10.7129 15.9766C10.6969 16.0729 10.6239 16.1561 10.5176 16.1914L10.5107 16.1943H10.5029C10.3099 16.2109 9.95308 16.2011 9.75977 16.2012H4.51953C4.49596 16.1988 4.46107 16.1982 4.41211 16.1953C4.39 16.194 4.36619 16.1928 4.34473 16.1895C4.3248 16.1863 4.3007 16.1805 4.28027 16.1699C4.17394 16.1148 4.13114 16.0132 4.14453 15.916C4.15758 15.8213 4.22293 15.7325 4.3252 15.6943L4.33398 15.6914L4.34277 15.6904C4.5462 15.6739 4.88944 15.6836 5.09473 15.6836Z" fill="black" stroke="black" stroke-width="0.13"/>
<path d="M9.61035 10.7983C9.88663 10.7982 10.1619 10.7961 10.4424 10.8022C10.5462 10.8046 10.6394 10.8508 10.6875 10.9302C10.7375 11.0131 10.7292 11.117 10.6592 11.2104C10.6278 11.2521 10.5913 11.2775 10.5498 11.2925C10.5111 11.3064 10.47 11.3101 10.4326 11.313L10.4277 11.314L6.41504 11.313L5.1123 11.314C4.87901 11.3141 4.6488 11.3146 4.41113 11.311C4.30386 11.3093 4.21401 11.2569 4.16992 11.1743C4.12522 11.0905 4.13352 10.9867 4.20117 10.897C4.26907 10.807 4.36094 10.803 4.43457 10.7993H4.43652C4.83948 10.7928 5.26422 10.7983 5.66699 10.7983H9.61035Z" fill="black" stroke="black" stroke-width="0.13"/>
<path d="M4.375 12.4297C4.38477 12.4291 4.39452 12.4281 4.4043 12.4277L4.99219 12.4209C5.19798 12.4223 5.40437 12.4258 5.58398 12.4258H9.31641C9.54697 12.4258 9.79668 12.4203 10.0312 12.4316C10.0787 12.4339 10.116 12.4468 10.1475 12.4648L10.2305 12.5293L10.2432 12.541L10.248 12.5576L10.2793 12.6582L10.2852 12.6748L10.2812 12.6924C10.2669 12.7529 10.2496 12.8073 10.2139 12.8506C10.1766 12.8957 10.1256 12.9207 10.0605 12.9404L10.0537 12.9434H10.0459C9.82838 12.957 9.54704 12.9482 9.33008 12.9482H8.03906L4.51562 12.9502C4.45017 12.9497 4.39152 12.9516 4.33887 12.9375C4.28099 12.9219 4.23364 12.8888 4.17969 12.834L4.16699 12.8213L4.16309 12.8037C4.16078 12.7939 4.15835 12.7834 4.15625 12.7734C4.14024 12.696 4.1402 12.6183 4.17578 12.5537C4.21281 12.4866 4.28018 12.4473 4.36621 12.4307L4.375 12.4287V12.4297Z" fill="black" stroke="black" stroke-width="0.13"/>
<path d="M5.22363 14.0552H8.87207C9.22419 14.0552 9.57886 14.0536 9.93164 14.0562C9.95914 14.0564 9.99793 14.0592 10.0352 14.064C10.0712 14.0686 10.1112 14.0763 10.1406 14.0864L10.1416 14.0854C10.1603 14.0919 10.1759 14.1039 10.1875 14.1138C10.1999 14.1243 10.2116 14.1366 10.2217 14.1489C10.2407 14.1723 10.2611 14.2038 10.2695 14.2329H10.2686C10.2887 14.3031 10.2802 14.3724 10.2432 14.4351C10.221 14.4726 10.1971 14.502 10.165 14.5239C10.1341 14.545 10.1 14.5562 10.0645 14.5659L10.0576 14.5679V14.5669C9.99562 14.5765 9.8736 14.578 9.75684 14.5776C9.69716 14.5775 9.63646 14.5774 9.58301 14.5767C9.52935 14.576 9.48289 14.5748 9.4502 14.5747H8.23242L5.73926 14.5757C5.30758 14.5759 4.87357 14.577 4.44141 14.5747V14.5737C4.37537 14.5756 4.32099 14.553 4.27734 14.5347C4.20206 14.503 4.15937 14.4425 4.14648 14.3745C4.13422 14.3091 4.14974 14.2396 4.18262 14.1821C4.20335 14.146 4.226 14.1183 4.25781 14.0981C4.28687 14.0797 4.32047 14.0703 4.35254 14.061L4.35938 14.0591L4.36719 14.0581C4.62332 14.0454 4.96759 14.0553 5.22363 14.0552Z" fill="black" stroke="black" stroke-width="0.13"/>
<path d="M9.79688 7.31299C9.92702 7.30314 10.115 7.30814 10.2422 7.30811H12.1768C12.2503 7.30813 12.4219 7.30425 12.5801 7.30518C12.6611 7.30565 12.7426 7.30664 12.8135 7.31104C12.8827 7.31533 12.9472 7.32286 12.9912 7.33545C13.0915 7.36415 13.1441 7.46892 13.1406 7.56592C13.1367 7.67052 13.071 7.77521 12.9316 7.82275L12.9238 7.82568H12.915C12.7708 7.83714 12.5613 7.83157 12.4189 7.83154L11.541 7.83057H10.4619C10.4276 7.83062 10.373 7.83209 10.3066 7.8335C10.2408 7.83489 10.1639 7.8368 10.0879 7.83643C10.012 7.83605 9.93519 7.83403 9.86914 7.82861C9.80582 7.82342 9.74383 7.81402 9.70215 7.79639C9.60316 7.75431 9.55201 7.64672 9.56055 7.54736C9.56985 7.44086 9.64567 7.34254 9.78906 7.31396L9.79688 7.31201V7.31299Z" fill="black" stroke="black" stroke-width="0.13"/>
<path d="M9.80273 8.94336C9.94082 8.93579 10.1196 8.94046 10.2559 8.94043H11.083C11.6536 8.94035 12.2269 8.93882 12.7979 8.94141H12.8027C12.8137 8.94228 12.8263 8.94359 12.8408 8.94434C12.855 8.94506 12.8709 8.94601 12.8867 8.94727C12.9172 8.94967 12.9538 8.95355 12.9854 8.96484C13.0554 8.98999 13.1018 9.05118 13.124 9.11328C13.1462 9.17531 13.1486 9.25129 13.1143 9.31445C13.0915 9.35631 13.064 9.38569 13.0303 9.4082C12.9984 9.42948 12.9627 9.443 12.9287 9.45508L12.9199 9.45801L12.9111 9.45898C12.7466 9.46935 12.5288 9.46291 12.3662 9.46289H10.4395L10.4404 9.46387C10.3617 9.46401 10.2134 9.46939 10.0742 9.46777C9.93519 9.46616 9.78464 9.45749 9.69043 9.42578C9.65142 9.41263 9.6233 9.38376 9.60449 9.35449C9.58535 9.32461 9.57213 9.28914 9.56543 9.25391C9.55287 9.18769 9.55918 9.09833 9.61719 9.04102C9.62438 9.03391 9.63023 9.02711 9.63574 9.02148C9.64105 9.01607 9.64654 9.0106 9.65137 9.00586C9.66121 8.99619 9.67273 8.98626 9.6875 8.97754C9.71467 8.96151 9.74814 8.95407 9.79199 8.94434L9.80273 8.94238V8.94336Z" fill="black" stroke="black" stroke-width="0.13"/>
<path d="M11.5146 5.66992H12.335C12.3942 5.66992 12.5473 5.66527 12.6885 5.66797C12.7599 5.66934 12.8314 5.6728 12.8906 5.67969C12.92 5.68311 12.9478 5.68731 12.9717 5.69336C12.9937 5.69896 13.0206 5.70774 13.041 5.72363C13.1318 5.79477 13.1638 5.90714 13.1299 6.00586C13.0954 6.10577 12.9983 6.17919 12.8604 6.19043H12.8574C12.2673 6.20446 11.6136 6.19044 11.0225 6.19043L10.2939 6.19141C10.141 6.1922 9.98113 6.19612 9.82422 6.18848C9.77142 6.1859 9.71673 6.1789 9.66113 6.13574C9.5396 6.04126 9.52648 5.87 9.62891 5.75684C9.69999 5.67796 9.78938 5.67712 9.85254 5.67188H9.85645C10.3834 5.65718 10.9844 5.66992 11.5146 5.66992Z" fill="black" stroke="black" stroke-width="0.13"/>
<path d="M13.1865 11.6206C14.2212 11.5259 15.1366 12.2881 15.2305 13.3228C15.324 14.3576 14.5604 15.2732 13.5254 15.3657C12.4919 15.4579 11.5788 14.6949 11.4854 13.6616C11.3921 12.6285 12.1535 11.7154 13.1865 11.6206ZM13.1885 12.1372C12.4431 12.2306 11.9129 12.908 12.002 13.6538C12.0912 14.3997 12.7663 14.9343 13.5127 14.8491C14.265 14.7634 14.8038 14.0814 14.7139 13.3296C14.6238 12.5779 13.9397 12.0433 13.1885 12.1372Z" fill="black" stroke="black" stroke-width="0.13"/>
</svg>
