<svg width="30" height="30" viewBox="0 0 30 30" fill="none" xmlns="http://www.w3.org/2000/svg">
<path d="M6.12817 25C5.54293 25 5.0421 24.8043 4.62568 24.413C4.20927 24.0217 4.00071 23.5507 4 23V7C4 6.45 4.20856 5.97933 4.62568 5.588C5.04281 5.19667 5.54364 5.00067 6.12817 5H15.705C16.2902 5 16.7914 5.196 17.2085 5.588C17.6256 5.98 17.8338 6.45067 17.8331 7V23C17.8331 23.55 17.6249 24.021 17.2085 24.413C16.7921 24.805 16.2909 25.0007 15.705 25H6.12817ZM6.12817 13.525C6.4474 13.3417 6.78436 13.2083 7.13906 13.125C7.49375 13.0417 7.86618 13 8.25635 13H13.5768C13.9669 13 14.3394 13.0417 14.6941 13.125C15.0488 13.2083 15.3857 13.3417 15.705 13.525V7H6.12817V13.525ZM10.9166 12C10.3313 12 9.83049 11.804 9.41407 11.412C8.99766 11.02 8.7891 10.5493 8.78839 10C8.78768 9.45067 8.99624 8.98 9.41407 8.588C9.83191 8.196 10.3327 8 10.9166 8C11.5004 8 12.0016 8.196 12.4201 8.588C12.8387 8.98 13.0469 9.45067 13.0447 10C13.0426 10.5493 12.8344 11.0203 12.4201 11.413C12.0058 11.8057 11.5047 12.0013 10.9166 12ZM9.85248 20V21C9.85248 21.2833 9.95463 21.521 10.1589 21.713C10.3632 21.905 10.6158 22.0007 10.9166 22C11.2173 21.9993 11.4702 21.9033 11.6753 21.712C11.8803 21.5207 11.9821 21.2833 11.9807 21V20H13.0447C13.3462 20 13.5991 19.904 13.8034 19.712C14.0077 19.52 14.1095 19.2827 14.1088 19C14.1081 18.7173 14.006 18.48 13.8024 18.288C13.5988 18.096 13.3462 18 13.0447 18H11.9807V17C11.9807 16.7167 11.8785 16.4793 11.6742 16.288C11.4699 16.0967 11.2173 16.0007 10.9166 16C10.6158 15.9993 10.3632 16.0953 10.1589 16.288C9.95463 16.4807 9.85248 16.718 9.85248 17V18H8.78839C8.4869 18 8.23436 18.096 8.03076 18.288C7.82717 18.48 7.72501 18.7173 7.7243 19C7.72359 19.2827 7.82575 19.5203 8.03076 19.713C8.23578 19.9057 8.48832 20.0013 8.78839 20H9.85248ZM23.0472 17.8C22.8343 18 22.5818 18.1 22.2895 18.1C21.9973 18.1 21.7444 18 21.5308 17.8L19.3229 15.7C19.11 15.5 19.0036 15.2667 19.0036 15C19.0036 14.7333 19.11 14.5 19.3229 14.3L21.5308 12.2C21.7437 12 21.9965 11.9 22.2895 11.9C22.5825 11.9 22.835 12 23.0472 12.2C23.2593 12.4 23.3657 12.6377 23.3664 12.913C23.3671 13.1883 23.2607 13.4257 23.0472 13.625L22.6215 14H24.9359C25.2374 14 25.4903 14.096 25.6946 14.288C25.8989 14.48 26.0007 14.7173 26 15C25.9993 15.2827 25.8971 15.5203 25.6935 15.713C25.4899 15.9057 25.2374 16.0013 24.9359 16H22.6215L23.0472 16.375C23.26 16.575 23.3664 16.8127 23.3664 17.088C23.3664 17.3633 23.26 17.6007 23.0472 17.8Z" fill="#B7B7B7"/>
</svg>
