<svg width="26" height="24" viewBox="0 0 26 24" fill="none" xmlns="http://www.w3.org/2000/svg">
<path d="M2.51511 24C1.82346 24 1.23157 23.7652 0.739444 23.2956C0.24732 22.826 0.000838372 22.2608 0 21.6V2.4C0 1.74 0.246481 1.1752 0.739444 0.7056C1.23241 0.236 1.8243 0.0008 2.51511 0H13.8331C14.5248 0 15.1171 0.2352 15.6101 0.7056C16.103 1.176 16.3491 1.7408 16.3482 2.4V21.6C16.3482 22.26 16.1022 22.8252 15.6101 23.2956C15.1179 23.766 14.5256 24.0008 13.8331 24H2.51511ZM2.51511 10.23C2.89238 10.01 3.29061 9.85 3.70979 9.75C4.12898 9.65 4.56912 9.6 5.03023 9.6H11.318C11.7791 9.6 12.2193 9.65 12.6385 9.75C13.0576 9.85 13.4559 10.01 13.8331 10.23V2.4H2.51511V10.23ZM8.17412 8.4C7.48247 8.4 6.89058 8.1648 6.39845 7.6944C5.90633 7.224 5.65985 6.6592 5.65901 6C5.65817 5.3408 5.90465 4.776 6.39845 4.3056C6.89225 3.8352 7.48414 3.6 8.17412 3.6C8.8641 3.6 9.45641 3.8352 9.95105 4.3056C10.4457 4.776 10.6918 5.3408 10.6892 6C10.6867 6.6592 10.4407 7.2244 9.95105 7.6956C9.46144 8.1668 8.86913 8.4016 8.17412 8.4ZM6.91656 18V19.2C6.91656 19.54 7.03729 19.8252 7.27874 20.0556C7.52019 20.286 7.81865 20.4008 8.17412 20.4C8.52959 20.3992 8.82847 20.284 9.07076 20.0544C9.31305 19.8248 9.43336 19.54 9.43168 19.2V18H10.6892C11.0455 18 11.3444 17.8848 11.5859 17.6544C11.8273 17.424 11.9476 17.1392 11.9468 16.8C11.946 16.4608 11.8252 16.176 11.5846 15.9456C11.344 15.7152 11.0455 15.6 10.6892 15.6H9.43168V14.4C9.43168 14.06 9.31095 13.7752 9.0695 13.5456C8.82805 13.316 8.52959 13.2008 8.17412 13.2C7.81865 13.1992 7.52019 13.3144 7.27874 13.5456C7.03729 13.7768 6.91656 14.0616 6.91656 14.4V15.6H5.65901C5.3027 15.6 5.00424 15.7152 4.76363 15.9456C4.52301 16.176 4.40229 16.4608 4.40145 16.8C4.40061 17.1392 4.52134 17.4244 4.76363 17.6556C5.00592 17.8868 5.30438 18.0016 5.65901 18H6.91656ZM22.5103 15.36C22.2588 15.6 21.9603 15.72 21.6149 15.72C21.2695 15.72 20.9706 15.6 20.7183 15.36L18.1088 12.84C17.8573 12.6 17.7316 12.32 17.7316 12C17.7316 11.68 17.8573 11.4 18.1088 11.16L20.7183 8.64C20.9698 8.4 21.2686 8.28 21.6149 8.28C21.9611 8.28 22.2596 8.4 22.5103 8.64C22.7609 8.88 22.8867 9.1652 22.8875 9.4956C22.8884 9.826 22.7626 10.1108 22.5103 10.35L22.0073 10.8H24.7424C25.0987 10.8 25.3976 10.9152 25.6391 11.1456C25.8805 11.376 26.0008 11.6608 26 12C25.9992 12.3392 25.8784 12.6244 25.6378 12.8556C25.3972 13.0868 25.0987 13.2016 24.7424 13.2H22.0073L22.5103 13.65C22.7618 13.89 22.8875 14.1752 22.8875 14.5056C22.8875 14.836 22.7618 15.1208 22.5103 15.36Z" fill="#1E1E1E"/>
</svg>
