<svg width="16" height="16" viewBox="0 0 16 16" fill="none" xmlns="http://www.w3.org/2000/svg">
<g clip-path="url(#clip0_1353_20473)">
<path d="M14.9421 12.57L10.0001 4.335V1H10.5001C10.7751 1 11.0001 0.775 11.0001 0.5C11.0001 0.225 10.7751 0 10.5001 0H5.50008C5.22508 0 5.00008 0.225 5.00008 0.5C5.00008 0.775 5.22508 1 5.50008 1H6.00008V4.335L1.05808 12.57C-0.073915 14.456 0.800085 16 3.00009 16H13.0001C15.2001 16 16.0741 14.457 14.9421 12.57ZM3.76609 10L7.00008 4.61V1H9.00008V4.61L12.2341 10H3.76609Z" fill="#1E1E1E"/>
</g>
<defs>
<clipPath id="clip0_1353_20473">
<rect width="16" height="16" fill="white"/>
</clipPath>
</defs>
</svg>
