<svg width="211" height="211" viewBox="0 0 211 211" fill="none" xmlns="http://www.w3.org/2000/svg">
<path d="M182.507 142.265C182.507 142.265 224.34 77.0903 205.063 35.4109C185.785 -6.26851 139.775 -6.50655 123.869 10.9126C114.147 21.5596 116.981 39.343 93.9653 46.2228C79.8861 50.4311 69.6367 43.6833 48.648 36.3657C27.6594 29.048 3.2915 44.9562 0.29721 70.3573C-3.06342 98.8678 22.8875 113.772 37.1331 124.035C51.3788 134.297 44.164 151.319 50.0699 167.26C55.9758 183.2 151.231 200.122 182.507 142.265Z" fill="#D5FAF6"/>
<path d="M203.205 70.3571C203.205 70.3571 206.387 33.5196 182.507 15.2076C161.97 -0.541563 141.44 7.09473 134.978 14.0143C128.517 20.9343 135.587 29.2858 153.435 28.0929C171.284 26.9001 198.353 39.2288 203.205 70.3571Z" fill="white"/>
<path d="M89.4744 211C102.038 211 112.224 208.799 112.224 206.083C112.224 203.367 102.038 201.165 89.4744 201.165C76.9103 201.165 66.7251 203.367 66.7251 206.083C66.7251 208.799 76.9103 211 89.4744 211Z" fill="#D2EDFF"/>
<path d="M170.183 206.082C182.748 206.082 192.933 203.881 192.933 201.165C192.933 198.449 182.748 196.247 170.183 196.247C157.619 196.247 147.434 198.449 147.434 201.165C147.434 203.881 157.619 206.082 170.183 206.082Z" fill="#D2EDFF"/>
<path d="M133.99 201.164C166.592 201.164 193.022 198.963 193.022 196.247C193.022 193.531 166.592 191.329 133.99 191.329C101.387 191.329 74.9567 193.531 74.9567 196.247C74.9567 198.963 101.387 201.164 133.99 201.164Z" fill="#D2EDFF"/>
<path d="M62.3248 197.817C94.9278 197.817 121.358 195.615 121.358 192.899C121.358 190.183 94.9278 187.981 62.3248 187.981C29.7219 187.981 3.29203 190.183 3.29203 192.899C3.29203 195.615 29.7219 197.817 62.3248 197.817Z" fill="#D2EDFF"/>
<path d="M48.4444 133.775C69.152 133.775 85.9388 116.988 85.9388 96.2805C85.9388 75.5729 69.152 58.7861 48.4444 58.7861C27.7369 58.7861 10.9501 75.5729 10.9501 96.2805C10.9501 116.988 27.7369 133.775 48.4444 133.775Z" fill="#ACDAFF"/>
<path d="M48.4444 128.757C66.3807 128.757 80.9209 114.216 80.9209 96.2802C80.9209 78.3439 66.3807 63.8037 48.4444 63.8037C30.5082 63.8037 15.9679 78.3439 15.9679 96.2802C15.9679 114.216 30.5082 128.757 48.4444 128.757Z" fill="#E6FFFF"/>
<path opacity="0.57" d="M60.0616 97.5445C64.5912 90.6998 65.0716 78.3648 62.7951 71.7946C58.6461 69.3575 53.8249 67.9372 48.6676 67.8964C32.9921 67.7734 20.1842 80.3809 20.0612 96.0569C20.0257 100.59 21.06 104.88 22.9203 108.696C23.1409 108.728 23.3747 108.707 23.5809 108.793C33.948 113.116 51.5453 110.414 60.0616 97.5445Z" fill="#FFFAFF"/>
<path d="M48.6162 74.3893C49.1623 74.3936 49.6124 73.9504 49.6166 73.4043L49.6643 67.3256C49.6686 66.7796 49.2253 66.3295 48.6793 66.3252C48.1332 66.321 47.6831 66.7642 47.6789 67.3102L47.6312 73.3889C47.6275 73.935 48.0702 74.3851 48.6162 74.3893Z" fill="#ACDAFF"/>
<path d="M48.2091 126.235C48.7551 126.239 49.2052 125.796 49.2094 125.25L49.2572 119.171C49.2614 118.625 48.8182 118.175 48.2721 118.171C47.7261 118.167 47.276 118.61 47.2717 119.156L47.224 125.235C47.2203 125.781 47.663 126.231 48.2091 126.235Z" fill="#ACDAFF"/>
<path d="M70.3354 96.4528C70.3312 96.9989 70.7744 97.449 71.3204 97.4532L77.3991 97.5009C77.9452 97.5052 78.3953 97.062 78.3995 96.5159C78.4038 95.9699 77.9606 95.5197 77.4145 95.5155L71.3358 95.4678C70.7898 95.4641 70.3397 95.9068 70.3354 96.4528Z" fill="#ACDAFF"/>
<path d="M18.4899 96.0456C18.4856 96.5916 18.9288 97.0417 19.4749 97.046L25.5536 97.0937C26.0996 97.0979 26.5497 96.6547 26.554 96.1087C26.5582 95.5626 26.115 95.1125 25.569 95.1083L19.4903 95.0606C18.9442 95.0563 18.4941 95.4995 18.4899 96.0456Z" fill="#ACDAFF"/>
<path d="M61.9479 74.3023C62.496 74.3023 62.9404 73.8579 62.9404 73.3098C62.9404 72.7617 62.496 72.3174 61.9479 72.3174C61.3998 72.3174 60.9555 72.7617 60.9555 73.3098C60.9555 73.8579 61.3998 74.3023 61.9479 74.3023Z" fill="#ACDAFF"/>
<path d="M34.9404 120.244C35.4886 120.244 35.9329 119.799 35.9329 119.251C35.9329 118.703 35.4886 118.259 34.9404 118.259C34.3923 118.259 33.948 118.703 33.948 119.251C33.948 119.799 34.3923 120.244 34.9404 120.244Z" fill="#ACDAFF"/>
<path d="M71.6242 84.1314C72.1723 84.1314 72.6167 83.687 72.6167 83.1389C72.6167 82.5908 72.1723 82.1465 71.6242 82.1465C71.0761 82.1465 70.6318 82.5908 70.6318 83.1389C70.6318 83.687 71.0761 84.1314 71.6242 84.1314Z" fill="#ACDAFF"/>
<path d="M25.2647 110.415C25.8128 110.415 26.2571 109.97 26.2571 109.422C26.2571 108.874 25.8128 108.43 25.2647 108.43C24.7165 108.43 24.2722 108.874 24.2722 109.422C24.2722 109.97 24.7165 110.415 25.2647 110.415Z" fill="#ACDAFF"/>
<path d="M71.4153 110.776C71.9634 110.776 72.4078 110.332 72.4078 109.783C72.4078 109.235 71.9634 108.791 71.4153 108.791C70.8672 108.791 70.4229 109.235 70.4229 109.783C70.4229 110.332 70.8672 110.776 71.4153 110.776Z" fill="#ACDAFF"/>
<path d="M25.4735 83.7691C26.0216 83.7691 26.466 83.3247 26.466 82.7766C26.466 82.2285 26.0216 81.7842 25.4735 81.7842C24.9254 81.7842 24.4811 82.2285 24.4811 82.7766C24.4811 83.3247 24.9254 83.7691 25.4735 83.7691Z" fill="#ACDAFF"/>
<path d="M61.5858 120.453C62.1339 120.453 62.5783 120.008 62.5783 119.46C62.5783 118.912 62.1339 118.468 61.5858 118.468C61.0377 118.468 60.5934 118.912 60.5934 119.46C60.5934 120.008 61.0377 120.453 61.5858 120.453Z" fill="#ACDAFF"/>
<path d="M35.3031 74.0933C35.8512 74.0933 36.2955 73.6489 36.2955 73.1008C36.2955 72.5527 35.8512 72.1084 35.3031 72.1084C34.755 72.1084 34.3106 72.5527 34.3106 73.1008C34.3106 73.6489 34.755 74.0933 35.3031 74.0933Z" fill="#ACDAFF"/>
<path d="M58.5215 88.816C61.4904 87.6577 75.3448 81.6982 75.3448 81.6982L75.3957 81.7931L75.4964 81.9808L75.5473 82.0757C75.5473 82.0757 62.9377 90.3503 60.3352 92.1889C57.7327 94.0274 48.5043 96.903 48.5043 96.903L48.3363 96.5902L48.2356 96.4025L48.0675 96.0897C48.0675 96.0897 55.5532 89.9744 58.5215 88.816Z" fill="#FFBC00"/>
<path d="M39.0242 98.2948C36.752 97.9427 25.9682 96.7902 25.9682 96.7902L25.9666 96.6826L25.9634 96.4695L25.9618 96.3618C25.9618 96.3618 36.7064 94.8864 38.9669 94.466C41.2275 94.0456 48.0537 95.7829 48.0537 95.7829L48.059 96.1381L48.0622 96.3512L48.0675 96.7064C48.0675 96.7064 41.2964 98.6473 39.0242 98.2948Z" fill="#FFBC00"/>
<path d="M48.4444 98.2648C49.541 98.2648 50.4299 97.3759 50.4299 96.2794C50.4299 95.1828 49.541 94.2939 48.4444 94.2939C47.3479 94.2939 46.459 95.1828 46.459 96.2794C46.459 97.3759 47.3479 98.2648 48.4444 98.2648Z" fill="#ACDAFF"/>
<path d="M28.735 136.825L19.9038 189.726C19.802 190.335 20.2717 190.889 20.8893 190.889C21.3596 190.889 21.7662 190.562 21.8659 190.102L33.4284 136.825H28.735Z" fill="#ACDAFF"/>
<path d="M37.2726 133.648L31.0502 186.918C30.9786 187.532 31.4748 188.063 32.0919 188.032C32.5617 188.009 32.9518 187.661 33.0287 187.198L41.9607 133.417L37.2726 133.648Z" fill="#ACDAFF"/>
<path d="M73.7814 136.825L82.6126 189.726C82.7144 190.335 82.2447 190.889 81.6271 190.889C81.1569 190.889 80.7502 190.562 80.6506 190.102L69.088 136.825H73.7814Z" fill="#ACDAFF"/>
<path d="M65.2439 133.648L71.4668 186.918C71.5383 187.532 71.0421 188.063 70.425 188.032C69.9553 188.009 69.5651 187.661 69.4882 187.198L60.5563 133.417L65.2439 133.648Z" fill="#ACDAFF"/>
<path d="M81.2549 138.057H22.1521C20.8087 138.057 19.7092 136.957 19.7092 135.614C19.7092 134.27 20.8087 133.171 22.1521 133.171H81.2549C82.5983 133.171 83.6979 134.27 83.6979 135.614C83.6979 136.958 82.5983 138.057 81.2549 138.057Z" fill="#2099FF"/>
<path d="M22.8811 178.875L22.7305 178.821C22.7486 178.771 24.4949 173.76 23.4892 167.829C22.5619 162.361 19.0354 154.966 7.50143 150.794L7.5555 150.644C12.6794 152.497 16.6746 155.134 19.4293 158.482C21.6347 161.162 23.0539 164.3 23.6477 167.809C24.6582 173.779 22.8986 178.824 22.8811 178.875Z" fill="#6CB7D8"/>
<path d="M9.12157 151.335C9.12157 151.335 6.08858 151.793 4.52516 150.397C2.96122 149.002 5.62575 148.328 9.12157 151.335Z" fill="#6CB7D8"/>
<path d="M12.2638 152.825C12.2638 152.825 11.3143 148.813 9.84045 148.023C8.36611 147.233 8.15882 150.092 12.2638 152.825Z" fill="#6CB7D8"/>
<path d="M11.7829 152.549C11.7829 152.549 7.70129 151.968 6.42734 153.051C5.15392 154.135 7.73947 155.372 11.7829 152.549Z" fill="#6CB7D8"/>
<path d="M14.2911 154.088C14.2911 154.088 10.2094 153.506 8.93549 154.59C7.66207 155.673 10.2476 156.911 14.2911 154.088Z" fill="#6CB7D8"/>
<path d="M16.8162 155.871C16.8162 155.871 12.7345 155.289 11.4606 156.373C10.1872 157.456 12.7727 158.693 16.8162 155.871Z" fill="#6CB7D8"/>
<path d="M19.2602 158.335C19.2602 158.335 15.2379 157.428 13.8818 158.406C12.5251 159.384 15.0036 160.825 19.2602 158.335Z" fill="#6CB7D8"/>
<path d="M21.4958 161.608C21.4958 161.608 17.7572 159.869 16.2245 160.538C14.6919 161.207 16.8088 163.139 21.4958 161.608Z" fill="#6CB7D8"/>
<path d="M23.1223 165.616C23.1223 165.616 20.1365 162.772 18.4702 162.915C16.804 163.059 18.1909 165.567 23.1223 165.616Z" fill="#6CB7D8"/>
<path d="M23.8322 170.301C23.8322 170.301 21.9676 166.623 20.3491 166.201C18.7305 165.78 19.2003 168.608 23.8322 170.301Z" fill="#6CB7D8"/>
<path d="M23.6514 174.904C23.6514 174.904 22.6823 170.896 21.2048 170.114C19.7272 169.331 19.5332 172.19 23.6514 174.904Z" fill="#6CB7D8"/>
<path d="M15.0741 154.571C15.0741 154.571 15.4749 151.045 14.1182 149.159C12.7611 147.272 12.3035 149.436 12.8252 150.652C13.3463 151.869 15.0741 154.571 15.0741 154.571Z" fill="#6CB7D8"/>
<path d="M17.1327 156.204C17.1327 156.204 18.0864 152.786 17.0447 150.709C16.0029 148.632 15.2093 150.695 15.5316 151.979C15.854 153.262 17.1327 156.204 17.1327 156.204Z" fill="#6CB7D8"/>
<path d="M19.0481 158.129C19.0481 158.129 20.7679 155.025 20.2362 152.763C19.7044 150.501 18.4538 152.324 18.4697 153.648C18.4856 154.971 19.0481 158.129 19.0481 158.129Z" fill="#6CB7D8"/>
<path d="M20.9148 160.607C20.9148 160.607 22.6346 157.503 22.1028 155.241C21.5711 152.979 20.3205 154.802 20.3364 156.126C20.3528 157.449 20.9148 160.607 20.9148 160.607Z" fill="#6CB7D8"/>
<path d="M22.5413 163.996C22.5413 163.996 24.647 161.14 24.4111 158.828C24.1752 156.516 22.7003 158.163 22.5455 159.477C22.3912 160.792 22.5413 163.996 22.5413 163.996Z" fill="#6CB7D8"/>
<path d="M23.6392 168.496C23.6392 168.496 26.2491 166.092 26.4559 163.777C26.6632 161.462 24.902 162.799 24.5012 164.061C24.0999 165.322 23.6392 168.496 23.6392 168.496Z" fill="#6CB7D8"/>
<path d="M23.8232 172.584C23.8232 172.584 26.8625 170.752 27.5311 168.527C28.199 166.301 26.2057 167.257 25.5589 168.412C24.9121 169.567 23.8232 172.584 23.8232 172.584Z" fill="#6CB7D8"/>
<path d="M42.4617 170.986L42.6122 170.932C42.5942 170.883 40.8479 165.871 41.8536 159.941C42.7808 154.472 46.3074 147.078 57.8414 142.905L57.7873 142.755C52.6634 144.608 48.6682 147.245 45.9135 150.593C43.7081 153.273 42.2889 156.411 41.6951 159.92C40.6846 165.891 42.4437 170.936 42.4617 170.986Z" fill="#6CB7D8"/>
<path d="M56.2212 143.446C56.2212 143.446 59.2542 143.904 60.8176 142.508C62.3816 141.114 59.717 140.439 56.2212 143.446Z" fill="#6CB7D8"/>
<path d="M53.079 144.936C53.079 144.936 54.0285 140.924 55.5023 140.134C56.9767 139.345 57.184 142.203 53.079 144.936Z" fill="#6CB7D8"/>
<path d="M53.5599 144.662C53.5599 144.662 57.6415 144.08 58.9154 145.164C60.1889 146.247 57.6033 147.485 53.5599 144.662Z" fill="#6CB7D8"/>
<path d="M51.0517 146.199C51.0517 146.199 55.1334 145.617 56.4073 146.701C57.6813 147.785 55.0952 149.022 51.0517 146.199Z" fill="#6CB7D8"/>
<path d="M48.5266 147.982C48.5266 147.982 52.6082 147.4 53.8822 148.484C55.1561 149.568 52.5701 150.805 48.5266 147.982Z" fill="#6CB7D8"/>
<path d="M46.0826 150.446C46.0826 150.446 50.1049 149.539 51.461 150.518C52.8177 151.496 50.3392 152.936 46.0826 150.446Z" fill="#6CB7D8"/>
<path d="M43.847 153.719C43.847 153.719 47.5856 151.981 49.1183 152.649C50.6509 153.318 48.534 155.25 43.847 153.719Z" fill="#6CB7D8"/>
<path d="M42.2205 157.726C42.2205 157.726 45.2063 154.883 46.8725 155.026C48.5388 155.169 47.1519 157.677 42.2205 157.726Z" fill="#6CB7D8"/>
<path d="M41.5106 162.413C41.5106 162.413 43.3751 158.736 44.9937 158.314C46.6122 157.892 46.1425 160.72 41.5106 162.413Z" fill="#6CB7D8"/>
<path d="M41.6914 167.015C41.6914 167.015 42.6605 163.007 44.138 162.225C45.6156 161.442 45.8096 164.302 41.6914 167.015Z" fill="#6CB7D8"/>
<path d="M50.2687 146.682C50.2687 146.682 49.8679 143.156 51.2246 141.27C52.5817 139.384 53.0393 141.547 52.5176 142.764C51.9965 143.98 50.2687 146.682 50.2687 146.682Z" fill="#6CB7D8"/>
<path d="M48.2101 148.316C48.2101 148.316 47.2564 144.897 48.2981 142.82C49.3399 140.743 50.1335 142.806 49.8112 144.09C49.4888 145.374 48.2101 148.316 48.2101 148.316Z" fill="#6CB7D8"/>
<path d="M46.2947 150.241C46.2947 150.241 44.5749 147.137 45.1066 144.875C45.6383 142.612 46.889 144.436 46.8731 145.759C46.8572 147.083 46.2947 150.241 46.2947 150.241Z" fill="#6CB7D8"/>
<path d="M44.428 152.718C44.428 152.718 42.7082 149.614 43.2399 147.352C43.7717 145.09 45.0223 146.913 45.0064 148.237C44.99 149.56 44.428 152.718 44.428 152.718Z" fill="#6CB7D8"/>
<path d="M42.8015 156.107C42.8015 156.107 40.6958 153.251 40.9317 150.939C41.1676 148.628 42.6425 150.274 42.7973 151.588C42.9515 152.903 42.8015 156.107 42.8015 156.107Z" fill="#6CB7D8"/>
<path d="M41.7036 160.608C41.7036 160.608 39.0936 158.203 38.8869 155.888C38.6796 153.574 40.4408 154.911 40.8415 156.172C41.2429 157.434 41.7036 160.608 41.7036 160.608Z" fill="#6CB7D8"/>
<path d="M41.5196 164.696C41.5196 164.696 38.4803 162.865 37.8117 160.639C37.1432 158.413 39.1371 159.369 39.7839 160.524C40.4307 161.679 41.5196 164.696 41.5196 164.696Z" fill="#6CB7D8"/>
<path d="M24.8909 164.117C24.8909 164.117 21.3468 153.627 24.5368 150.614C27.7267 147.601 23.768 143.326 24.7054 140.54C25.6432 137.755 29.077 136.1 30.5747 141.21C32.0723 146.319 32.4964 146.477 36.26 146.713C40.0235 146.948 39.7341 154.526 39.0687 158.013C38.4034 161.499 42.0996 155.992 43.2177 159.734C44.3358 163.476 38.9198 171.193 33.2233 175.215C27.5268 179.238 20.5596 167.799 21.0378 164.937C21.5165 162.077 23.6074 165.906 24.8909 164.117Z" fill="#82C4E8"/>
<path d="M25.3924 149.484C25.1947 149.876 24.9179 150.254 24.5368 150.615C21.3468 153.627 24.8909 164.118 24.8909 164.118C23.6074 165.907 21.5165 162.077 21.0383 164.938C20.5601 167.799 27.5268 179.237 33.2238 175.216C33.5297 175 33.8345 174.771 34.1378 174.535C33.4767 165.586 30.4548 157.008 25.3924 149.484Z" fill="#6CB7D8"/>
<path d="M31.2856 176.21C31.2283 176.273 31.1408 176.305 31.0513 176.288C30.9145 176.262 30.8249 176.13 30.8509 175.993C30.8779 175.851 33.5048 161.499 26.8678 140.696C26.8254 140.563 26.8986 140.421 27.0317 140.379C27.1647 140.337 27.3068 140.41 27.3487 140.543C34.028 161.478 31.3741 175.945 31.3465 176.089C31.337 176.135 31.3153 176.177 31.2856 176.21Z" fill="#98CFF4"/>
<path d="M28.8596 146.867L25.5027 144.162C25.394 144.075 25.3771 143.916 25.4645 143.807C25.552 143.701 25.711 143.682 25.8192 143.769L28.7234 146.109L30.2539 143.544C30.326 143.423 30.4803 143.385 30.6001 143.457C30.7199 143.528 30.7591 143.683 30.6876 143.803L28.8596 146.867Z" fill="#98CFF4"/>
<path d="M37.0679 148.924C37.0626 148.93 37.0573 148.935 37.0515 148.941L30.5206 154.916L25.332 151.39C25.2169 151.312 25.1867 151.155 25.2652 151.04C25.3431 150.923 25.5006 150.894 25.6156 150.973L30.4739 154.273L36.7106 148.568C36.8135 148.474 36.973 148.481 37.0674 148.584C37.1559 148.681 37.1549 148.828 37.0679 148.924Z" fill="#98CFF4"/>
<path d="M38.4829 157.253C38.4803 157.255 38.4776 157.258 38.475 157.261L31.5544 164.239L24.7207 158.792C24.6115 158.705 24.5935 158.546 24.6804 158.437C24.7732 158.327 24.9259 158.311 25.0351 158.397L31.5141 163.562L38.116 156.906C38.2141 156.807 38.3742 156.806 38.4728 156.904C38.5698 157 38.573 157.153 38.4829 157.253Z" fill="#98CFF4"/>
<path d="M41.4597 162.172C41.4576 162.174 41.4549 162.177 41.4528 162.179L31.5713 172.218L23.1006 166.295C22.9866 166.215 22.9585 166.058 23.038 165.944C23.1191 165.83 23.2755 165.802 23.3895 165.881L31.5109 171.56L41.0934 161.824C41.1909 161.725 41.351 161.724 41.4502 161.822C41.5466 161.918 41.5504 162.072 41.4597 162.172Z" fill="#98CFF4"/>
<path d="M23.2946 177.602C23.2946 177.602 15.5512 173.727 15.6642 170.298C15.7771 166.868 11.2247 166.673 10.2121 164.61C9.1995 162.547 10.1957 159.737 13.8404 161.751C17.4847 163.764 17.8076 163.618 20.0273 161.677C22.247 159.736 26.2582 164.104 27.8083 166.407C29.3585 168.71 28.3793 163.616 31.0603 165.079C33.7412 166.541 34.9823 173.809 34.0323 179.179C33.0828 184.549 22.9161 182.032 21.6066 180.18C20.2971 178.327 23.5671 179.302 23.2946 177.602Z" fill="#98CFF4"/>
<path d="M15.5173 169.199C15.6233 169.525 15.6779 169.888 15.6642 170.298C15.5512 173.727 23.2946 177.602 23.2946 177.602C23.5666 179.302 20.2971 178.326 21.6066 180.179C22.9161 182.031 33.0828 184.548 34.0323 179.178C34.0832 178.89 34.1267 178.595 34.1654 178.297C28.8718 173.691 22.4713 170.591 15.5173 169.199Z" fill="#82C4E8"/>
<path d="M33.5037 180.798C33.5064 180.864 33.4762 180.93 33.4168 180.971C33.3261 181.032 33.2037 181.007 33.1432 180.917C33.0796 180.823 26.6383 171.407 11.4993 163.507C11.4028 163.457 11.3646 163.337 11.4155 163.241C11.4659 163.144 11.5852 163.107 11.6817 163.157C26.9166 171.107 33.4072 180.602 33.4709 180.697C33.491 180.727 33.5021 180.763 33.5037 180.798Z" fill="#ACDAFF"/>
<path d="M16.0019 165.836L12.6487 166.182C12.5405 166.193 12.4435 166.114 12.4324 166.006C12.4223 165.898 12.5002 165.8 12.6084 165.789L15.5099 165.49L14.9479 163.223C14.9214 163.116 14.9861 163.01 15.0921 162.984C15.1982 162.958 15.3052 163.022 15.3312 163.128L16.0019 165.836Z" fill="#ACDAFF"/>
<path d="M21.693 162.459C21.6936 162.465 21.6936 162.471 21.693 162.478L21.3548 169.391L16.5325 170.29C16.4255 170.31 16.3221 170.239 16.3025 170.132C16.2818 170.024 16.3534 169.921 16.4604 169.902L20.9757 169.06L21.2986 162.458C21.3039 162.35 21.3967 162.265 21.5054 162.271C21.6082 162.276 21.6888 162.358 21.693 162.459Z" fill="#ACDAFF"/>
<path d="M27.0645 166.307C27.0645 166.309 27.0645 166.313 27.0645 166.316L27.0629 174.001L20.269 174.738C20.1604 174.75 20.0634 174.672 20.0517 174.563C20.0421 174.451 20.1185 174.358 20.2266 174.346L26.6685 173.648L26.6701 166.316C26.6701 166.207 26.7586 166.119 26.8673 166.119C26.9733 166.119 27.0597 166.202 27.0645 166.307Z" fill="#ACDAFF"/>
<path d="M31.4255 167.4C31.4255 167.402 31.4255 167.405 31.4255 167.408L31.4648 178.424L23.4993 179.797C23.3916 179.816 23.2898 179.744 23.2713 179.636C23.2538 179.528 23.3248 179.426 23.4325 179.408L31.0693 178.091L31.0311 167.409C31.0306 167.3 31.1186 167.211 31.2278 167.211C31.3344 167.21 31.4213 167.294 31.4255 167.4Z" fill="#ACDAFF"/>
<path d="M40.7021 176.51C40.7021 176.51 50.9086 172.217 51.0528 167.831C51.197 163.446 57.0223 163.579 58.4876 161.032C59.953 158.485 58.9181 154.816 54.0985 157.079C49.2789 159.341 48.8792 159.128 46.2099 156.464C43.5405 153.8 38.0551 159.037 35.8841 161.845C33.7131 164.653 35.3905 158.236 31.8465 159.877C28.3024 161.518 26.1081 170.687 26.8689 177.619C27.6291 184.551 40.8135 182.193 42.6404 179.94C44.4657 177.686 40.2117 178.656 40.7021 176.51Z" fill="#ACDAFF"/>
<path d="M51.3322 166.441C51.1699 166.849 51.0697 167.307 51.0522 167.831C50.908 172.216 40.7016 176.509 40.7016 176.509C40.2112 178.656 44.4657 177.685 42.6393 179.939C40.8129 182.193 27.6286 184.55 26.8678 177.618C26.827 177.246 26.7963 176.866 26.7724 176.482C33.9141 171.051 42.3424 167.632 51.3322 166.441Z" fill="#98CFF4"/>
<path d="M27.407 179.729C27.3975 179.813 27.4314 179.901 27.5035 179.957C27.6138 180.042 27.7723 180.021 27.8576 179.911C27.9462 179.796 36.9577 168.322 56.9396 159.515C57.0673 159.459 57.1257 159.31 57.0689 159.182C57.0127 159.054 56.8638 158.997 56.736 159.053C36.6279 167.916 27.5475 179.486 27.4584 179.602C27.4282 179.641 27.4118 179.685 27.407 179.729Z" fill="#D2EDFF"/>
<path d="M50.9966 162.109L55.2463 162.832C55.3836 162.855 55.514 162.763 55.5373 162.625C55.5591 162.489 55.4679 162.358 55.3306 162.334L51.6534 161.709L52.5611 158.863C52.604 158.728 52.5303 158.588 52.3972 158.545C52.2642 158.503 52.1221 158.576 52.0797 158.709L50.9966 162.109Z" fill="#D2EDFF"/>
<path d="M44.0187 157.322C44.0177 157.33 44.0172 157.338 44.0172 157.346L43.8671 166.196L49.9453 167.748C50.0805 167.783 50.2178 167.701 50.2523 167.566C50.2878 167.431 50.2051 167.294 50.0699 167.259L44.3787 165.805L44.5219 157.354C44.524 157.215 44.4132 157.1 44.2737 157.098C44.1423 157.096 44.0331 157.194 44.0187 157.322Z" fill="#D2EDFF"/>
<path d="M36.841 161.78C36.8405 161.784 36.84 161.788 36.84 161.792L36.1958 171.598L44.8034 173.109C44.9407 173.133 45.0716 173.041 45.0955 172.905C45.1167 172.762 45.0276 172.636 44.8908 172.613L36.7297 171.18L37.3436 161.824C37.3526 161.686 37.2477 161.565 37.1082 161.556C36.9736 161.547 36.8559 161.647 36.841 161.78Z" fill="#D2EDFF"/>
<path d="M31.1843 162.808C31.1838 162.811 31.1838 162.815 31.1833 162.818L30.2073 176.871L40.2557 179.294C40.3914 179.326 40.5277 179.243 40.5606 179.108C40.5918 178.972 40.5097 178.836 40.3745 178.803L30.7406 176.48L31.6869 162.853C31.6964 162.714 31.592 162.593 31.4526 162.584C31.3169 162.575 31.1992 162.674 31.1843 162.808Z" fill="#D2EDFF"/>
<path d="M70.4552 163.451C70.4552 163.451 73.4061 154.717 70.75 152.208C68.0939 149.699 71.3899 146.139 70.6095 143.821C69.8286 141.502 66.9695 140.124 65.7226 144.378C64.4757 148.632 64.1221 148.764 60.9889 148.96C57.8551 149.156 58.0964 155.465 58.6504 158.368C59.2044 161.272 56.1269 156.686 55.1959 159.801C54.265 162.917 58.7744 169.343 63.5177 172.692C68.2609 176.04 74.0618 166.516 73.6632 164.134C73.2645 161.752 71.5235 164.941 70.4552 163.451Z" fill="#82C4E8"/>
<path d="M70.0375 151.268C70.2018 151.594 70.4324 151.909 70.75 152.209C73.4061 154.717 70.4552 163.452 70.4552 163.452C71.524 164.941 73.2645 161.752 73.6632 164.134C74.0618 166.516 68.2604 176.04 63.5177 172.692C63.2632 172.512 63.0093 172.322 62.7564 172.125C63.3062 164.675 65.8222 157.532 70.0375 151.268Z" fill="#6CB7D8"/>
<path d="M65.1309 173.52C65.1786 173.572 65.2513 173.599 65.326 173.585C65.44 173.563 65.5148 173.453 65.493 173.339C65.4702 173.22 63.2834 161.271 68.8096 143.95C68.8452 143.839 68.7842 143.721 68.6734 143.686C68.5626 143.65 68.4444 143.711 68.4094 143.822C62.8481 161.253 65.0578 173.299 65.0806 173.418C65.0875 173.457 65.1055 173.491 65.1309 173.52Z" fill="#98CFF4"/>
<path d="M67.1508 149.088L69.9458 146.836C70.0359 146.763 70.0502 146.63 69.9776 146.54C69.9049 146.452 69.7724 146.436 69.6823 146.508L67.2643 148.457L65.9892 146.321C65.9288 146.22 65.8005 146.188 65.7008 146.248C65.6012 146.307 65.5683 146.436 65.6282 146.536L67.1508 149.088Z" fill="#98CFF4"/>
<path d="M60.3161 150.8C60.3203 150.805 60.3251 150.81 60.3299 150.814L65.7676 155.788L70.0878 152.853C70.1838 152.788 70.2087 152.657 70.1435 152.561C70.0788 152.464 69.9473 152.44 69.8514 152.505L65.8058 155.253L60.613 150.503C60.5271 150.425 60.3946 150.431 60.3161 150.517C60.2429 150.598 60.244 150.721 60.3161 150.8Z" fill="#98CFF4"/>
<path d="M59.1381 157.735C59.1402 157.737 59.1423 157.74 59.1445 157.742L64.9067 163.553L70.5963 159.017C70.6869 158.945 70.7023 158.813 70.6297 158.722C70.5523 158.63 70.425 158.616 70.3344 158.689L64.9395 162.989L59.4429 157.447C59.3613 157.365 59.2282 157.364 59.1455 157.446C59.0655 157.524 59.0628 157.653 59.1381 157.735Z" fill="#98CFF4"/>
<path d="M56.6591 161.831C56.6612 161.833 56.6628 161.835 56.6649 161.837L64.8924 170.196L71.9455 165.264C72.0404 165.198 72.0637 165.067 71.9974 164.972C71.9296 164.877 71.7997 164.854 71.7048 164.92L64.9427 169.648L56.9645 161.542C56.8828 161.46 56.7498 161.458 56.6676 161.54C56.587 161.619 56.5838 161.747 56.6591 161.831Z" fill="#98CFF4"/>
<path d="M58.5549 175.629C58.5549 175.629 50.8116 171.754 50.9245 168.325C51.0374 164.895 46.485 164.7 45.4724 162.637C44.4598 160.575 45.456 157.765 49.1008 159.778C52.745 161.792 53.0679 161.645 55.2876 159.705C57.5074 157.763 61.5185 162.131 63.0686 164.434C64.6183 166.737 63.6396 161.643 66.3206 163.106C69.0016 164.569 70.2426 171.837 69.2926 177.206C68.3431 182.576 58.1764 180.059 56.8669 178.207C55.5569 176.353 58.8269 177.329 58.5549 175.629Z" fill="#98CFF4"/>
<path d="M50.7771 167.227C50.8831 167.553 50.9377 167.915 50.9239 168.325C50.811 171.755 58.5544 175.629 58.5544 175.629C58.8264 177.33 55.5569 176.354 56.8664 178.206C58.1759 180.058 68.3426 182.575 69.2921 177.206C69.343 176.917 69.3864 176.622 69.4251 176.324C64.1321 171.719 57.7311 168.618 50.7771 167.227Z" fill="#82C4E8"/>
<path d="M68.7635 178.826C68.7667 178.892 68.736 178.959 68.6766 178.999C68.5859 179.06 68.4635 179.036 68.403 178.945C68.3394 178.852 61.8981 169.435 46.7591 161.535C46.6626 161.485 46.6244 161.366 46.6753 161.269C46.7257 161.173 46.845 161.135 46.9415 161.185C62.1764 169.135 68.667 178.631 68.7307 178.725C68.7513 178.756 68.7619 178.791 68.7635 178.826Z" fill="#ACDAFF"/>
<path d="M51.2617 163.864L47.9085 164.21C47.8003 164.221 47.7033 164.143 47.6922 164.034C47.6821 163.926 47.76 163.829 47.8682 163.818L50.7697 163.519L50.2077 161.252C50.1812 161.145 50.2459 161.039 50.3519 161.013C50.4579 160.986 50.565 161.051 50.591 161.157L51.2617 163.864Z" fill="#ACDAFF"/>
<path d="M56.9528 160.487C56.9534 160.494 56.9534 160.499 56.9528 160.506L56.6146 167.42L51.7923 168.318C51.6853 168.338 51.5819 168.267 51.5623 168.16C51.5416 168.053 51.6131 167.95 51.7202 167.93L56.2355 167.089L56.5584 160.487C56.5637 160.378 56.6565 160.294 56.7651 160.299C56.868 160.304 56.9486 160.387 56.9528 160.487Z" fill="#ACDAFF"/>
<path d="M62.3243 164.334C62.3243 164.337 62.3243 164.34 62.3243 164.343L62.3227 172.029L55.5288 172.766C55.4202 172.777 55.3231 172.699 55.3115 172.591C55.3019 172.478 55.3783 172.385 55.4864 172.373L61.9283 171.675L61.9299 164.344C61.9299 164.234 62.0184 164.146 62.1271 164.146C62.2331 164.146 62.3195 164.229 62.3243 164.334Z" fill="#ACDAFF"/>
<path d="M66.6859 165.428C66.6859 165.431 66.6859 165.433 66.6859 165.436L66.7251 176.452L58.7596 177.826C58.652 177.844 58.5502 177.772 58.5316 177.664C58.5141 177.557 58.5852 177.454 58.6928 177.436L66.3296 176.12L66.2914 165.438C66.2909 165.328 66.3789 165.24 66.4881 165.239C66.5941 165.239 66.6811 165.322 66.6859 165.428Z" fill="#ACDAFF"/>
<path d="M47.935 177.817C47.935 177.817 40.903 176.902 40.0686 174.219C39.2336 171.536 35.6599 172.609 34.3218 171.285C32.9837 169.962 32.999 167.521 36.3597 168.098C39.7203 168.675 39.9307 168.476 41.1257 166.377C42.3207 164.279 46.5979 166.579 48.4163 167.943C50.2348 169.308 48.1073 165.631 50.5746 166.042C53.0419 166.453 55.9561 171.74 56.6655 176.15C57.3748 180.559 48.8336 181.346 47.3226 180.265C45.8117 179.184 48.603 179.058 47.935 177.817Z" fill="#82C4E8"/>
<path d="M39.6593 173.408C39.829 173.632 39.9689 173.897 40.0686 174.218C40.9036 176.901 47.935 177.816 47.935 177.816C48.603 179.058 45.8112 179.182 47.3221 180.263C48.833 181.344 57.3743 180.558 56.665 176.148C56.6268 175.911 56.5812 175.672 56.5308 175.431C51.1975 173.292 45.4125 172.615 39.6593 173.408Z" fill="#6CB7D8"/>
<path d="M56.6915 177.543C56.7116 177.594 56.7058 177.654 56.6703 177.7C56.6167 177.772 56.5155 177.786 56.4439 177.732C56.3697 177.676 48.8542 172.125 35.0194 170.085C34.9309 170.072 34.8699 169.99 34.8832 169.902C34.8959 169.813 34.9786 169.752 35.0666 169.765C48.9889 171.818 56.5632 177.418 56.6379 177.474C56.6628 177.492 56.6809 177.517 56.6915 177.543Z" fill="#98CFF4"/>
<path d="M39.1297 170.676L36.6284 171.845C36.5479 171.883 36.4514 171.848 36.4137 171.767C36.3771 171.687 36.4111 171.59 36.4917 171.553L38.6552 170.541L37.6108 168.938C37.5615 168.863 37.5832 168.763 37.658 168.715C37.7327 168.666 37.8329 168.687 37.8817 168.762L39.1297 170.676Z" fill="#98CFF4"/>
<path d="M42.6239 166.534C42.626 166.539 42.6276 166.543 42.6287 166.548L44.2266 171.987L40.7376 173.979C40.6602 174.023 40.5616 173.996 40.5171 173.918C40.472 173.841 40.4996 173.742 40.5775 173.698L43.8443 171.833L42.3185 166.639C42.2936 166.553 42.3424 166.463 42.4283 166.438C42.5094 166.415 42.5937 166.457 42.6239 166.534Z" fill="#98CFF4"/>
<path d="M47.8136 168.066C47.8146 168.068 47.8151 168.07 47.8162 168.073L49.8817 174.018L44.8246 176.415C44.744 176.453 44.6475 176.419 44.6093 176.338C44.5717 176.254 44.6056 176.161 44.6862 176.123L49.4814 173.85L47.5114 168.179C47.4822 168.094 47.5267 168.002 47.611 167.973C47.6927 167.944 47.7817 167.986 47.8136 168.066Z" fill="#98CFF4"/>
<path d="M51.4811 167.738C51.4822 167.74 51.4827 167.742 51.4833 167.744L54.476 176.254L48.6841 179.459C48.6061 179.502 48.5075 179.474 48.4641 179.396C48.4217 179.318 48.4492 179.22 48.5271 179.176L54.0805 176.104L51.1784 167.851C51.1487 167.767 51.1933 167.675 51.277 167.645C51.3597 167.616 51.4493 167.658 51.4811 167.738Z" fill="#98CFF4"/>
<path d="M75.9619 176.51C75.9619 176.51 86.1684 172.217 86.3126 167.831C86.4568 163.446 92.2821 163.579 93.7474 161.032C95.2127 158.485 94.1779 154.816 89.3583 157.079C84.5387 159.341 84.139 159.128 81.4696 156.464C78.8003 153.8 73.3149 159.037 71.1439 161.845C68.9729 164.653 70.6503 158.236 67.1063 159.877C63.5622 161.518 61.3679 170.687 62.1287 177.619C62.8889 184.551 76.0732 182.193 77.9001 179.94C79.726 177.686 75.4715 178.656 75.9619 176.51Z" fill="#ACDAFF"/>
<path d="M86.592 166.441C86.4297 166.849 86.3295 167.307 86.312 167.831C86.1678 172.216 75.9614 176.509 75.9614 176.509C75.471 178.656 79.7255 177.685 77.8991 179.939C76.0727 182.193 62.8884 184.55 62.1276 177.618C62.0868 177.246 62.0561 176.866 62.0322 176.482C69.1739 171.051 77.6022 167.632 86.592 166.441Z" fill="#98CFF4"/>
<path d="M62.6668 179.729C62.6572 179.813 62.6912 179.901 62.7633 179.957C62.8736 180.042 63.0321 180.021 63.1174 179.911C63.206 179.796 72.2175 168.322 92.1994 159.515C92.3271 159.459 92.3854 159.31 92.3287 159.182C92.2725 159.054 92.1236 158.997 91.9958 159.053C71.8877 167.916 62.8073 179.486 62.7182 179.602C62.6885 179.641 62.6716 179.685 62.6668 179.729Z" fill="#D2EDFF"/>
<path d="M86.2569 162.109L90.5066 162.832C90.6439 162.855 90.7743 162.763 90.7976 162.625C90.8194 162.489 90.7282 162.358 90.5909 162.334L86.9138 161.709L87.8214 158.863C87.8643 158.728 87.7906 158.588 87.6576 158.545C87.5245 158.503 87.3824 158.576 87.34 158.709L86.2569 162.109Z" fill="#D2EDFF"/>
<path d="M79.2785 157.322C79.2775 157.33 79.277 157.338 79.277 157.346L79.1269 166.196L85.2051 167.748C85.3403 167.783 85.4776 167.701 85.512 167.566C85.5476 167.431 85.4649 167.294 85.3297 167.259L79.6385 165.805L79.7817 157.354C79.7838 157.215 79.673 157.1 79.5335 157.098C79.4026 157.096 79.2928 157.194 79.2785 157.322Z" fill="#D2EDFF"/>
<path d="M72.1014 161.78C72.1008 161.784 72.1003 161.788 72.1003 161.792L71.4562 171.598L80.0637 173.109C80.201 173.133 80.3319 173.041 80.3558 172.905C80.377 172.762 80.2879 172.636 80.1512 172.613L71.99 171.18L72.6039 161.824C72.613 161.686 72.508 161.565 72.3686 161.556C72.2334 161.547 72.1162 161.647 72.1014 161.78Z" fill="#D2EDFF"/>
<path d="M66.4441 162.808C66.4436 162.811 66.4436 162.815 66.4431 162.818L65.467 176.871L75.5155 179.294C75.6512 179.326 75.7875 179.243 75.8204 179.108C75.8516 178.972 75.7695 178.836 75.6343 178.803L66.0004 176.48L66.9467 162.853C66.9562 162.714 66.8518 162.593 66.7124 162.584C66.5772 162.575 66.459 162.674 66.4441 162.808Z" fill="#D2EDFF"/>
<path d="M91.5139 192.9H15.4903L13.5817 175.54H93.4224L91.5139 192.9Z" fill="#FF9900"/>
<path d="M92.0684 187.854H14.9357L15.0799 189.166H91.9242L92.0684 187.854Z" fill="#FFBC00"/>
<path d="M92.58 183.2H14.4241L14.7041 185.745H92.3001L92.58 183.2Z" fill="#FFBC00"/>
<path d="M94.4743 174.339H12.3884V178.428H94.4743V174.339Z" fill="#FFBC00"/>
<path d="M162.081 196.839H97.5168C92.9474 196.839 85.8466 193.404 86.3767 188.834L106.096 51.5735C106.626 47.0041 110.76 43.2994 115.33 43.2994L175.943 40.9365C183.314 40.9365 187.738 47.0036 187.208 51.5735L171.315 188.565C170.785 193.134 166.651 196.839 162.081 196.839Z" fill="#144182"/>
<path d="M157.324 194.437H92.7597C88.1904 194.437 84.9156 190.733 85.4458 186.163L101.339 49.1715C101.869 44.6022 106.003 40.8975 110.573 40.8975H175.137C179.707 40.8975 182.981 44.6016 182.451 49.1715L166.558 186.163C166.028 190.732 161.894 194.437 157.324 194.437Z" fill="#2099FF"/>
<path d="M157.308 191.564H93.442C89.9643 191.564 87.4725 188.745 87.876 185.268L103.616 49.5964C104.02 46.1186 107.166 43.2998 110.643 43.2998H174.509C177.987 43.2998 180.478 46.1191 180.075 49.5964L164.335 185.268C163.931 188.745 160.785 191.564 157.308 191.564Z" fill="#ACDAFF"/>
<path d="M131.176 188.151H117.864C116.323 188.151 115.208 186.889 115.387 185.348C115.565 183.807 116.973 182.546 118.514 182.546H131.827C133.368 182.546 134.483 183.807 134.304 185.348C134.125 186.889 132.717 188.151 131.176 188.151Z" fill="#2099FF"/>
<path d="M113.526 49.7754C114.421 48.9302 114.537 47.5984 113.785 46.8007C113.032 46.003 111.696 46.0415 110.8 46.8867C109.904 47.7318 109.788 49.0637 110.541 49.8614C111.294 50.6591 112.63 50.6206 113.526 49.7754Z" fill="#2099FF"/>
<path d="M118.623 49.2013C119.162 48.6921 119.232 47.8897 118.778 47.4091C118.325 46.9285 117.52 46.9516 116.98 47.4608C116.441 47.97 116.371 48.7724 116.824 49.2531C117.278 49.7337 118.083 49.7105 118.623 49.2013Z" fill="#2099FF"/>
<path d="M161.624 179.343H91.428L105.978 53.9316H176.174L161.624 179.343Z" fill="white"/>
<path d="M166.455 73.2818H111.268C109.572 73.2818 108.358 71.9076 108.555 70.2122L109.669 60.6038C109.866 58.9083 111.4 57.5342 113.095 57.5342H168.282C169.978 57.5342 171.192 58.9083 170.996 60.6038L169.881 70.2122C169.684 71.9076 168.15 73.2818 166.455 73.2818Z" fill="#E6F2FF"/>
<path d="M115.937 71.4237L116.753 64.392H117.835L120.334 69.5251H119.767L123.407 64.392H124.489L123.683 71.4237H122.439L123.02 66.3307H123.283L120.197 70.62H119.61L117.478 66.3307H117.782L117.191 71.4237H115.937ZM127.893 71.494C127.34 71.494 126.861 71.3768 126.457 71.1424C126.054 70.9013 125.751 70.5732 125.55 70.158C125.349 69.7428 125.279 69.2706 125.34 68.7416C125.402 68.2058 125.582 67.7337 125.879 67.3252C126.176 66.91 126.554 66.5852 127.013 66.3508C127.472 66.1164 127.977 65.9992 128.53 65.9992C129.09 65.9992 129.572 66.1164 129.976 66.3508C130.387 66.5852 130.69 66.9067 130.885 67.3152C131.087 67.7237 131.157 68.1991 131.094 68.7416C131.033 69.2706 130.853 69.7428 130.556 70.158C130.265 70.5732 129.886 70.9013 129.42 71.1424C128.962 71.3768 128.452 71.494 127.893 71.494ZM128.018 70.4191C128.328 70.4191 128.612 70.3522 128.87 70.2182C129.128 70.0843 129.34 69.8901 129.504 69.6356C129.675 69.3811 129.78 69.0831 129.82 68.7416C129.86 68.3933 129.824 68.0953 129.711 67.8476C129.606 67.5931 129.44 67.3989 129.213 67.2649C128.985 67.131 128.72 67.064 128.417 67.064C128.107 67.064 127.822 67.131 127.564 67.2649C127.313 67.3989 127.101 67.5931 126.93 67.8476C126.76 68.0953 126.655 68.3933 126.614 68.7416C126.575 69.0831 126.611 69.3811 126.723 69.6356C126.835 69.8901 127.001 70.0843 127.222 70.2182C127.449 70.3522 127.714 70.4191 128.018 70.4191ZM131.992 71.4237L132.614 66.0595H133.817L133.65 67.506L133.488 67.064C133.717 66.7225 134.02 66.4613 134.398 66.2805C134.784 66.093 135.213 65.9992 135.685 65.9992C136.117 65.9992 136.491 66.083 136.809 66.2504C137.133 66.4178 137.373 66.6756 137.528 67.0239C137.684 67.3654 137.73 67.8074 137.668 68.3498L137.311 71.4237H136.047L136.385 68.5105C136.44 68.0351 136.367 67.6801 136.164 67.4457C135.969 67.2114 135.669 67.0942 135.265 67.0942C134.968 67.0942 134.698 67.1544 134.455 67.275C134.212 67.3955 134.012 67.5763 133.856 67.8174C133.708 68.0518 133.612 68.3498 133.57 68.7114L133.256 71.4237H131.992ZM141.202 71.494C140.683 71.494 140.227 71.3801 139.836 71.1524C139.452 70.918 139.165 70.5966 138.977 70.1881C138.788 69.7796 138.726 69.2974 138.791 68.7416C138.855 68.1857 139.029 67.7036 139.312 67.2951C139.596 66.8866 139.956 66.5685 140.394 66.3408C140.838 66.1131 141.32 65.9992 141.839 65.9992C142.291 65.9992 142.684 66.0997 143.018 66.3006C143.352 66.4948 143.601 66.7928 143.763 67.1946C143.926 67.5964 143.97 68.1121 143.897 68.7416C143.825 69.3644 143.664 69.88 143.415 70.2885C143.166 70.6904 142.851 70.9917 142.47 71.1926C142.09 71.3935 141.667 71.494 141.202 71.494ZM141.478 70.4191C141.781 70.4191 142.059 70.3522 142.31 70.2182C142.569 70.0843 142.783 69.8901 142.954 69.6356C143.132 69.3811 143.241 69.0831 143.281 68.7416C143.321 68.3933 143.281 68.0953 143.162 67.8476C143.05 67.5931 142.88 67.3989 142.653 67.2649C142.432 67.131 142.171 67.064 141.867 67.064C141.564 67.064 141.283 67.131 141.025 67.2649C140.773 67.3989 140.559 67.5931 140.381 67.8476C140.21 68.0953 140.105 68.3933 140.065 68.7416C140.025 69.0831 140.061 69.3811 140.173 69.6356C140.292 69.8901 140.462 70.0843 140.682 70.2182C140.909 70.3522 141.175 70.4191 141.478 70.4191ZM143 71.4237L143.147 70.158L143.363 68.7315L143.427 67.3051L143.814 63.9701H145.068L144.203 71.4237H143ZM149.194 71.4237L149.32 70.3388L149.276 70.1077L149.496 68.2092C149.539 67.8409 149.46 67.5562 149.261 67.3553C149.063 67.1477 148.738 67.0439 148.286 67.0439C147.983 67.0439 147.677 67.0908 147.37 67.1846C147.069 67.2783 146.808 67.4089 146.586 67.5763L146.197 66.6622C146.512 66.4412 146.875 66.2772 147.285 66.17C147.703 66.0562 148.128 65.9992 148.559 65.9992C149.341 65.9992 149.923 66.1868 150.304 66.5618C150.693 66.9301 150.842 67.5027 150.752 68.2795L150.387 71.4237H149.194ZM147.487 71.494C147.082 71.494 146.736 71.427 146.448 71.2931C146.161 71.1524 145.948 70.9616 145.807 70.7205C145.674 70.4727 145.625 70.1948 145.661 69.8867C145.696 69.5854 145.798 69.3142 145.968 69.0731C146.144 68.832 146.405 68.6411 146.752 68.5005C147.099 68.3599 147.545 68.2895 148.091 68.2895H149.659L149.562 69.1233H148.085C147.654 69.1233 147.356 69.1936 147.191 69.3342C147.027 69.4682 146.934 69.6356 146.911 69.8365C146.884 70.0642 146.954 70.245 147.121 70.379C147.287 70.5129 147.532 70.5799 147.856 70.5799C148.166 70.5799 148.451 70.5095 148.71 70.3689C148.975 70.2283 149.178 70.0207 149.318 69.7461L149.443 70.4995C149.285 70.8142 149.037 71.0587 148.7 71.2328C148.37 71.4069 147.966 71.494 147.487 71.494ZM152.082 73.4427C151.819 73.4427 151.561 73.3992 151.308 73.3122C151.056 73.2251 150.85 73.1045 150.693 72.9505L151.306 72.0264C151.421 72.1402 151.555 72.2306 151.709 72.2976C151.863 72.3646 152.025 72.398 152.193 72.398C152.422 72.398 152.614 72.3411 152.769 72.2273C152.924 72.1134 153.077 71.9226 153.23 71.6547L153.625 70.9515L153.744 70.8008L156.336 66.0595H157.55L154.349 71.8556C154.134 72.2574 153.909 72.5755 153.672 72.8099C153.443 73.0443 153.195 73.2084 152.928 73.3021C152.667 73.3959 152.385 73.4427 152.082 73.4427ZM153.406 71.6145L151.614 66.0595H152.928L154.373 70.6904L153.406 71.6145ZM115.182 83.3438L115.939 76.8144L116.447 77.407H114.373L114.5 76.3121H117.312L116.496 83.3438H115.182ZM119.033 83.3438L119.79 76.8144L120.298 77.407H118.225L118.352 76.3121H121.163L120.348 83.3438H119.033ZM122.533 83.4141C122.303 83.4141 122.117 83.3371 121.973 83.183C121.83 83.0223 121.772 82.8214 121.8 82.5803C121.83 82.3258 121.934 82.1249 122.113 81.9776C122.292 81.8236 122.497 81.7466 122.726 81.7466C122.955 81.7466 123.142 81.8236 123.286 81.9776C123.43 82.1249 123.488 82.3258 123.458 82.5803C123.43 82.8214 123.326 83.0223 123.146 83.183C122.966 83.3371 122.762 83.4141 122.533 83.4141ZM127.043 83.4442C126.484 83.4442 125.995 83.3036 125.576 83.0223C125.163 82.741 124.86 82.3325 124.666 81.7968C124.473 81.2543 124.421 80.5981 124.51 79.8279C124.599 79.0578 124.803 78.4049 125.121 77.8691C125.441 77.3267 125.839 76.9148 126.316 76.6336C126.801 76.3523 127.323 76.2117 127.882 76.2117C128.449 76.2117 128.938 76.3523 129.35 76.6336C129.763 76.9148 130.065 77.3267 130.259 77.8691C130.459 78.4049 130.515 79.0578 130.426 79.8279C130.337 80.5981 130.129 81.2543 129.803 81.7968C129.485 82.3325 129.087 82.741 128.609 83.0223C128.132 83.3036 127.61 83.4442 127.043 83.4442ZM127.175 82.3091C127.505 82.3091 127.802 82.222 128.065 82.0479C128.329 81.8671 128.549 81.5925 128.727 81.2242C128.911 80.8559 129.036 80.3905 129.101 79.8279C129.167 79.2587 129.15 78.7933 129.051 78.4316C128.959 78.0633 128.801 77.7921 128.579 77.618C128.357 77.4372 128.081 77.3468 127.751 77.3468C127.434 77.3468 127.14 77.4372 126.87 77.618C126.607 77.7921 126.383 78.0633 126.199 78.4316C126.022 78.7933 125.901 79.2587 125.835 79.8279C125.77 80.3905 125.783 80.8559 125.875 81.2242C125.974 81.5925 126.134 81.8671 126.356 82.0479C126.585 82.222 126.858 82.3091 127.175 82.3091ZM133.848 83.4442C133.288 83.4442 132.799 83.3036 132.38 83.0223C131.967 82.741 131.664 82.3325 131.47 81.7968C131.277 81.2543 131.225 80.5981 131.314 79.8279C131.404 79.0578 131.607 78.4049 131.926 77.8691C132.245 77.3267 132.643 76.9148 133.121 76.6336C133.605 76.3523 134.127 76.2117 134.687 76.2117C135.253 76.2117 135.742 76.3523 136.154 76.6336C136.567 76.9148 136.87 77.3267 137.063 77.8691C137.264 78.4049 137.319 79.0578 137.23 79.8279C137.141 80.5981 136.933 81.2543 136.607 81.7968C136.289 82.3325 135.891 82.741 135.414 83.0223C134.936 83.3036 134.414 83.4442 133.848 83.4442ZM133.979 82.3091C134.31 82.3091 134.606 82.222 134.869 82.0479C135.133 81.8671 135.354 81.5925 135.531 81.2242C135.715 80.8559 135.84 80.3905 135.905 79.8279C135.971 79.2587 135.955 78.7933 135.855 78.4316C135.763 78.0633 135.606 77.7921 135.383 77.618C135.161 77.4372 134.885 77.3468 134.555 77.3468C134.238 77.3468 133.944 77.4372 133.674 77.618C133.411 77.7921 133.187 78.0633 133.003 78.4316C132.826 78.7933 132.705 79.2587 132.639 79.8279C132.574 80.3905 132.587 80.8559 132.679 81.2242C132.778 81.5925 132.938 81.8671 133.16 82.0479C133.389 82.222 133.663 82.3091 133.979 82.3091ZM140.01 83.3438L144.011 76.3121H145.305L147.685 83.3438H146.31L144.305 77.0052H144.831L141.365 83.3438H140.01ZM141.665 81.7164L142.138 80.6918H145.96L146.195 81.7164H141.665ZM148.586 83.3438L149.401 76.3121H150.483L152.982 81.4452H152.416L156.055 76.3121H157.137L156.332 83.3438H155.088L155.669 78.2508H155.932L152.845 82.5401H152.259L150.127 78.2508H150.43L149.84 83.3438H148.586Z" fill="#ACDAFF"/>
<path d="M118.757 90.5438H106.196L107.653 77.9824H120.215L118.757 90.5438Z" fill="#E6F2FF"/>
<path d="M135.012 90.5438H122.45L123.908 77.9824H136.47L135.012 90.5438Z" fill="#ACDAFF"/>
<path d="M151.267 90.5438H138.705L140.163 77.9824H152.725L151.267 90.5438Z" fill="#E6F2FF"/>
<path d="M167.522 90.5438H154.96L156.418 77.9824H168.98L167.522 90.5438Z" fill="#E6F2FF"/>
<path d="M116.894 106.607H104.332L105.789 94.0459H118.351L116.894 106.607Z" fill="#E6F2FF"/>
<path d="M133.149 106.607H120.587L122.044 94.0459H134.606L133.149 106.607Z" fill="#E6F2FF"/>
<path d="M149.404 106.607H136.842L138.299 94.0459H150.861L149.404 106.607Z" fill="#E6F2FF"/>
<path d="M165.659 106.607H153.097L154.554 94.0459H167.116L165.659 106.607Z" fill="#E6F2FF"/>
<path d="M115.03 122.671H102.468L103.926 110.109H116.487L115.03 122.671Z" fill="#E6F2FF"/>
<path d="M131.285 122.671H118.723L120.181 110.109H132.742L131.285 122.671Z" fill="#E6F2FF"/>
<path d="M147.54 122.671H134.978L136.436 110.109H148.997L147.54 122.671Z" fill="#E6F2FF"/>
<path d="M163.795 122.671H151.233L152.691 110.109H165.252L163.795 122.671Z" fill="#E6F2FF"/>
<path d="M113.166 138.735H100.605L102.062 126.173H114.624L113.166 138.735Z" fill="#E6F2FF"/>
<path d="M129.421 138.735H116.86L118.317 126.173H130.879L129.421 138.735Z" fill="#E6F2FF"/>
<path d="M145.676 138.735H133.114L134.572 126.173H147.134L145.676 138.735Z" fill="#E6F2FF"/>
<path d="M161.931 138.735H149.369L150.827 126.173H163.389L161.931 138.735Z" fill="#E6F2FF"/>
<path d="M110.073 164.715C110.188 163.73 111.082 162.929 112.067 162.929H123.418C124.484 162.929 125.471 162.317 125.993 161.332C126.516 160.347 126.426 159.266 125.76 158.512L121.353 153.527C120.921 153.039 120.303 152.77 119.611 152.77H105.806C105.047 152.77 104.425 152.288 104.258 151.572L103.673 149.06C103.545 148.506 103.697 147.915 104.092 147.437C104.487 146.959 105.049 146.685 105.636 146.685H124.679C125.152 146.685 125.577 146.868 125.875 147.201L133.003 155.15C133.065 154.8 133.135 154.451 133.207 154.106L126.503 146.631C126.071 146.15 125.456 145.885 124.771 145.885H105.728C104.879 145.885 104.064 146.282 103.492 146.974C102.92 147.666 102.699 148.522 102.886 149.324L103.47 151.836C103.712 152.874 104.613 153.571 105.712 153.571H119.518C119.995 153.571 120.422 153.756 120.72 154.094L125.127 159.079C125.677 159.701 125.57 160.493 125.288 161.026C125.005 161.559 124.389 162.129 123.509 162.129H112.158C110.732 162.129 109.437 163.289 109.271 164.716L108.966 167.348C108.801 168.775 109.826 169.936 111.253 169.936H123.794C124.779 169.936 125.488 170.737 125.37 171.752C125.256 172.737 124.361 173.539 123.376 173.539H98.2887L98.1959 174.34H123.283C124.71 174.34 126.005 173.179 126.174 171.722C126.339 170.296 125.314 169.135 123.887 169.135H111.346C110.361 169.135 109.652 168.333 109.766 167.348L110.073 164.715Z" fill="#E6F2FF"/>
<path d="M137.667 148.707C137.43 150.749 133.104 156.17 133.104 156.17C133.104 156.17 130.036 150.749 130.272 148.707C130.509 146.665 132.356 145.01 134.398 145.01C136.44 145.01 137.904 146.665 137.667 148.707Z" fill="#ACDAFF"/>
<path d="M135.272 149.904C136.117 149.107 136.226 147.85 135.516 147.097C134.806 146.345 133.545 146.381 132.7 147.179C131.855 147.977 131.745 149.233 132.456 149.986C133.166 150.738 134.427 150.702 135.272 149.904Z" fill="white"/>
<path d="M101.867 176.074C103.188 174.828 103.359 172.864 102.249 171.688C101.139 170.512 99.169 170.568 97.8483 171.815C96.5275 173.061 96.3566 175.025 97.4664 176.201C98.5762 177.377 100.547 177.32 101.867 176.074Z" fill="#ACDAFF"/>
<path d="M100.895 175.043C101.577 174.399 101.665 173.386 101.092 172.779C100.519 172.172 99.5021 172.201 98.8204 172.844C98.1388 173.487 98.0506 174.501 98.6235 175.108C99.1964 175.715 100.213 175.686 100.895 175.043Z" fill="white"/>
<path d="M70.7012 116.453C70.7012 116.453 77.3005 106.847 78.3465 104.561C79.3925 102.275 79.5065 100.331 77.8667 99.1438C76.227 97.9563 73.2046 97.0248 70.5332 100.789C67.8623 104.553 62.9244 116.115 62.7225 119.732C62.5205 123.349 78.8777 134.301 80.3314 135.009C81.9335 134.59 82.6132 132.198 82.6132 132.198C82.6132 132.198 72.0515 118.789 70.7012 116.453Z" fill="#FF9900"/>
<path d="M76.1156 195.927C76.1156 195.927 76.447 197.825 75.3623 200.687C74.2776 203.548 74.2177 204.452 75.3623 205.085C76.5069 205.717 77.3207 205.898 80.5138 205.085C83.7069 204.272 87.2621 202.494 87.2621 202.494C87.2621 202.494 83.7975 200.295 82.9541 199.361C82.1106 198.427 80.333 195.083 80.3632 194.601C80.3934 194.12 76.1156 195.927 76.1156 195.927Z" fill="#F79E77"/>
<path d="M84.7995 200.842C83.5144 201.699 82.2871 202.635 80.6415 202.401C79.3204 202.07 78.8253 200.749 77.9993 199.758C77.4299 199.303 76.5467 199.162 75.7822 199.389C75.674 199.794 75.5367 200.228 75.3628 200.687C74.2781 203.549 74.2182 204.453 75.3628 205.085C76.5074 205.718 77.3212 205.899 80.5143 205.085C83.7074 204.272 87.2626 202.494 87.2626 202.494C87.2626 202.494 85.9897 201.687 84.7995 200.842Z" fill="#0C2C51"/>
<path d="M114.851 97.0804L118.85 98.8018C120.175 97.1583 121.172 95.9199 121.822 95.7852C123.515 96.0121 124.241 95.2959 124.694 94.7175C125.147 94.1396 124.58 93.8083 124.654 93.5867C125.122 92.8985 124.329 92.6282 124.456 92.4654C124.947 91.8918 124.856 91.5811 124.56 91.4242C124.263 91.2673 123.764 91.1215 123.856 90.8331C123.947 90.5447 125.164 89.7759 126.222 89.2749C127.279 88.774 128.443 87.9702 127.799 87.5477C127.155 87.1252 121.147 90.0119 120.022 91.2434C118.898 92.4749 119.187 93.786 117.777 95.1427C117.265 95.6352 116.131 96.3636 114.851 97.0804Z" fill="#FFB797"/>
<path d="M80.2932 195.345C80.2932 195.345 80.5742 199.241 79.3294 202.414C78.0841 205.587 78.4457 206.993 80.6951 207.636C82.9445 208.279 84.1898 206.753 87.1221 206.833C90.0544 206.914 93.9504 206.592 94.9546 203.901C95.9587 201.21 91.2711 202.412 88.4332 201.57C85.5953 200.727 86.857 195.747 86.857 195.747L80.2932 195.345Z" fill="#FFAE83"/>
<path d="M88.5127 201.513C88.2582 202.366 90.5723 203.266 89.889 203.721C87.4121 205.538 84.4395 202.4 81.6324 201.409C81.0604 201.124 80.3786 201.114 79.7138 201.251C79.6051 201.644 79.4784 202.034 79.3294 202.414C78.0841 205.587 78.4457 206.993 80.6951 207.636C82.9445 208.279 84.1898 206.752 87.1221 206.833C90.0544 206.913 95.6008 206.358 96.6049 203.667C97.5984 201.002 91.358 202.306 88.5127 201.513Z" fill="#0F3163"/>
<path d="M96.2598 202.381C96.2439 202.444 96.2259 202.508 96.2004 202.576C95.1963 205.267 89.6499 205.823 86.7176 205.742C83.7853 205.661 82.54 207.188 80.2906 206.545C79.5187 206.325 78.9748 206.011 78.636 205.57C78.7325 206.639 79.3983 207.265 80.694 207.635C82.9435 208.278 84.1888 206.751 87.1205 206.832C90.0528 206.913 95.5992 206.357 96.6033 203.666C96.8345 203.05 96.6733 202.648 96.2598 202.381Z" fill="#0C2C51"/>
<path d="M85.0328 145.377C83.4975 144.65 82.4653 143.569 81.7957 142.374C80.4692 140.004 80.5753 137.179 81.0561 135.737C81.7792 133.568 84.6712 128.105 84.6712 128.105L77.5614 126.79C77.5614 126.79 74.3683 132.303 72.7412 136.641C71.1142 140.98 72.4401 145.558 73.2231 148.993C74.0062 152.427 75.9948 162.248 75.1513 165.923C74.3078 169.599 72.7412 175.202 73.1632 179.48C73.5852 183.757 75.6936 193.94 75.6337 196.229C76.3452 196.547 77.0418 196.655 77.6854 196.64C79.604 196.594 81.0561 195.446 81.0561 195.446C81.0561 195.446 81.538 177.912 83.3458 170.2C85.1531 162.488 86.9609 148.149 85.0328 145.377Z" fill="#144182"/>
<path d="M85.0328 145.377C83.4975 144.649 82.4653 143.569 81.7957 142.373C78.7871 140.951 80.8849 135.43 80.641 132.021C79.4498 135.312 74.8921 141.242 81.1203 148.632C83.3368 150.69 81.1733 166.841 79.2727 174.124C77.5693 180.3 78.3137 190.219 78.6148 196.53C80.0526 196.235 81.0556 195.445 81.0556 195.445C81.0556 195.445 81.5375 177.912 83.3453 170.2C85.1531 162.488 86.9609 148.148 85.0328 145.377Z" fill="#0F3163"/>
<path d="M96.4003 128.024C96.4003 128.024 98.4891 135.978 97.8465 144.493C97.204 153.008 91.5001 167.308 90.8576 170.441C90.215 173.574 89.3313 182.584 88.5281 186.635C87.7249 190.686 87.323 194.461 87.7647 195.506C85.8768 197.514 80.8557 197.273 79.7313 195.506C80.1331 187.231 79.9322 180.122 81.4988 174.538C83.0654 168.955 82.1011 167.509 82.7441 164.014C83.3867 160.52 84.0292 149.715 84.351 148.429C84.6723 147.144 81.459 146.501 80.2943 144.412C79.1296 142.324 76.7195 137.303 83.3872 127.06C90.4955 126.819 96.4003 128.024 96.4003 128.024Z" fill="#144182"/>
<path d="M96.4003 128.024C96.4003 128.024 90.4955 126.819 83.3861 127.06C83.2525 127.265 83.1285 127.465 83.0023 127.666C88.8663 127.741 93.3567 128.657 93.3567 128.657C93.3567 128.657 95.4455 136.61 94.8029 145.126C94.1604 153.641 89.6053 167.703 88.9628 170.836C88.3202 173.97 88.0658 182.571 87.2626 186.622C86.5697 190.115 86.443 194.461 86.7043 196.263C87.112 196.059 87.4778 195.812 87.7646 195.506C87.323 194.461 87.7244 190.686 88.5281 186.635C89.3312 182.584 90.215 173.575 90.8575 170.441C91.5001 167.308 97.204 153.009 97.8465 144.493C98.4891 135.977 96.4003 128.024 96.4003 128.024Z" fill="#164E91"/>
<path d="M92.7449 79.9844C92.7449 79.9844 93.3471 87.134 92.544 89.3431C91.7408 91.5523 90.9371 93.1592 90.4955 93.6008C90.0538 94.0424 87.9269 93.2392 87.5044 93.6008C87.0813 93.9623 87.1216 98.0996 87.1216 98.0996L81.2168 97.8584C81.2168 97.8584 81.8996 90.3875 82.4218 88.339C82.944 86.2905 92.1426 79.8237 92.7449 79.9844Z" fill="#FFAE83"/>
<path d="M78.7669 97.718C78.7669 97.718 83.3459 95.4283 87.0818 97.2361C90.8173 99.0434 96.6616 106.635 97.5656 108.081C98.4695 109.528 99.0717 112.781 97.5656 115.733C96.0594 118.685 96.6017 127.361 97.3848 128.868C91.0585 130.735 81.2374 129.53 76.719 127.542C79.2494 123.867 80.5753 122.481 78.7675 118.444C76.9597 114.407 74.7903 102.96 78.7669 97.718Z" fill="#FFAA00"/>
<path d="M94.7213 116.29C96.2274 113.338 95.6252 110.085 94.7213 108.639C93.8174 107.193 87.973 99.6013 84.2376 97.7935C82.9472 97.169 81.5592 97.0391 80.2911 97.1292C79.3623 97.424 78.7669 97.7187 78.7669 97.7187C74.7903 102.96 76.9591 114.408 78.7669 118.445C80.5742 122.482 79.2488 123.867 76.7184 127.543C80.5207 129.216 88.0774 130.334 94.1471 129.534C94.2791 129.498 94.4117 129.463 94.5405 129.425C93.757 127.919 93.2151 119.243 94.7213 116.29Z" fill="#FF9900"/>
<path d="M101.843 106.455C101.843 106.455 92.3086 99.7526 90.0337 98.6822C87.7588 97.6118 85.8164 97.4772 84.6113 99.1042C83.4063 100.731 82.4425 103.744 86.1779 106.455C89.9134 109.166 101.421 114.227 105.036 114.468C108.652 114.709 119.778 98.4702 120.501 97.0239C120.099 95.417 117.714 94.7119 117.714 94.7119C117.714 94.7119 104.192 105.129 101.843 106.455Z" fill="#FFBC00"/>
<path d="M86.1779 106.454C86.0512 106.362 85.942 106.275 85.8254 106.186C85.9377 106.275 86.0549 106.365 86.1779 106.454Z" fill="#FF69A6"/>
<path d="M84.378 100.677C85.5831 99.0502 87.5261 99.1854 89.8004 100.255C92.0753 101.326 101.246 107.318 101.246 107.318C103.596 105.993 117.713 94.7109 117.713 94.7109C117.713 94.7109 104.192 105.129 101.843 106.454C101.843 106.454 92.3086 99.7521 90.0337 98.6818C87.7588 97.6114 85.8163 97.4767 84.6113 99.1038C84.0478 99.8651 83.5367 100.93 83.5351 102.125C83.7037 101.633 84.0181 101.163 84.378 100.677Z" fill="#FFD815"/>
<path d="M92.3033 76.6103C89.5719 73.879 84.5106 72.8346 84.5106 72.8346C80.2158 71.3762 76.8791 75.4053 75.9147 79.0204C74.9509 82.6355 75.4249 86.8417 73.9468 91.5919C73.1993 93.907 62.5024 110.475 76.526 122.475C80.0907 124.236 82.8194 125.012 86.6725 122.039C82.6126 112.387 83.8956 103.124 84.7142 100.347C85.5057 97.661 87.1322 97.5614 88.6245 98.1159C88.6924 98.1424 88.7592 98.1684 88.8292 98.1965C88.6903 97.9245 88.5106 97.6117 88.298 97.2687C87.5462 95.0283 88.254 90.381 89.7925 88.7402C91.5998 86.812 92.4438 83.6794 92.7449 81.3897C93.1669 84.1008 92.2025 85.7878 91.5399 86.7521C94.1307 84.7641 95.0346 79.3417 92.3033 76.6103Z" fill="#144182"/>
<path d="M75.1036 112.53C73.52 101.446 77.9537 90.0449 82.0708 79.5946C83.3029 76.3914 86.8353 74.9144 90.4308 75.162C87.7392 73.5021 84.5106 72.8346 84.5106 72.8346C80.2158 71.3762 76.8791 75.4053 75.9147 79.0204C74.9509 82.6355 75.4249 86.8417 73.9468 91.5919C73.1993 93.907 62.5024 110.475 76.526 122.475C79.4079 123.899 81.7432 124.678 84.5678 123.354C83.3633 123.139 81.9531 122.352 81.6536 122.109C78.487 119.893 75.7371 116.33 75.1036 112.53Z" fill="#0F3163"/>
<path d="M160.079 122.581C160.079 122.581 154.005 104.6 159.472 99.4361C164.94 94.2719 158.154 86.9426 159.762 82.1686C161.369 77.3945 167.255 74.5582 169.822 83.3163C172.388 92.0744 173.116 92.3453 179.568 92.7488C186.019 93.1522 185.523 106.141 184.382 112.118C183.241 118.094 189.577 108.654 191.493 115.069C193.409 121.483 184.126 134.711 174.362 141.605C164.597 148.499 152.655 128.892 153.475 123.988C154.296 119.083 157.88 125.648 160.079 122.581Z" fill="#82C4E8"/>
<path d="M160.939 97.499C160.6 98.1702 160.127 98.8186 159.473 99.4362C154.005 104.6 160.08 122.582 160.08 122.582C157.88 125.648 154.296 119.084 153.476 123.987C152.656 128.891 164.598 148.499 174.363 141.605C174.887 141.235 175.41 140.843 175.929 140.438C174.797 125.1 169.617 110.396 160.939 97.499Z" fill="#6CB7D8"/>
<path d="M171.041 143.309C170.943 143.418 170.793 143.473 170.639 143.444C170.404 143.398 170.25 143.172 170.295 142.937C170.342 142.693 174.845 118.094 163.468 82.4343C163.394 82.2069 163.52 81.9625 163.748 81.8909C163.975 81.8177 164.219 81.9439 164.291 82.1714C175.741 118.057 171.192 142.854 171.144 143.1C171.129 143.182 171.092 143.253 171.041 143.309Z" fill="#98CFF4"/>
<path d="M166.882 93.0107L161.128 88.374C160.942 88.2245 160.913 87.952 161.063 87.7659C161.213 87.583 161.486 87.5507 161.671 87.7007L166.649 91.7118L169.273 87.3153C169.397 87.1075 169.661 87.0428 169.866 87.1653C170.072 87.2877 170.139 87.5533 170.016 87.7585L166.882 93.0107Z" fill="#98CFF4"/>
<path d="M180.953 96.5364C180.944 96.5465 180.934 96.5561 180.924 96.5656L169.729 106.807L160.835 100.764C160.638 100.63 160.587 100.36 160.721 100.163C160.854 99.9633 161.124 99.914 161.322 100.048L169.65 105.706L180.341 95.9268C180.517 95.7656 180.791 95.7778 180.952 95.9543C181.104 96.1203 181.101 96.3732 180.953 96.5364Z" fill="#98CFF4"/>
<path d="M183.378 110.815C183.374 110.819 183.369 110.824 183.365 110.829L171.502 122.791L159.789 113.453C159.602 113.304 159.571 113.032 159.72 112.845C159.879 112.656 160.141 112.628 160.328 112.776L171.434 121.63L182.75 110.22C182.918 110.05 183.192 110.049 183.362 110.217C183.527 110.381 183.533 110.644 183.378 110.815Z" fill="#98CFF4"/>
<path d="M188.481 119.246C188.477 119.251 188.473 119.255 188.469 119.259L171.531 136.468L157.011 126.315C156.815 126.178 156.767 125.909 156.904 125.713C157.043 125.519 157.311 125.469 157.507 125.606L171.427 135.34L187.852 118.653C188.02 118.482 188.294 118.48 188.464 118.648C188.63 118.811 188.636 119.076 188.481 119.246Z" fill="#98CFF4"/>
<path d="M157.579 162.515C157.579 162.515 144.306 155.873 144.5 149.994C144.693 144.116 136.89 143.781 135.154 140.245C133.419 136.709 135.126 131.893 141.374 135.343C147.621 138.794 148.174 138.545 151.979 135.217C155.784 131.889 162.659 139.376 165.316 143.323C167.972 147.27 166.294 138.539 170.89 141.047C175.485 143.554 177.612 156.011 175.984 165.216C174.356 174.42 156.93 170.105 154.685 166.93C152.441 163.756 158.046 165.429 157.579 162.515Z" fill="#98CFF4"/>
<path d="M144.248 148.111C144.429 148.671 144.523 149.292 144.5 149.994C144.306 155.873 157.579 162.515 157.579 162.515C158.046 165.429 152.441 163.757 154.686 166.932C156.93 170.107 174.357 174.422 175.985 165.217C176.072 164.723 176.147 164.218 176.213 163.707C167.139 155.811 156.167 150.496 144.248 148.111Z" fill="#82C4E8"/>
<path d="M175.078 167.993C175.083 168.107 175.031 168.22 174.929 168.289C174.774 168.393 174.564 168.352 174.46 168.196C174.351 168.035 163.309 151.894 137.359 138.353C137.193 138.267 137.129 138.062 137.216 137.897C137.302 137.731 137.507 137.667 137.673 137.754C163.787 151.381 174.912 167.656 175.022 167.82C175.057 167.873 175.076 167.933 175.078 167.993Z" fill="#ACDAFF"/>
<path d="M145.079 142.348L139.331 142.94C139.145 142.96 138.979 142.824 138.96 142.639C138.942 142.455 139.076 142.287 139.261 142.268L144.235 141.755L143.271 137.869C143.226 137.686 143.337 137.504 143.518 137.459C143.7 137.414 143.883 137.525 143.928 137.706L145.079 142.348Z" fill="#ACDAFF"/>
<path d="M154.834 136.559C154.835 136.57 154.835 136.58 154.834 136.591L154.255 148.442L145.988 149.982C145.805 150.016 145.628 149.896 145.594 149.712C145.559 149.527 145.681 149.351 145.865 149.317L153.605 147.875L154.159 136.558C154.168 136.371 154.327 136.228 154.513 136.237C154.688 136.245 154.826 136.386 154.834 136.559Z" fill="#ACDAFF"/>
<path d="M164.041 143.154C164.041 143.159 164.042 143.164 164.042 143.169L164.039 156.343L152.393 157.606C152.207 157.626 152.04 157.492 152.019 157.306C152.004 157.113 152.133 156.954 152.319 156.933L163.361 155.736L163.364 143.169C163.364 142.983 163.516 142.831 163.702 142.831C163.885 142.831 164.033 142.974 164.041 143.154Z" fill="#ACDAFF"/>
<path d="M171.517 145.027C171.517 145.032 171.517 145.036 171.517 145.041L171.584 163.923L157.931 166.278C157.747 166.31 157.571 166.186 157.539 166.002C157.51 165.818 157.632 165.643 157.815 165.611L170.906 163.354L170.84 145.043C170.84 144.857 170.99 144.705 171.178 144.704C171.36 144.703 171.509 144.847 171.517 145.027Z" fill="#ACDAFF"/>
<path d="M192.213 153.937C192.213 153.937 203.57 138.731 199.976 132.124C196.382 125.517 205.108 120.657 205.063 115.62C205.017 110.583 200.302 106.059 195.143 113.587C189.984 121.115 189.208 121.147 182.95 119.528C176.693 117.908 173.131 130.409 172.36 136.445C171.589 142.48 168.497 131.539 164.684 137.041C160.871 142.544 165.588 158.001 172.729 167.585C179.871 177.17 197.311 162.24 198.054 157.324C198.797 152.408 193.352 157.535 192.213 153.937Z" fill="#ACDAFF"/>
<path d="M199.184 129.827C199.297 130.57 199.547 131.334 199.976 132.124C203.57 138.731 192.213 153.937 192.213 153.937C193.352 157.535 198.797 152.407 198.054 157.324C197.311 162.24 179.871 177.171 172.729 167.586C172.346 167.071 171.971 166.536 171.602 165.99C177.441 151.761 186.93 139.392 199.184 129.827Z" fill="#98CFF4"/>
<path d="M175.358 170.238C175.417 170.371 175.543 170.471 175.698 170.49C175.935 170.521 176.152 170.353 176.182 170.116C176.213 169.869 179.571 145.087 201.458 114.723C201.598 114.529 201.555 114.258 201.36 114.119C201.166 113.979 200.895 114.023 200.756 114.217C178.731 144.774 175.355 169.758 175.323 170.007C175.313 170.089 175.326 170.168 175.358 170.238Z" fill="#D2EDFF"/>
<path d="M194.927 123.717L201.836 121.096C202.059 121.011 202.172 120.761 202.087 120.538C202.001 120.317 201.752 120.202 201.529 120.287L195.551 122.555L194.422 117.561C194.368 117.325 194.137 117.181 193.905 117.233C193.671 117.286 193.525 117.518 193.577 117.751L194.927 123.717Z" fill="#D2EDFF"/>
<path d="M180.458 122.699C180.463 122.711 180.469 122.724 180.476 122.736L187.938 135.947L198.268 132.964C198.498 132.898 198.63 132.658 198.564 132.428C198.498 132.197 198.257 132.066 198.028 132.133L188.354 134.925L181.229 122.309C181.111 122.102 180.847 122.029 180.639 122.146C180.444 122.257 180.368 122.498 180.458 122.699Z" fill="#D2EDFF"/>
<path d="M173.72 135.519C173.722 135.525 173.725 135.531 173.728 135.536L181.29 150.59L195.324 145.351C195.548 145.267 195.661 145.018 195.578 144.794C195.486 144.565 195.245 144.457 195.022 144.54L181.715 149.507L174.501 135.148C174.394 134.934 174.134 134.848 173.921 134.955C173.712 135.06 173.625 135.309 173.72 135.519Z" fill="#D2EDFF"/>
<path d="M166.251 141.949C166.253 141.955 166.256 141.96 166.258 141.965L177.016 163.583L193.971 158.44C194.199 158.371 194.329 158.13 194.26 157.9C194.188 157.673 193.948 157.543 193.72 157.612L177.465 162.543L167.033 141.58C166.927 141.366 166.667 141.279 166.453 141.385C166.244 141.489 166.156 141.739 166.251 141.949Z" fill="#D2EDFF"/>
<path d="M154.672 168.897H188.109L181.155 202H159.597L154.672 168.897Z" fill="#FF9900"/>
<path d="M185.236 182.574H156.707L157.222 186.037H184.509L185.236 182.574Z" fill="#FFBC00"/>
<path d="M184.195 187.531H157.444L157.702 189.262H183.831L184.195 187.531Z" fill="#FFBC00"/>
<path d="M189.05 168.349H153.668V173.053H189.05V168.349Z" fill="#FFBC00"/>
</svg>
