<svg width="399" height="194" viewBox="0 0 399 194" fill="none" xmlns="http://www.w3.org/2000/svg">
<path opacity="0.1" d="M346.982 192.244C313.767 195.322 279.547 194.04 209.626 190.819C170.364 189.011 91.4218 192.007 52.0176 192.244C23.2903 192.418 0 176.542 0 157.173V98.092V36.3764C0 17.0066 23.3389 0.165012 52.0176 1.3043C78.6505 2.36236 117.824 6.55098 158.66 3.98623C207.228 0.935779 299.414 -1.65631 346.982 1.3043C375.589 3.08469 399 17.0065 399 36.3764V157.173C399 176.542 375.443 189.607 346.982 192.244Z" fill="#DEEBE9"/>
<path d="M339.454 151.769C339.454 157.97 272.871 162.997 190.736 162.997C108.601 162.997 42.0182 157.97 42.0182 151.769C42.0182 145.568 108.601 140.541 190.736 140.541C272.871 140.541 339.454 145.568 339.454 151.769Z" fill="#BED5DC"/>
<path d="M73.5918 115.738C73.5918 115.738 73.4687 116.005 73.1995 116.447C73.1913 116.459 73.1843 116.472 73.177 116.484C73.1761 116.485 73.1761 116.485 73.1749 116.486C72.7032 117.253 71.8043 118.515 70.3651 119.812C69.8738 120.255 69.2083 120.6 68.4266 120.857H68.4255L68.4092 120.862C68.2421 120.916 68.0699 120.967 67.8935 121.013C67.8935 121.013 67.8935 121.013 67.8926 121.013C65.3762 121.675 61.9212 121.533 59.2081 120.813H59.2071L58.7403 120.68H58.7393C58.507 120.61 58.2817 120.537 58.0635 120.458C57.3614 120.205 56.7905 119.886 56.3269 119.532C56.2678 119.486 56.2107 119.441 56.1546 119.394C54.2732 117.839 54.3069 115.738 54.3069 115.738L73.5918 115.738Z" fill="#74A1BD"/>
<path d="M74.2105 112.562V114.861C74.2105 116.284 69.559 117.436 63.82 117.436C58.0821 117.436 53.4296 116.283 53.4296 114.861V112.562C53.4296 111.84 56.109 111.221 59.9074 110.966C61.1151 110.883 62.436 110.838 63.82 110.838C69.559 110.838 74.2105 111.609 74.2105 112.562Z" fill="#436E8E"/>
<path d="M74.2105 112.562C74.2105 112.701 74.1127 112.836 73.9271 112.964C72.8378 113.722 68.7273 114.288 63.82 114.288C62.4462 114.288 61.1325 114.243 59.9329 114.162C56.1201 113.906 53.4295 113.287 53.4295 112.562C53.4295 111.84 56.1089 111.221 59.9072 110.966C61.1149 110.883 62.4359 110.838 63.8199 110.838C69.559 110.838 74.2105 111.609 74.2105 112.562Z" fill="#060633"/>
<path d="M64.4462 88.7422C63.4494 89.2856 62.967 89.153 62.7377 88.7903C62.5083 88.4275 62.619 87.9716 63.6156 87.4283C65.4315 86.4384 66.7243 86.6171 66.7243 86.6171C66.7243 86.6171 66.2884 87.7378 64.4462 88.7422Z" fill="#2F1A31"/>
<path d="M64.3962 95.6973C63.6424 96.5111 63.1397 96.5306 62.7963 96.2563C62.4529 95.9819 62.3987 95.5173 63.1524 94.7038C64.5256 93.2215 65.8112 93.002 65.8112 93.002C65.8112 93.002 65.7893 94.1935 64.3962 95.6973Z" fill="#2F1A31"/>
<path d="M63.9355 113.799L63.7175 113.781C63.7204 113.75 63.9954 110.607 62.8583 106.004C61.8088 101.757 59.3083 95.3623 53.3535 89.0155L53.5185 88.8823C59.5059 95.264 62.0193 101.696 63.0735 105.968C64.2166 110.6 63.9385 113.767 63.9355 113.799Z" fill="#2F1A31"/>
<path d="M59.3818 96.8952L59.1976 96.7857C63.4822 90.5729 60.9003 83.0296 60.8738 82.9541L61.0817 82.8911C61.1085 82.9673 63.7235 90.6 59.3818 96.8952Z" fill="#2F1A31"/>
<path d="M56.0875 93.5993C53.8655 93.5993 52.1862 92.5661 52.1671 92.5542L52.2893 92.3857C52.3107 92.3992 54.4627 93.7199 57.0896 93.3214L57.1249 93.5219C56.7694 93.5757 56.4222 93.5993 56.0875 93.5993Z" fill="#2F1A31"/>
<path d="M63.5666 109.221C59.073 108.747 55.4314 106.712 52.743 103.174C52.6498 103.052 52.5617 102.936 52.5357 102.915C52.5359 102.916 52.5436 102.922 52.5581 102.926L52.6272 102.733C52.6886 102.752 52.7271 102.801 52.9216 103.057C55.5727 106.546 59.1624 108.552 63.5912 109.02L63.5666 109.221Z" fill="#2F1A31"/>
<path d="M57.2128 107.034L57.0015 106.981C57.7778 104.319 55.8667 100.406 55.8474 100.367L56.0461 100.282C56.0511 100.292 56.5435 101.293 56.9309 102.616C57.2899 103.841 57.6303 105.602 57.2128 107.034Z" fill="#2F1A31"/>
<path d="M53.2076 87.883C54.365 88.8526 54.4633 89.3942 54.1598 89.7066C53.8564 90.0189 53.2662 89.9838 52.1087 89.0143C50.0004 87.2483 49.5307 85.8291 49.5307 85.8291C49.5307 85.8291 51.0685 86.0911 53.2076 87.883Z" fill="#2F1A31"/>
<path d="M52.7538 91.8975C54.1722 92.4977 54.4417 92.9865 54.2538 93.3695C54.0659 93.7522 53.4917 93.8841 52.0733 93.2838C49.4896 92.1902 48.5811 90.9684 48.5811 90.9684C48.5811 90.9684 50.1323 90.7877 52.7538 91.8975Z" fill="#2F1A31"/>
<path d="M56.4994 99.7061C57.0288 100.66 56.8599 101.1 56.4572 101.293C56.0545 101.486 55.5705 101.358 55.041 100.404C54.0766 98.6659 54.3396 97.4771 54.3396 97.4771C54.3396 97.4771 55.5207 97.9427 56.4994 99.7061Z" fill="#2F1A31"/>
<path d="M58.3251 90.3635C58.5886 91.4085 58.3096 91.7973 57.8684 91.8932C57.4274 91.9891 56.9914 91.756 56.7278 90.7109C56.2474 88.8071 56.8141 87.7134 56.8141 87.7134C56.8141 87.7134 57.8378 88.4321 58.3251 90.3635Z" fill="#2F1A31"/>
<path d="M60.1064 105.958C60.0432 107.029 59.6576 107.33 59.2053 107.306C58.7529 107.283 58.405 106.946 58.4684 105.874C58.5838 103.922 59.4585 103.02 59.4585 103.02C59.4585 103.02 60.2235 103.977 60.1064 105.958Z" fill="#2F1A31"/>
<path d="M53.7311 102.993C54.4684 103.819 54.4047 104.283 54.0558 104.551C53.7068 104.82 53.2047 104.791 52.4675 103.964C51.1246 102.458 51.1073 101.245 51.1073 101.245C51.1073 101.245 52.3686 101.465 53.7311 102.993Z" fill="#2F1A31"/>
<path d="M61.5429 82.0682C61.9062 83.4759 61.6571 83.9741 61.2165 84.0721C60.7759 84.1702 60.3107 83.831 59.9475 82.4234C59.2859 79.8592 59.7637 78.4424 59.7637 78.4424C59.7637 78.4424 60.8716 79.4665 61.5429 82.0682Z" fill="#2F1A31"/>
<path d="M64.0931 114.07C64.0931 114.07 58.3946 94.3195 52.6815 95.9568C46.9686 97.594 59.6579 108.405 61.1205 114.204L64.0931 114.07Z" fill="#436E8E"/>
<path d="M63.2563 113.178C63.2563 113.178 54.537 97.33 49.0956 99.6971C43.654 102.064 57.9642 109.11 60.3145 113.798L63.2563 113.178Z" fill="#B2C9C6"/>
<path d="M61.5738 113.555C58.5929 107.314 50.7297 101.87 50.6506 101.816L50.7943 101.635C50.8737 101.69 58.7874 107.168 61.7946 113.464L61.5738 113.555Z" fill="#CCDDDB"/>
<path d="M81.2945 99.5422C81.245 99.6544 81.1942 99.7666 81.1398 99.8789C80.7834 100.62 80.3096 101.343 79.7828 101.973C79.1943 102.677 79.0722 103.442 79.1157 104.213C79.1157 104.234 79.118 104.255 79.1193 104.278C79.1966 105.425 79.6196 106.581 79.3876 107.556C79.3706 107.624 79.3514 107.693 79.3272 107.76C79.141 108.296 78.7218 108.771 77.8878 109.15C75.0939 110.42 74.648 110.316 74.399 111.43C74.3834 111.496 74.3701 111.566 74.3556 111.642C74.3168 111.854 74.2795 112.104 74.2335 112.406C74.2335 112.406 74.2866 112.744 73.9276 112.965C72.9573 113.639 69.5966 114.161 65.4118 114.268C65.3345 114.27 65.2583 114.271 65.1811 114.273C64.7364 114.283 64.282 114.288 63.8204 114.288C62.4453 114.288 61.1328 114.244 59.9328 114.162C59.6343 113.449 59.3527 112.275 59.9075 110.966C60.1105 110.486 60.4283 109.988 60.8984 109.488C63.3998 106.835 65.4107 107.301 64.9406 102.607C64.9358 102.554 64.9297 102.5 64.9237 102.445C64.9189 102.402 64.9139 102.356 64.9092 102.312C64.3267 97.2999 71.6172 99.4669 73.4396 97.7747C75.2619 96.0825 76.5029 94.186 79.7828 94.9299C82.0897 95.4541 82.1622 97.5166 81.2945 99.5422Z" fill="#CFD3A3"/>
<path d="M80.7761 95.5109C78.0317 97.7475 75.7526 99.9032 73.865 101.909C73.8034 101.974 73.7431 102.039 73.6826 102.104C70.9188 105.065 69.0156 107.691 67.7323 109.751C67.6948 109.812 67.6586 109.872 67.6222 109.93C66.235 112.188 65.6066 113.739 65.4119 114.267C65.3346 114.269 65.2584 114.271 65.1812 114.273C65.4436 113.541 66.8538 109.968 70.8923 104.985C70.9371 104.929 70.9828 104.873 71.0288 104.817C73.3189 102.016 76.433 98.7798 80.6324 95.3584L80.7761 95.5109Z" fill="#C4C695"/>
<path d="M69.207 103.581C66.2177 103.481 64.898 102.583 64.8433 102.545L64.9747 102.382C64.9876 102.391 66.3019 103.281 69.215 103.378L69.207 103.581Z" fill="#C4C695"/>
<path d="M71.0171 105.032C69.8315 104.62 68.8586 103.455 68.2036 101.663C67.7129 100.32 67.568 99.0816 67.5665 99.0692L67.784 99.0479C67.7896 99.0963 68.3677 103.895 71.0939 104.842L71.0171 105.032Z" fill="#C4C695"/>
<path d="M74.175 102.117C73.8301 102.117 73.628 102.1 73.6189 102.099L73.6407 101.897C73.6832 101.901 77.939 102.26 81.2658 99.5117L81.4109 99.6635C78.7301 101.878 75.4606 102.117 74.175 102.117Z" fill="#C4C695"/>
<path d="M79.0979 104.416C77.5919 104.215 76.6429 103.581 76.1119 103.085C75.534 102.545 75.3166 102.057 75.3075 102.036L75.5101 101.959C75.5184 101.978 76.3715 103.846 79.1291 104.215L79.0979 104.416Z" fill="#C4C695"/>
<path d="M73.1586 111.727C69.9008 111.727 67.5381 109.868 67.5117 109.847L67.6545 109.693C67.6837 109.717 70.6099 112.015 74.4092 111.429L74.4452 111.629C74.0038 111.697 73.5739 111.727 73.1586 111.727Z" fill="#C4C695"/>
<path d="M69.9247 111.044L69.7393 110.937C70.3891 109.971 71.9044 108.672 75.4325 107.976C77.531 107.561 79.3803 107.556 79.3986 107.556V107.759C79.326 107.759 72.1067 107.8 69.9247 111.044Z" fill="#C4C695"/>
<path d="M59.2073 120.813C60.1971 120.735 61.3456 120.614 62.5706 120.426C62.7357 120.401 62.9019 120.375 63.069 120.347C66.5159 119.774 70.4651 118.658 73.175 116.486C73.1883 116.476 73.2005 116.467 73.2128 116.456L73.1995 116.447L73.0527 116.342C69.131 119.51 62.5307 120.422 58.7405 120.68C58.7395 120.68 58.7395 120.68 58.7395 120.68L59.2073 120.813Z" fill="#436E8E"/>
<path d="M67.8936 121.013C67.8936 121.013 67.8936 121.013 67.8926 121.013C67.8763 121.013 67.86 121.013 67.8427 121.012C66.422 120.972 64.6599 120.813 62.5705 120.428V120.426H62.5716L62.6195 120.267C62.7713 120.296 62.921 120.322 63.0688 120.347C65.2356 120.721 67.0263 120.847 68.4256 120.857C68.4267 120.857 68.4267 120.857 68.4267 120.857L67.8936 121.013Z" fill="#436E8E"/>
<path d="M66.4617 115.738C64.5925 117.011 61.4393 118.542 56.3271 119.532C56.268 119.486 56.211 119.441 56.1549 119.394C56.64 119.302 57.1067 119.204 57.5562 119.103C57.5572 119.103 57.5572 119.103 57.5572 119.103H57.5582C57.7835 119.052 58.0056 119 58.2217 118.947C58.2227 118.947 58.2227 118.947 58.2227 118.947H58.2238C62.0243 118.02 64.5304 116.798 66.1345 115.738H66.4617Z" fill="#436E8E"/>
<path d="M61.1377 115.738C60.5476 116.83 59.4795 118.141 57.5573 119.103C57.5573 119.103 57.5573 119.103 57.5563 119.103C57.5512 119.106 57.5472 119.108 57.5421 119.111L57.6623 119.249C57.8569 119.151 58.0435 119.051 58.2218 118.947C58.2228 118.947 58.2228 118.947 58.2228 118.947C59.884 117.981 60.8339 116.759 61.373 115.738L61.1377 115.738Z" fill="#436E8E"/>
<g opacity="0.5">
<path d="M217.122 49.9418C216.896 45.056 212.507 40.9248 207.616 40.9248C200.686 40.9248 198.413 46.2336 198.14 51.1168C197.856 56.1891 202.327 59.6605 207.218 59.6605C212.109 59.6606 217.402 56.0116 217.122 49.9418Z" fill="#74A1BD"/>
<path d="M215.402 50.4532C215.402 46.5623 211.519 42.4174 207.63 42.2928C201.877 42.1086 199.543 47.9455 199.543 51.8363C199.543 55.727 203.56 58.0463 207.451 58.0463C211.341 58.0463 215.402 54.3438 215.402 50.4532Z" fill="#C4D7D4"/>
<path d="M208.463 50.3219C208.411 49.7907 207.846 49.4365 207.312 49.4365C206.779 49.4365 206.206 50.0798 206.206 50.6133C206.206 51.1472 206.779 51.5831 207.312 51.5831C207.846 51.5831 208.56 51.3066 208.463 50.3219Z" fill="#74A1BD"/>
<path d="M207.312 50.8085H207.119C207.013 50.8085 206.927 50.7228 206.927 50.6167C206.927 50.5107 206.686 50.1511 206.792 50.1511L206.899 49.9254L207.13 44.6701L206.89 44.8167C206.83 44.904 206.71 44.925 206.624 44.8659C206.537 44.8057 206.514 44.6862 206.575 44.5991L207.165 43.7432C207.213 43.6738 207.3 43.6437 207.38 43.669C207.46 43.6939 207.514 43.7684 207.514 43.8523L207.834 50.6026C207.834 50.7084 207.418 50.8085 207.312 50.8085Z" fill="#74A1BD"/>
<path d="M207.975 44.8444C207.919 44.8444 207.864 44.8203 207.826 44.7738L207.098 44.2523C207.031 44.17 207.119 43.7702 207.202 43.7032C207.283 43.6366 207.405 43.6484 207.472 43.7308L208.124 44.5315C208.191 44.6135 208.178 44.7345 208.096 44.8012C208.06 44.8302 208.018 44.8444 207.975 44.8444Z" fill="#74A1BD"/>
<path d="M203.837 51.4301C203.787 51.4301 203.737 51.4104 203.699 51.3714L203.129 50.7814C203.076 50.7259 203.061 50.6437 203.091 50.573C203.121 50.5022 203.191 50.4564 203.267 50.4564H203.268L207.794 50.2188C207.9 50.2189 207.96 50.5526 207.96 50.6586V50.8518C207.96 50.9577 207.874 51.0436 207.768 51.0436C207.662 51.0436 207.423 51.1388 207.423 51.0329L207.576 50.85L203.72 50.8411L203.975 51.1052C204.049 51.1815 204.047 51.3029 203.97 51.3764C203.933 51.4122 203.885 51.4301 203.837 51.4301Z" fill="#74A1BD"/>
<path d="M203.267 50.8396C203.225 50.8396 203.182 50.8253 203.146 50.7963C203.064 50.7292 203.052 50.6085 203.119 50.5265L203.651 49.8741C203.719 49.7918 203.84 49.7802 203.922 49.8469C204.003 49.9141 204.015 50.0348 203.949 50.1168L203.739 50.6052C203.701 50.6516 203.323 50.8396 203.267 50.8396Z" fill="#74A1BD"/>
</g>
<path d="M251.461 40.9962C251.461 41.5277 247.481 41.9582 242.572 41.9582C237.664 41.9582 233.702 42.7262 233.702 42.1948C233.702 38.3951 237.664 34.8291 242.572 34.8291C247.481 34.8291 251.461 37.5902 251.461 40.9962Z" fill="#B2C9C6"/>
<path d="M251.443 41.0502C251.466 41.4213 249.547 41.8679 246.717 42.212C246.554 42.2314 246.387 42.251 246.217 42.2704C245.123 42.3933 243.91 42.5007 242.634 42.583C241.549 42.6532 240.509 42.6986 239.546 42.7217C239.197 42.7308 238.859 42.7364 238.532 42.7393C235.685 42.7624 233.726 42.5663 233.702 42.1952C233.682 41.8752 235.109 41.4988 237.319 41.1816C237.495 41.1566 237.675 41.1316 237.861 41.1067C238.797 40.9827 239.85 40.8698 240.979 40.7764C241.477 40.7348 241.988 40.696 242.512 40.6626C242.876 40.6385 243.237 40.6182 243.59 40.6006C245.084 40.5237 246.467 40.4943 247.642 40.509C247.67 40.509 247.698 40.5099 247.725 40.5099C249.959 40.5405 251.422 40.7312 251.443 41.0502Z" fill="#C7E0DC"/>
<path d="M247.642 40.5091C247.383 41.0031 247.055 41.4544 246.671 41.8504C246.527 41.9984 246.376 42.139 246.218 42.2704C245.227 43.0956 243.956 43.5914 242.569 43.5914C241.46 43.5914 240.424 43.2732 239.546 42.7219C239.153 42.4758 238.791 42.1817 238.47 41.8496C238.247 41.6191 238.043 41.3713 237.861 41.1069C238.797 40.9829 239.85 40.87 240.979 40.7765C241.477 40.735 241.988 40.6962 242.512 40.6627C242.876 40.6386 243.237 40.6183 243.59 40.6007C245.084 40.5238 246.467 40.4942 247.642 40.5091Z" fill="white"/>
<path d="M242.572 35.4665C242.362 35.4665 242.191 35.2956 242.191 35.0847V28.7928C242.191 28.582 242.362 28.4111 242.572 28.4111C242.783 28.4111 242.954 28.5821 242.954 28.7928V35.0847C242.954 35.2956 242.783 35.4665 242.572 35.4665Z" fill="#B2C9C6"/>
<path d="M242.572 36.1133C243.183 36.1133 243.679 35.6131 243.679 34.9961C243.679 34.3791 243.183 33.8789 242.572 33.8789C241.961 33.8789 241.466 34.3791 241.466 34.9961C241.466 35.6131 241.961 36.1133 242.572 36.1133Z" fill="#B2C9C6"/>
<path d="M115.653 151.174C116.012 151.167 116.271 150.406 116.181 149.706L114.696 138.023H112.683L114.838 150.36C114.926 151.174 115.424 151.178 115.653 151.174Z" fill="#2F1A31"/>
<path d="M92.1043 151.132C91.8287 151.125 91.6309 150.365 91.7 149.665L92.8366 137.988H94.3775L92.7278 150.319C92.6607 151.132 92.2788 151.136 92.1043 151.132Z" fill="#2F1A31"/>
<path d="M101.598 145.965C101.438 145.961 101.323 145.502 101.363 145.079L102.023 138.023H102.917L101.96 145.474C101.921 145.965 101.699 145.968 101.598 145.965Z" fill="#2F1A31"/>
<path d="M135.626 151.132C135.902 151.125 136.1 150.365 136.031 149.665L134.894 137.988H133.353L135.003 150.319C135.07 151.132 135.452 151.136 135.626 151.132Z" fill="#2F1A31"/>
<path d="M138.917 137.68C138.801 137.973 138.662 138.22 138.383 138.22H111.055C110.476 138.22 88.6014 128.209 88.6014 128.209L87.8729 125.535L87.823 124.674L86.3553 99.2075H88.1588L105.568 99.2036H105.601C108.259 99.2774 110.299 100.004 111.881 101.167C118.183 105.799 117.201 117.352 118.936 122.135C119.303 123.149 119.793 123.858 120.501 124.134C121.168 124.394 121.823 124.527 122.467 124.568H122.468C126.575 124.827 130.262 121.344 134.079 123.07C135.035 123.502 135.834 124.035 136.5 124.64C141.331 129.018 139.136 137.127 138.917 137.68Z" fill="#A2BEE0"/>
<path d="M136.499 124.64C123.334 124.658 110.565 124.686 110.565 124.686L93.3957 127.76L87.8729 125.536L87.8825 124.674L88.1587 99.208L105.568 99.2041H105.601C108.258 99.2779 110.299 100.005 111.881 101.168C118.183 105.799 117.201 117.352 118.936 122.135C119.303 123.149 119.793 123.858 120.501 124.135C121.168 124.394 121.823 124.527 122.467 124.568H122.467C126.575 124.827 130.262 121.345 134.079 123.071C135.035 123.503 135.834 124.036 136.499 124.64Z" fill="#96B4E0"/>
<path d="M84.42 103.64L89.182 135.607C89.4444 137.368 90.4761 138.612 91.6598 138.595L115.281 138.257C116.885 138.234 118.184 136.268 118.185 133.845C118.186 130.066 118.518 120.69 114.687 118.696C108.335 115.388 99.9238 121.816 96.0049 119.901C92.5619 118.219 95.4792 103.948 87.546 99.4316C85.7745 98.4231 83.9812 100.834 84.42 103.64Z" fill="#7CA1CE"/>
<path d="M207.88 150.893C208.156 150.886 208.353 150.126 208.284 149.426L207.148 137.749H205.607L207.256 150.079C207.324 150.893 207.706 150.897 207.88 150.893Z" fill="#2F1A31"/>
<path d="M229.718 147.007C229.905 147.002 230.039 146.467 229.992 145.975L229.222 137.762H228.179L229.296 146.435C229.341 147.007 229.6 147.01 229.718 147.007Z" fill="#2F1A31"/>
<path d="M184.28 145.965C184.12 145.961 184.006 145.486 184.046 145.05L184.706 137.762H185.6L184.642 145.458C184.603 145.965 184.382 145.968 184.28 145.965Z" fill="#2F1A31"/>
<path d="M198.873 142.319C198.793 142.317 198.735 142.053 198.755 141.811L199.085 137.762H199.533L199.054 142.037C199.034 142.319 198.923 142.321 198.873 142.319Z" fill="#2F1A31"/>
<path d="M232.855 136.597C232.381 137.582 230.959 137.981 230.68 137.981H204.993C204.414 137.981 182.539 127.969 182.539 127.969L181.811 125.296L181.761 124.434L180.293 98.9684H182.097L199.506 98.9644H199.538C202.196 99.0381 204.237 99.7651 205.819 100.928C212.121 105.559 211.139 117.112 212.874 121.896C213.241 122.91 213.731 123.619 214.439 123.895C215.106 124.154 215.761 124.287 216.405 124.328H216.405C220.513 124.588 224.2 121.105 228.016 122.831C228.973 123.263 229.772 123.796 230.437 124.401C235.268 128.778 233.113 136.061 232.855 136.597Z" fill="#A2BEE0"/>
<path d="M230.437 124.401C217.272 124.419 204.502 124.446 204.502 124.446L187.334 127.521L181.811 125.296L181.82 124.434L182.096 98.9684L199.505 98.9644H199.538C202.196 99.0381 204.237 99.7651 205.819 100.928C212.121 105.559 211.138 117.112 212.874 121.896C213.241 122.91 213.731 123.619 214.439 123.895C215.106 124.154 215.76 124.287 216.404 124.328H216.405C220.513 124.588 224.2 121.105 228.016 122.831C228.973 123.263 229.771 123.796 230.437 124.401Z" fill="#A2BEE0"/>
<path d="M178.358 103.401L183.12 135.368C183.382 137.129 184.414 138.373 185.598 138.356L209.218 138.018C210.823 137.995 212.122 136.029 212.123 133.605C212.124 129.827 212.456 120.451 208.625 118.456C202.273 115.149 193.862 121.577 189.943 119.662C186.5 117.98 189.417 103.709 181.484 99.1924C179.712 98.1838 177.919 100.595 178.358 103.401Z" fill="#7CA1CE"/>
<path d="M164.685 151.132C164.96 151.125 165.158 150.365 165.089 149.665L163.952 137.988H162.412L164.061 150.319C164.128 151.132 164.51 151.136 164.685 151.132Z" fill="#2F1A31"/>
<path d="M186.579 148.96C186.792 148.954 186.945 148.322 186.891 147.74L186.012 138.023H184.819L186.096 148.283C186.148 148.96 186.444 148.964 186.579 148.96Z" fill="#2F1A31"/>
<path d="M143.298 151.132C143.023 151.125 142.825 150.365 142.894 149.665L144.031 137.988H145.572L143.922 150.319C143.855 151.132 143.473 151.136 143.298 151.132Z" fill="#2F1A31"/>
<path d="M159.3 145.965C159.127 145.961 159.003 145.502 159.046 145.079L159.761 138.023H160.73L159.693 145.474C159.65 145.965 159.41 145.968 159.3 145.965Z" fill="#2F1A31"/>
<path d="M189.66 137.68C189.544 137.973 189.404 138.22 189.125 138.22H161.798C161.219 138.22 139.344 128.209 139.344 128.209L138.615 125.535L138.566 124.674L137.098 99.2075H138.902L156.31 99.2036H156.343C159.001 99.2774 161.042 100.004 162.624 101.167C168.926 105.799 167.943 117.352 169.679 122.135C170.046 123.149 170.536 123.858 171.244 124.134C171.911 124.394 172.565 124.527 173.209 124.568H173.21C177.318 124.827 181.005 121.344 184.821 123.07C185.778 123.502 186.576 124.035 187.242 124.64C192.073 129.018 189.879 137.127 189.66 137.68Z" fill="#96B4E0"/>
<path d="M187.242 124.64C174.077 124.658 161.307 124.686 161.307 124.686L144.138 127.76L138.615 125.536L138.625 124.674L138.901 99.208L156.31 99.2041H156.343C159.001 99.2779 161.042 100.005 162.624 101.168C168.925 105.799 167.943 117.352 169.678 122.135C170.045 123.149 170.536 123.858 171.243 124.135C171.91 124.394 172.565 124.527 173.209 124.568H173.21C177.317 124.827 181.005 121.345 184.821 123.071C185.777 123.503 186.576 124.036 187.242 124.64Z" fill="#96B4E0"/>
<path d="M135.163 103.64L139.925 135.607C140.187 137.368 141.219 138.612 142.402 138.595L166.023 138.257C167.627 138.234 168.927 136.268 168.928 133.845C168.929 130.066 169.26 120.69 165.429 118.696C159.078 115.388 150.666 121.816 146.747 119.901C143.305 118.219 146.222 103.948 138.289 99.4316C136.517 98.4231 134.724 100.834 135.163 103.64Z" fill="#7CA1CE"/>
<path d="M270.841 140.412L267.097 52.1734C266.976 49.3227 269.048 46.9385 271.647 46.9385H313.878C316.419 46.9385 318.469 49.2222 318.432 52.0127L317.259 141.544C317.223 144.34 315.107 146.56 312.562 146.472L275.247 145.178C272.871 145.096 270.952 143.02 270.841 140.412Z" fill="#74A1BD"/>
<path d="M310.428 143.421C310.385 143.421 310.341 143.42 310.297 143.419L277.244 142.208C275.098 142.129 273.339 140.124 273.239 137.642L269.923 55.0037C269.865 53.5631 270.364 52.1835 271.291 51.2184C272.051 50.427 273.034 49.9912 274.058 49.9912H311.466C312.47 49.9912 313.438 50.4115 314.192 51.1748C315.108 52.1025 315.624 53.4423 315.606 54.8501L314.567 138.7C314.55 140.111 313.999 141.435 313.057 142.332C312.316 143.037 311.387 143.421 310.428 143.421ZM274.058 50.2024C273.092 50.2024 272.163 50.6153 271.443 51.3648C270.556 52.2886 270.079 53.6119 270.134 54.9954L273.45 137.634C273.546 140.006 275.215 141.922 277.251 141.997L310.304 143.208C311.252 143.242 312.178 142.877 312.911 142.179C313.813 141.32 314.339 140.052 314.356 138.697L315.394 54.8476C315.411 53.4958 314.918 52.2114 314.041 51.3236C313.327 50.6007 312.413 50.2027 311.466 50.2027H274.058V50.2024Z" fill="#C4D7D4"/>
<path d="M274.376 92.3222C274.376 91.2473 275.169 90.376 276.148 90.376C277.126 90.376 277.92 91.2473 277.92 92.3222C277.92 93.3971 277.126 94.2683 276.148 94.2683C275.169 94.2685 274.376 93.3971 274.376 92.3222Z" fill="#C4D7D4"/>
<path d="M304.781 68.8125L280.821 69.6708C280.151 69.6948 279.596 69.1047 279.596 68.3687V62.85C279.596 62.1366 280.119 61.5559 280.768 61.5474L304.192 61.2359C304.799 61.228 305.314 61.724 305.385 62.3857L305.92 67.3575C306.002 68.1154 305.475 68.7875 304.781 68.8125Z" fill="#C4D7D4"/>
<path d="M297.334 66.8123H287.777C287.567 66.8123 287.243 66.5716 287.215 66.3427C287.158 65.8731 287.566 65.7388 287.777 65.7388L297.334 65.9724C297.544 65.9724 297.717 66.1613 297.717 66.3923C297.717 66.6234 297.545 66.8123 297.334 66.8123Z" fill="#74A1BD"/>
<path d="M296.14 64.8405H288.926C288.767 64.8405 288.523 64.647 288.502 64.4632C288.459 64.0858 288.767 63.978 288.926 63.978L296.14 64.1655C296.299 64.1655 296.428 64.3175 296.428 64.503C296.428 64.6887 296.299 64.8405 296.14 64.8405Z" fill="#74A1BD"/>
<path d="M80.3299 123.24H51.7171L52.9732 151.11H80.3299V123.24Z" fill="#7CA1CE"/>
<path d="M82.461 121.182H50.5515L50 124.165L82.461 124.666V121.182Z" fill="#96B4E0"/>
<path d="M75.9334 146.954H56.4894C55.8968 146.954 55.4032 146.531 55.3546 145.983L54.7176 138.797C54.6631 138.181 55.1868 137.653 55.8524 137.653H75.9333C76.5621 137.653 77.0718 138.127 77.0718 138.711V145.896C77.072 146.48 76.5622 146.954 75.9334 146.954Z" fill="#96B4E0"/>
<path d="M75.9334 135.559H56.4894C55.8968 135.559 55.4032 135.137 55.3546 134.589L54.7176 127.403C54.6631 126.787 55.1868 126.259 55.8524 126.259H75.9333C76.5621 126.259 77.0718 126.733 77.0718 127.317V134.502C77.072 135.086 76.5622 135.559 75.9334 135.559Z" fill="#96B4E0"/>
<path d="M57.613 151.11L57.2904 152.493C57.1873 153.218 56.594 153.223 56.3229 153.218C55.8956 153.212 55.5881 152.534 55.6962 151.909L55.8309 151.109L57.613 151.11Z" fill="#2F1A31"/>
<path d="M76.1025 151.11L76.4252 152.493C76.5282 153.218 77.1218 153.223 77.3928 153.218C77.82 153.212 78.1276 152.534 78.0195 151.909L77.8849 151.109L76.1025 151.11Z" fill="#2F1A31"/>
<path d="M65.7616 128.864C65.4318 128.864 65.1173 128.738 64.9405 128.536C64.7969 128.372 64.7475 128.168 64.7975 127.946C64.9194 127.405 65.2888 127.069 65.7615 127.069C66.2806 127.069 66.8176 127.371 66.8176 127.875C66.8179 128.361 66.4228 128.864 65.7616 128.864ZM65.0099 127.987C64.9732 128.15 65.0065 128.292 65.109 128.409C65.2454 128.565 65.4956 128.662 65.7617 128.662C66.2871 128.662 66.6011 128.262 66.6011 127.875C66.6011 127.497 66.1744 127.27 65.7617 127.27C65.2139 127.27 65.0478 127.819 65.0099 127.987Z" fill="#2F1A31"/>
<path d="M65.8078 129.932H65.7885C65.6483 129.932 65.5336 129.817 65.5336 129.677V128.749C65.5336 128.609 65.6483 128.494 65.7885 128.494H65.8078C65.9481 128.494 66.0628 128.609 66.0628 128.749V129.677C66.0628 129.817 65.9481 129.932 65.8078 129.932Z" fill="#2F1A31"/>
<path d="M65.7616 140.542C65.4318 140.542 65.1173 140.416 64.9405 140.214C64.7969 140.05 64.7475 139.846 64.7975 139.624C64.9194 139.083 65.2887 138.747 65.7615 138.747C66.2806 138.747 66.8176 139.049 66.8176 139.553C66.8179 140.039 66.4228 140.542 65.7616 140.542ZM65.0099 139.665C64.9732 139.828 65.0065 139.97 65.109 140.087C65.2454 140.243 65.4956 140.34 65.7617 140.34C66.2871 140.34 66.6011 139.94 66.6011 139.553C66.6011 139.175 66.1744 138.948 65.7617 138.948C65.2139 138.948 65.0478 139.497 65.0099 139.665Z" fill="#2F1A31"/>
<path d="M65.8078 141.61H65.7885C65.6483 141.61 65.5336 141.495 65.5336 141.355V140.427C65.5336 140.287 65.6483 140.172 65.7885 140.172H65.8078C65.9481 140.172 66.0628 140.287 66.0628 140.427V141.355C66.0628 141.495 65.9481 141.61 65.8078 141.61Z" fill="#2F1A31"/>
<path d="M299.969 107.683C299.677 107.764 299.505 108.07 299.586 108.362L300.853 112.888C300.934 113.18 301.24 113.352 301.532 113.27C301.823 113.189 301.995 112.883 301.913 112.592L300.647 108.065C300.566 107.773 300.26 107.601 299.969 107.683Z" fill="#F7B686"/>
<path d="M301.326 107.304C301.034 107.385 300.863 107.69 300.944 107.982L302.36 113.045C302.442 113.336 302.747 113.508 303.039 113.427C303.331 113.345 303.502 113.04 303.421 112.748L302.004 107.685C301.923 107.394 301.618 107.222 301.326 107.304Z" fill="#F7B686"/>
<path d="M300.954 104.567L300.839 104.725C300.624 105.022 300.692 105.44 300.988 105.655L303.879 107.745C304.176 107.959 304.594 107.892 304.809 107.595L304.923 107.436C305.138 107.14 305.071 106.721 304.774 106.507L301.883 104.417C301.587 104.203 301.168 104.27 300.954 104.567Z" fill="#F7B686"/>
<path d="M302.683 106.924C302.392 107.005 302.22 107.311 302.301 107.602L303.437 111.66C303.518 111.952 303.823 112.124 304.115 112.042C304.407 111.961 304.579 111.655 304.497 111.364L303.362 107.306C303.28 107.014 302.975 106.842 302.683 106.924Z" fill="#F7B686"/>
<path d="M298.326 105.363C298.326 105.363 297.522 108.405 298.871 110.188C299.338 110.805 303.304 109.578 303.46 108.725C303.616 107.872 302.582 105.206 302.582 105.206L298.326 105.363Z" fill="#F7B686"/>
<path d="M298.619 108.056C298.328 108.138 298.157 108.443 298.238 108.734L299.371 112.783C299.452 113.074 299.757 113.246 300.048 113.164C300.339 113.083 300.511 112.778 300.429 112.487L299.296 108.437C299.215 108.147 298.91 107.975 298.619 108.056Z" fill="#F7B686"/>
<path d="M303.448 105.525C303.448 99.3836 303.927 90.56 306.207 83.3996C306.735 81.7405 306.961 81.115 307.406 80.1948C307.765 79.4544 306.869 77.9798 305.609 77.3522C304.426 76.7634 302.692 77.0346 302.448 77.4014C302.031 78.0255 301.632 79.1848 301.013 81.0241C298.864 87.4152 297.963 95.5009 298.234 105.795L303.448 105.525Z" fill="#F7B686"/>
<path d="M312.402 148.221C312.402 148.221 312.358 149.96 311.181 150.45C310.004 150.941 306.594 151.384 307.869 152.502C308.6 153.143 312.045 152.729 313.018 152.729C313.991 152.729 314.904 153.153 315.627 152.502C316.422 151.785 315.627 148.221 315.627 148.221C315.627 148.221 314.788 148.658 314.033 148.638C312.945 148.61 312.402 148.221 312.402 148.221Z" fill="#2F1A31"/>
<path d="M302.249 95.7354C302.249 95.7354 302.014 103.584 304.519 118.641C306.327 129.51 308.462 140.464 309.509 145.715C309.884 147.593 311.463 148.967 313.336 149.042L314.342 149.082C316.366 149.163 318.009 147.424 317.861 145.357L315.321 109.831L314.695 98.1381L302.249 95.7354Z" fill="#436E8E"/>
<path d="M323.547 148.221C323.547 148.221 323.503 149.96 322.327 150.45C321.15 150.941 317.74 151.384 319.014 152.502C319.745 153.143 323.191 152.729 324.163 152.729C325.136 152.729 326.05 153.153 326.772 152.502C327.568 151.785 326.772 148.221 326.772 148.221C326.772 148.221 325.933 148.658 325.178 148.638C324.09 148.61 323.547 148.221 323.547 148.221Z" fill="#2F1A31"/>
<path d="M313.394 95.7354C313.394 95.7354 313.159 103.584 315.664 118.641C317.472 129.51 319.607 140.464 320.654 145.715C321.029 147.593 322.609 148.967 324.481 149.042L325.487 149.082C327.512 149.163 329.155 147.424 329.007 145.357L326.466 109.831L325.84 98.1381L313.394 95.7354Z" fill="#436E8E"/>
<path d="M325.337 77.5278C325.337 77.5278 324.085 72.5644 314.845 72.514C301.52 72.4413 302.754 84.6848 301.521 103.291C301.521 103.291 314.646 101.435 327.077 104.104C327.077 104.104 328.23 85.1117 325.337 77.5278Z" fill="#CED891"/>
<path d="M328.747 76.8164L322.713 80.1554C322.713 80.1554 309.499 81.3555 305.991 80.7775C302.483 80.1995 301.521 77.6237 301.521 77.6237C301.521 77.6237 305.257 73.7581 311.607 72.7261C312.204 72.6284 312.822 72.5566 313.464 72.5148C314.541 72.4455 315.62 72.4599 316.674 72.5787C324.722 73.4855 328.747 76.8164 328.747 76.8164Z" fill="#CED891"/>
<path d="M316.115 71.3782L315.418 69.1273L315.215 68.4719L314.021 64.6187L313.864 68.4517L313.77 70.7522L313.74 71.4806C313.72 71.9748 313.419 72.0789 313.052 72.5085C312.903 72.6825 311.953 73.7379 313.032 74.2147C314.376 74.8088 316.889 73.9093 317.844 72.7312C317.837 72.7293 316.341 72.1058 316.115 71.3782Z" fill="#F7B686"/>
<path d="M313.052 72.5083C313.052 72.5083 307.714 83.5383 308.195 93.547C308.676 103.556 308.763 123.661 308.763 123.661C308.763 123.661 303.621 125.322 299.855 122.41C299.855 122.41 299.671 85.0471 303.825 77.5882L313.052 72.5083Z" fill="#96A7E2"/>
<path d="M310.949 63.1719C310.949 63.1719 310.706 64.1046 310.949 65.274C311.193 66.4434 312.382 63.5689 312.382 63.5689L310.949 63.1719Z" fill="#56335B"/>
<path d="M310.808 65.6111C311.105 63.3501 312.865 61.7168 314.74 61.963C316.616 62.2093 317.895 64.2417 317.598 66.5026C317.301 68.7636 315.541 70.3969 313.665 70.1507C311.79 69.9046 310.511 67.8722 310.808 65.6111Z" fill="#F7B686"/>
<path d="M317.684 65.3207L316.026 65.1485C315.662 65.1109 315.328 64.9151 315.131 64.6063C314.792 64.0748 314.383 63.8018 312.837 63.86C310.879 63.9334 309.586 62.7664 309.375 61.7417C309.159 60.6962 310.161 59.9873 311.144 60.4857C312.127 60.9843 311.705 59.7618 312.651 59.632C314.418 59.3895 314.749 60.7516 316.196 60.7074C318.093 60.6493 321.491 62.0908 319.879 65.4302L317.684 65.3207Z" fill="#2F1A31"/>
<path d="M314.023 65.8839C314.005 65.8726 313.993 65.8534 313.991 65.8309C313.988 65.7927 314.016 65.7591 314.054 65.756C314.076 65.7541 314.594 65.6616 314.854 66.2115C314.87 66.2461 314.857 66.2875 314.823 66.3046C314.788 66.3217 314.754 66.3032 314.73 66.2735C314.488 65.9749 314.084 65.893 314.066 65.8944C314.05 65.8956 314.035 65.8916 314.023 65.8839Z" fill="#060633"/>
<path d="M314.324 66.7742C314.28 66.934 314.151 67.0377 314.035 67.0062C313.919 66.9747 313.86 66.8194 313.904 66.6596C313.947 66.4998 314.077 66.3958 314.193 66.4276C314.309 66.4592 314.367 66.6144 314.324 66.7742Z" fill="#060633"/>
<path d="M311.455 65.678C311.439 65.675 311.425 65.6631 311.417 65.6433C311.405 65.6102 311.417 65.5682 311.444 65.5493C311.46 65.5384 311.816 65.2407 312.152 65.6298C312.173 65.6544 312.174 65.6971 312.153 65.7269C312.133 65.7565 312.102 65.7541 312.077 65.7372C311.821 65.5675 311.502 65.6606 311.489 65.6696C311.478 65.6774 311.466 65.6798 311.455 65.678Z" fill="#060633"/>
<path d="M312.088 66.3895C312.108 66.5538 312.028 66.6991 311.909 66.714C311.79 66.729 311.676 66.6077 311.656 66.4435C311.635 66.2791 311.715 66.1338 311.835 66.1189C311.954 66.104 312.067 66.2252 312.088 66.3895Z" fill="#060633"/>
<path d="M319.879 65.4302C319.879 65.4302 318.735 67.9004 317.111 68.0815C317.111 68.0815 318.424 66.1989 315.657 65.0519C315.657 65.0519 318.197 64.6522 319.879 65.4302Z" fill="#56335B"/>
<path d="M317.591 66.7933C317.244 67.0141 316.802 66.9419 316.605 66.6316C316.408 66.3213 316.529 65.891 316.876 65.67C317.223 65.449 317.665 65.5213 317.862 65.8316C318.059 66.1419 317.938 66.5725 317.591 66.7933Z" fill="#F7B686"/>
<path d="M315.657 65.0522C315.657 65.0522 315.879 67.1251 315.457 67.5169C315.035 67.9088 312.249 68.0775 310.949 67.5749C310.928 68.9063 311.866 70.0816 313.179 70.3022C313.613 70.3752 314.063 70.3757 314.509 70.2976C315.419 70.1383 316.304 69.762 316.679 68.9178C316.793 68.6609 316.461 67.0805 316.461 67.0805C316.461 67.0805 316.336 66.1528 316.876 65.6704C316.876 65.6704 316.253 65.1104 315.657 65.0522Z" fill="#56335B"/>
<path d="M311.635 68.3223C311.635 68.3223 312.703 68.6112 313.869 68.4983C313.869 68.4983 313.698 69.5783 312.518 69.3632C311.832 69.238 311.635 68.3223 311.635 68.3223Z" fill="white"/>
<path d="M311.354 60.3229C311.345 60.3229 311.335 60.3228 311.326 60.3224L311.328 60.2291C311.784 60.2412 311.82 59.8819 311.821 59.8667L311.914 59.8752C311.914 59.8797 311.868 60.3229 311.354 60.3229Z" fill="#2F1A31"/>
<path d="M312.282 63.3112C312.195 63.2859 310.147 62.6786 310.058 61.5739C310.032 61.2548 310.088 61.0407 310.229 60.9195C310.453 60.7263 310.841 60.8169 311.184 60.8966C311.235 60.9086 311.284 60.92 311.332 60.9303L311.322 60.976C311.274 60.9657 311.224 60.9541 311.173 60.9422C310.842 60.8648 310.466 60.7772 310.259 60.9549C310.131 61.0659 310.08 61.2672 310.104 61.5704C310.149 62.1286 310.74 62.5595 311.228 62.8225C311.761 63.1098 312.289 63.265 312.295 63.2667L312.282 63.3112Z" fill="white"/>
<path d="M316.385 61.1362C314.748 61.1362 313.953 60.2077 313.945 60.1974L313.98 60.1675C313.99 60.1791 314.97 61.3228 317.003 61.0469L317.009 61.0931C316.789 61.1228 316.581 61.1362 316.385 61.1362Z" fill="white"/>
<path d="M303.898 80.3266L303.751 80.2863C304.14 78.8784 305.444 77.1206 305.457 77.103L305.579 77.1939C305.566 77.2111 304.279 78.9467 303.898 80.3266Z" fill="#2F1A31"/>
<path d="M316.087 121.707C316.076 121.643 315.046 115.253 314.34 112.975C313.64 110.717 310.628 108.82 310.597 108.801L310.678 108.672C310.709 108.691 313.769 110.619 314.485 112.93C315.194 115.219 316.226 121.619 316.237 121.683L316.087 121.707Z" fill="#2F1A31"/>
<path d="M316.876 72.207C316.876 72.207 313.972 75.8091 314.203 84.7515C314.434 93.6939 317.871 123.661 317.871 123.661H332.176C332.176 123.661 332.276 91.0736 326.866 80.3059C326.866 80.3059 320.826 72.9556 316.876 72.207Z" fill="#96A7E2"/>
<path d="M316.876 72.207C316.876 72.207 324.74 72.9607 328.747 76.8159C332.755 80.6712 342.85 102.704 313.586 104.103C313.586 104.103 315.684 98.7155 313.586 93.3952C313.586 93.3952 320.606 93.8607 321.862 91.6693C323.117 89.4779 316.162 76.7035 316.162 76.7035L316.876 72.207Z" fill="#96A7E2"/>
<path d="M314.92 99.2817C315.142 103.288 314.043 104.104 313.586 104.104C313.13 104.104 312.76 101.707 312.76 98.7496C312.76 95.7927 313.13 93.3955 313.586 93.3955C314.043 93.3955 314.757 96.3291 314.92 99.2817Z" fill="#2F1A31"/>
<path d="M313.595 104.159C313.59 104.159 313.587 104.159 313.586 104.159C313.555 104.159 313.53 104.134 313.531 104.103C313.531 104.073 313.556 104.049 313.586 104.049C313.586 104.049 313.59 104.049 313.595 104.049C313.934 104.049 323.567 103.98 330.803 97.9318C330.826 97.9122 330.861 97.9154 330.881 97.9388C330.901 97.9624 330.898 97.9973 330.874 98.0171C323.608 104.09 313.939 104.159 313.595 104.159Z" fill="#2F1A31"/>
<path d="M314.312 93.4707C313.902 93.4707 313.637 93.4544 313.582 93.4506C313.552 93.4485 313.529 93.4222 313.531 93.3916C313.533 93.3613 313.557 93.3381 313.59 93.3402C313.908 93.3617 321.412 93.8143 323.13 88.9057C323.589 87.5963 322.867 84.7027 322.86 84.6736C322.853 84.6438 322.871 84.6138 322.9 84.6063C322.93 84.5985 322.96 84.6168 322.968 84.6465C322.998 84.7666 323.705 87.6015 323.235 88.9424C321.786 93.0817 316.314 93.4707 314.312 93.4707Z" fill="#2F1A31"/>
<path d="M313.052 72.5083C313.052 72.5083 304.738 73.0247 301.521 77.6234C298.304 82.2223 297.122 105.795 297.122 105.795C297.122 105.795 298.461 108.162 301.521 106.685C304.581 105.208 307.486 86.8932 307.486 86.8932L305.984 78.7271L309.75 75.0445L313.052 72.5083Z" fill="#96A7E2"/>
<path d="M310.055 105.598L298.119 104.292C297.392 104.212 296.789 103.695 296.599 102.989L292.402 87.4042C292.122 86.3639 292.826 85.3159 293.895 85.1819L305.818 83.6873C306.722 83.5739 307.565 84.1638 307.769 85.0521L311.978 103.438C312.251 104.627 311.269 105.73 310.055 105.598Z" fill="#2F1A31"/>
<path d="M295.692 84.4041C295.692 84.4041 295.768 85.5883 296.379 85.6264C296.99 85.6647 301.726 85.359 301.726 85.2062C301.726 85.0535 301.535 83.8971 300.962 83.6733C300.39 83.4493 295.582 83.8224 295.692 84.4041Z" fill="#E28569"/>
<path d="M313.739 99.8422C313.617 100.21 313.223 100.414 312.851 100.305C311.595 99.9358 310.269 99.4667 308.868 98.8844C308.185 98.6007 310.724 92.4074 311.311 92.7606C311.881 93.1036 312.542 93.3692 313.259 93.5648C313.418 93.6083 313.557 93.7104 313.635 93.8564C314.156 94.8409 314.375 97.9238 313.739 99.8422Z" fill="#F7B686"/>
<path d="M311.311 92.7607C311.311 92.7607 310.905 89.5759 309.355 88.5137C307.804 87.4516 305.021 87.2667 305.842 88.1292C306.663 88.9918 308.017 89.8039 308.017 89.8039C308.017 89.8039 305.043 88.2047 304.97 89.062C304.898 89.9194 307.497 91.2855 307.497 91.2855C307.497 91.2855 303.807 89.6645 304 90.4965C304.194 91.3288 307.006 92.5406 307.006 92.5406C307.006 92.5406 303.512 91.1693 303.76 92.1309C304.007 93.0922 306.654 93.2454 306.581 94.1025C306.508 94.9601 306.509 98.3905 308.868 98.8841L311.311 92.7607Z" fill="#F7B686"/>
<path d="M309.077 90.8351C309.018 90.8351 308.963 90.795 308.948 90.7347C308.821 90.2405 307.98 89.9323 307.972 89.9292C307.903 89.9042 307.867 89.828 307.892 89.7588C307.916 89.6894 307.993 89.6534 308.062 89.6783C308.102 89.6926 309.044 90.0374 309.206 90.6684C309.225 90.7398 309.182 90.8124 309.11 90.8308C309.099 90.8336 309.088 90.8351 309.077 90.8351Z" fill="#E08B65"/>
<path d="M308.763 92.4908C308.713 92.4908 308.666 92.4629 308.643 92.4153C308.3 91.7041 307.463 91.4146 307.454 91.4116C307.385 91.3881 307.347 91.3123 307.371 91.2425C307.394 91.1728 307.47 91.1353 307.54 91.1589C307.579 91.1721 308.492 91.4883 308.883 92.2993C308.915 92.3657 308.887 92.4454 308.821 92.4774C308.802 92.4865 308.782 92.4908 308.763 92.4908Z" fill="#E08B65"/>
<path d="M308.195 93.6808C308.131 93.6808 308.074 93.6347 308.063 93.5696C307.988 93.1245 307.242 92.7666 306.961 92.6662C306.892 92.6414 306.856 92.5651 306.88 92.4956C306.905 92.4265 306.982 92.3903 307.051 92.415C307.098 92.4318 308.21 92.8365 308.326 93.5252C308.339 93.598 308.29 93.6667 308.217 93.6788C308.209 93.6803 308.202 93.6808 308.195 93.6808Z" fill="#E08B65"/>
<path d="M300.108 107.226C300.108 107.226 300.106 107.226 300.105 107.226C300.075 107.224 300.051 107.199 300.052 107.168L300.225 102.839C300.226 102.808 300.246 102.786 300.282 102.786C300.313 102.787 300.337 102.813 300.335 102.843L300.163 107.173C300.162 107.202 300.137 107.226 300.108 107.226Z" fill="#2F1A31"/>
<path d="M317.465 84.8209C317.4 84.8209 317.336 84.7927 317.292 84.7384C317.216 84.6431 317.23 84.5035 317.326 84.4266C319.099 82.9976 320.235 80.7821 319.967 79.2732C319.825 78.4696 319.309 77.9115 318.434 77.6149C317.935 77.4451 317.51 77.4921 317.135 77.7584C316.477 78.2257 315.978 79.3777 315.693 81.0899C315.472 82.4113 315.46 83.5976 315.46 83.6096C315.459 83.7313 315.36 83.8294 315.239 83.8294C315.238 83.8294 315.238 83.8294 315.237 83.8294C315.115 83.8283 315.016 83.7285 315.017 83.6061C315.019 83.4054 315.078 78.6766 316.878 77.3972C317.37 77.0476 317.941 76.9799 318.577 77.1952C319.601 77.5431 320.233 78.2348 320.403 79.196C320.702 80.8791 319.525 83.2239 317.604 84.7718C317.563 84.8049 317.514 84.8209 317.465 84.8209Z" fill="#2F1A31"/>
<path d="M314.777 83.4019C314.89 83.1469 315.189 83.0324 315.444 83.1459C315.699 83.2594 315.814 83.5583 315.7 83.8132C315.587 84.0682 315.288 84.1829 315.033 84.0693C314.778 83.9557 314.663 83.657 314.777 83.4019Z" fill="#2F1A31"/>
<path d="M317.14 84.4547C317.253 84.1996 317.552 84.085 317.807 84.1987C318.062 84.3122 318.177 84.6109 318.063 84.866C317.95 85.121 317.651 85.2357 317.396 85.1222C317.141 85.0084 317.026 84.7098 317.14 84.4547Z" fill="#2F1A31"/>
<path d="M307.093 78.7271C307.093 78.1184 307.586 77.625 308.195 77.625C308.803 77.625 309.297 78.1184 309.297 78.7271C309.297 79.3357 308.803 79.8289 308.195 79.8289C307.586 79.8289 307.093 79.3357 307.093 78.7271Z" fill="#2F1A31"/>
<path d="M308.195 78.9489C308.186 78.9489 308.177 78.9484 308.168 78.9472C308.047 78.9328 307.96 78.8223 307.975 78.7009C307.981 78.6524 308.124 77.4985 308.664 76.1459C309.387 74.3374 310.483 73.0519 311.835 72.4283C311.945 72.3767 312.077 72.4254 312.129 72.5366C312.18 72.6477 312.132 72.7792 312.02 72.8305C308.991 74.2286 308.42 78.7087 308.415 78.7536C308.401 78.8664 308.306 78.9489 308.195 78.9489Z" fill="#2F1A31"/>
<path d="M318.505 77.6266C318.465 77.6266 318.423 77.6154 318.386 77.5918C318.283 77.5261 318.253 77.3891 318.319 77.286C320.015 74.6279 318.031 72.45 317.945 72.3587C317.862 72.2693 317.867 72.1293 317.956 72.0458C318.045 71.9621 318.185 71.9665 318.269 72.0557C318.292 72.0805 320.576 74.5714 318.692 77.5241C318.65 77.5904 318.578 77.6266 318.505 77.6266Z" fill="#2F1A31"/>
<path d="M108.904 69.0232L69.5728 70.5729C66.832 70.681 64.5799 68.432 64.6841 65.6911L65.5707 42.3712C65.6687 39.7942 67.822 37.776 70.3999 37.845L108.845 38.8735C111.394 38.9416 113.426 41.0281 113.426 43.5785V64.3199C113.425 66.8474 111.429 68.9236 108.904 69.0232Z" fill="#C4D7D4"/>
<path d="M108.113 65.5752L94.9747 66.3828C94.0591 66.4392 93.3067 65.2674 93.3414 63.8393L93.6377 51.6891C93.6703 50.3466 94.3898 49.295 95.251 49.331L108.093 49.8669C108.945 49.9025 109.624 50.9894 109.624 52.3182V63.1248C109.624 64.4417 108.957 65.5234 108.113 65.5752Z" fill="#B2C9C6"/>
<path d="M104.393 44.8968H93.897C93.6659 44.8968 93.3104 44.6559 93.2798 44.4272C93.217 43.9575 93.6653 43.8232 93.8963 43.8232L104.393 44.0567C104.624 44.0567 104.813 44.2458 104.813 44.4769C104.813 44.7078 104.624 44.8968 104.393 44.8968Z" fill="#B2C9C6"/>
<path d="M104.393 46.9726H93.897C93.6659 46.9726 93.3104 46.7319 93.2798 46.5028C93.217 46.0333 93.6653 45.8989 93.8963 45.8989L104.393 46.1327C104.624 46.1327 104.813 46.3215 104.813 46.5526C104.813 46.7836 104.624 46.9726 104.393 46.9726Z" fill="#B2C9C6"/>
<path d="M101.667 42.9245H93.7442C93.5697 42.9245 93.3017 42.7313 93.2786 42.5472C93.231 42.1698 93.5693 42.062 93.7438 42.062L101.667 42.2496C101.841 42.2496 101.984 42.4015 101.984 42.5871C101.984 42.7727 101.841 42.9245 101.667 42.9245Z" fill="#B2C9C6"/>
<path d="M85.8001 60.1206H71.9606C71.656 60.1206 71.1874 59.8798 71.1469 59.6509C71.0638 59.1813 71.6551 59.0469 71.9597 59.0469L85.8001 59.2805C86.1047 59.2805 86.354 59.4694 86.354 59.7007C86.354 59.9315 86.1047 60.1206 85.8001 60.1206Z" fill="#B2C9C6"/>
<path d="M82.2053 58.1483H71.7591C71.5292 58.1483 71.1755 57.9549 71.1448 57.7709C71.0823 57.3936 71.5284 57.2856 71.7585 57.2856L82.2052 57.4733C82.4352 57.4733 82.6233 57.6251 82.6233 57.8108C82.6234 57.9963 82.4352 58.1483 82.2053 58.1483Z" fill="#B2C9C6"/>
<path d="M85.8001 64.6649H71.9606C71.656 64.6649 71.1874 64.4241 71.1469 64.1952C71.0638 63.7254 71.6551 63.5913 71.9597 63.5913L85.8001 63.8248C86.1047 63.8248 86.354 64.0138 86.354 64.2448C86.354 64.476 86.1047 64.6649 85.8001 64.6649Z" fill="#B2C9C6"/>
<path d="M82.2053 62.6926H71.7591C71.5292 62.6926 71.1755 62.4992 71.1448 62.3154C71.0823 61.938 71.5284 61.8301 71.7585 61.8301L82.2052 62.0177C82.4352 62.0177 82.6233 62.1695 82.6233 62.3551C82.6234 62.5408 82.4352 62.6926 82.2053 62.6926Z" fill="#B2C9C6"/>
<path d="M100.748 55.0597C100.748 55.0597 101.342 60.3525 100.431 61.051C99.5199 61.7492 98.2152 61.9603 97.5472 62.4156C96.8791 62.8711 95.5431 63.3569 95.6948 61.7779C95.8467 60.1989 97.6685 55.705 99.0046 54.9157C100.341 54.1262 100.748 55.0597 100.748 55.0597Z" fill="#C4D7D4"/>
<path d="M102.307 55.0597C102.307 55.0597 101.713 60.3525 102.624 61.051C103.535 61.7492 104.84 61.9603 105.508 62.4156C106.176 62.8711 107.512 63.3569 107.36 61.7779C107.208 60.1989 105.386 55.705 104.05 54.9157C102.714 54.1262 102.307 55.0597 102.307 55.0597Z" fill="#C4D7D4"/>
<path d="M97.2951 60.9752C97.2999 60.9643 97.3732 60.6537 97.6261 60.3283C97.8598 60.0278 98.161 59.6002 98.7238 59.3381C98.9542 59.2309 99.16 59.063 99.335 58.8393C99.4768 58.658 99.5992 58.44 99.6986 58.1911C99.8696 57.7637 99.9139 57.3896 99.9144 57.3859L100.138 57.2529C100.137 57.2688 100.022 57.7986 99.8442 58.2447C99.7393 58.5079 99.6094 58.7395 99.4585 58.9329C99.2678 59.177 99.0426 59.3605 98.7891 59.4786C97.7652 59.9557 97.2997 60.9651 97.2951 60.9752Z" fill="#C4D7D4"/>
<path d="M100.068 59.9644C100.154 59.3402 99.5964 58.5061 99.5923 58.4979L99.7309 58.4282C99.7352 58.4368 99.8398 58.6457 99.9341 58.9385C100.062 59.3357 100.107 59.6807 100.068 59.9644Z" fill="#C4D7D4"/>
<path d="M103.482 57.385C103.466 57.372 103.45 57.3593 103.434 57.3463C103.234 57.1828 103.05 57.0128 102.921 56.8928C102.858 56.8343 102.799 56.7706 102.744 56.7027C102.696 56.644 102.65 56.5822 102.607 56.5183C102.455 56.2947 102.333 56.0446 102.237 55.8045C102.046 55.3326 101.952 54.9003 101.921 54.7869V53.4752C101.921 53.2581 101.743 53.0831 101.526 53.0855C101.511 53.0855 101.496 53.0857 101.48 53.0859C101.288 53.0886 101.135 53.245 101.135 53.4368V54.787C101.103 54.9007 101.009 55.3329 100.819 55.8045C100.722 56.0446 100.6 56.2947 100.449 56.5183C100.405 56.5822 100.36 56.644 100.311 56.7027C100.256 56.7706 100.197 56.8343 100.134 56.8928C100.005 57.0128 99.8216 57.1828 99.6208 57.3463C99.605 57.3593 99.589 57.372 99.5731 57.385C99.5433 57.4087 99.5134 57.4321 99.4831 57.4553C99.2303 57.6488 98.9647 57.8143 98.7566 57.8485C99.1624 57.7816 99.5476 57.6463 99.9061 57.4446C99.9807 57.4026 100.054 57.3575 100.127 57.3098C100.169 57.2817 100.211 57.2528 100.253 57.2227C100.475 57.0623 100.685 56.8738 100.881 56.6598C100.998 56.5315 101.111 56.3937 101.217 56.2475C101.338 56.0808 101.441 55.9169 101.528 55.7649C101.614 55.9169 101.718 56.0808 101.839 56.2475C101.945 56.3937 102.057 56.5315 102.174 56.6598C102.37 56.8739 102.58 57.0623 102.803 57.2227C102.844 57.2529 102.886 57.2819 102.929 57.3098C103.001 57.3575 103.075 57.4026 103.149 57.4446C103.269 57.5121 103.392 57.5721 103.518 57.6247C103.768 57.7292 104.029 57.8041 104.299 57.8485C104.066 57.8102 103.761 57.6076 103.482 57.385Z" fill="#C4D7D4"/>
<path d="M105.76 60.9752C105.755 60.9643 105.682 60.6537 105.429 60.3283C105.195 60.0278 104.894 59.6002 104.331 59.3381C104.101 59.2309 103.895 59.063 103.72 58.8393C103.578 58.658 103.456 58.44 103.356 58.1911C103.185 57.7637 103.141 57.3896 103.141 57.3859L102.917 57.2529C102.918 57.2688 103.033 57.7986 103.211 58.2447C103.316 58.5079 103.446 58.7395 103.596 58.9329C103.787 59.177 104.012 59.3605 104.266 59.4786C105.29 59.9557 105.755 60.9651 105.76 60.9752Z" fill="#C4D7D4"/>
<path d="M104.318 59.4028C104.971 59.2091 105.837 59.2903 105.845 59.2918C105.809 59.2851 104.966 59.1298 104.277 59.3341L104.318 59.4028Z" fill="#C4D7D4"/>
<path d="M102.987 59.9644C102.901 59.3402 103.459 58.5061 103.463 58.4979L103.324 58.4282C103.32 58.4368 103.215 58.6457 103.121 58.9385C102.993 59.3357 102.948 59.6807 102.987 59.9644Z" fill="#C4D7D4"/>
<path d="M87.8697 53.6118L72.7252 54.2087C71.6698 54.2501 70.8026 53.3842 70.8427 52.3287L71.1841 43.3495C71.2218 42.3571 72.0509 41.5801 73.0436 41.6066L87.8469 42.0027C88.8285 42.0289 89.6107 42.8323 89.6107 43.8143V51.8008C89.6108 52.7739 88.8422 53.5734 87.8697 53.6118Z" fill="#B2C9C6"/>
<path d="M86.3247 44.4023C86.3247 44.4023 84.8862 44.5075 83.5028 44.4023C82.1196 44.2971 80.2256 44.2543 80.6257 44.7674C81.0258 45.2805 81.179 49.6087 81.179 49.6087C81.179 49.6087 82.8251 49.6112 83.904 48.6624C84.9829 47.7137 87.7495 44.3557 86.3247 44.4023Z" fill="#C4D7D4"/>
<path d="M80.6258 44.7675C80.6258 44.7675 77.5274 43.7991 75.7569 45.0164C73.9863 46.2336 74.7057 50.66 74.8163 51.9878C74.927 53.3157 76.7365 53.1498 77.6022 51.9878C78.468 50.826 80.2385 49.9959 81.1791 49.6088C82.1196 49.2214 81.3042 44.9357 80.6258 44.7675Z" fill="#C4D7D4"/>
<g opacity="0.5">
<path d="M159.106 61.1162L143.002 62.282C141.828 62.3669 140.837 61.4221 140.865 60.2458L141.329 41.0992C141.355 39.9951 142.275 39.1232 143.379 39.1551L159.02 39.6078C160.098 39.6389 160.955 40.5218 160.955 41.6001V59.1283C160.955 60.1734 160.148 61.041 159.106 61.1162Z" fill="#C4D7D4"/>
<path d="M156.26 47.2812H145.764C145.533 47.2812 145.177 47.0405 145.147 46.8116C145.084 46.3418 145.532 46.2075 145.763 46.2075L156.26 46.4411C156.491 46.4411 156.68 46.6302 156.68 46.8612C156.68 47.0923 156.491 47.2812 156.26 47.2812Z" fill="#B2C9C6"/>
<path d="M156.26 49.3573H145.764C145.533 49.3573 145.177 49.1164 145.147 48.8876C145.084 48.4179 145.532 48.2837 145.763 48.2837L156.26 48.5173C156.491 48.5173 156.68 48.7062 156.68 48.9372C156.68 49.1682 156.491 49.3573 156.26 49.3573Z" fill="#B2C9C6"/>
<path d="M153.533 45.3094H145.611C145.436 45.3094 145.168 45.1161 145.145 44.9321C145.098 44.5547 145.436 44.4468 145.61 44.4468L153.533 44.6344C153.708 44.6344 153.85 44.7862 153.85 44.9718C153.85 45.1575 153.707 45.3094 153.533 45.3094Z" fill="#B2C9C6"/>
<path d="M156.26 54.0146H145.764C145.533 54.0146 145.177 53.7739 145.147 53.545C145.084 53.0753 145.532 52.9409 145.763 52.9409L156.26 53.1745C156.491 53.1745 156.68 53.3634 156.68 53.5947C156.68 53.8257 156.491 54.0146 156.26 54.0146Z" fill="#B2C9C6"/>
<path d="M156.26 56.0908H145.764C145.533 56.0908 145.177 55.85 145.147 55.621C145.084 55.1513 145.532 55.0171 145.763 55.0171L156.26 55.2507C156.491 55.2507 156.68 55.4396 156.68 55.6707C156.68 55.9017 156.491 56.0908 156.26 56.0908Z" fill="#B2C9C6"/>
<path d="M153.533 52.0427H145.611C145.436 52.0427 145.168 51.8493 145.145 51.6653C145.098 51.288 145.436 51.1802 145.61 51.1802L153.533 51.3678C153.708 51.3678 153.85 51.5196 153.85 51.7053C153.85 51.8909 153.707 52.0427 153.533 52.0427Z" fill="#B2C9C6"/>
</g>
<g opacity="0.5">
<path d="M182.301 66.5308L166.196 67.6967C165.023 67.7816 164.031 66.8368 164.06 65.6605L164.523 46.5138C164.55 45.4097 165.469 44.5378 166.573 44.5697L182.214 45.0224C183.292 45.0536 184.15 45.9364 184.15 47.0146V64.543C184.15 65.5879 183.343 66.4555 182.301 66.5308Z" fill="#C4D7D4"/>
<path d="M179.454 52.6956H168.958C168.727 52.6956 168.372 52.455 168.341 52.226C168.278 51.7563 168.726 51.6221 168.958 51.6221L179.454 51.8557C179.685 51.8557 179.874 52.0446 179.874 52.2757C179.874 52.5067 179.685 52.6956 179.454 52.6956Z" fill="#B2C9C6"/>
<path d="M179.454 54.7718H168.958C168.727 54.7718 168.372 54.5309 168.341 54.3023C168.278 53.8325 168.726 53.6982 168.958 53.6982L179.454 53.9318C179.685 53.9318 179.874 54.1208 179.874 54.3519C179.874 54.5829 179.685 54.7718 179.454 54.7718Z" fill="#B2C9C6"/>
<path d="M176.728 50.7238H168.805C168.631 50.7238 168.363 50.5305 168.339 50.3465C168.292 49.9693 168.63 49.8613 168.805 49.8613L176.728 50.0488C176.902 50.0488 177.045 50.2008 177.045 50.3863C177.045 50.572 176.902 50.7238 176.728 50.7238Z" fill="#B2C9C6"/>
<path d="M179.454 59.4295H168.958C168.727 59.4295 168.372 59.1886 168.341 58.9599C168.278 58.4902 168.726 58.356 168.958 58.356L179.454 58.5894C179.685 58.5894 179.874 58.7785 179.874 59.0096C179.874 59.2405 179.685 59.4295 179.454 59.4295Z" fill="#B2C9C6"/>
<path d="M179.454 61.5055H168.958C168.727 61.5055 168.372 61.2647 168.341 61.0357C168.278 60.5661 168.726 60.4316 168.958 60.4316L179.454 60.6654C179.685 60.6654 179.874 60.8542 179.874 61.0854C179.874 61.3164 179.685 61.5055 179.454 61.5055Z" fill="#B2C9C6"/>
<path d="M176.728 57.4572H168.805C168.631 57.4572 168.363 57.264 168.339 57.0799C168.292 56.7027 168.63 56.5947 168.805 56.5947L176.728 56.7824C176.902 56.7824 177.045 56.9342 177.045 57.1199C177.045 57.3054 176.902 57.4572 176.728 57.4572Z" fill="#B2C9C6"/>
</g>
</svg>
