<svg width="30" height="30" viewBox="0 0 30 30" fill="none" xmlns="http://www.w3.org/2000/svg">
<path d="M9.76352 13.3205C12.3295 7.77688 13.6642 5.67106 17.8563 5.75918C19.3498 5.78968 18.9919 4.67237 20.1308 5.09602C21.2675 5.51967 20.2917 6.1399 21.4554 7.09904C24.7214 9.7912 24.4209 12.2811 22.9061 18.2156C22.268 20.7158 24.4445 20.8378 23.5836 23.2599C22.9545 25.0268 18.3178 25.7668 13.4267 23.9457C8.53457 22.1234 5.45207 18.5071 6.08117 16.7402C6.94211 14.3169 8.682 15.6545 9.76352 13.3205ZM13.9568 22.4522C18.3256 24.079 21.9157 23.1232 22.0676 22.6973C22.3287 21.963 20.6575 19.516 15.6629 17.6553C10.6683 15.7946 7.8807 16.4849 7.58922 17.3039C7.41703 17.7886 9.58683 20.8242 13.9568 22.4522ZM15.3613 18.5049C17.6448 19.3555 19.2316 20.3282 20.2602 21.2038C19.5366 21.8636 18.1816 22.024 16.8322 21.5213C15.1137 20.883 14.057 19.4132 14.4745 18.2405L14.4925 18.1998C14.7746 18.2917 15.0642 18.3934 15.3613 18.5049Z" fill="#B7B7B7"/>
</svg>
