<svg width="20" height="20" viewBox="0 0 20 20" fill="none" xmlns="http://www.w3.org/2000/svg">
<g clip-path="url(#clip0_108_22075)">
<mask id="path-1-outside-1_108_22075" maskUnits="userSpaceOnUse" x="-0.492188" y="-0.499023" width="21" height="21" fill="black">
<rect fill="white" x="-0.492188" y="-0.499023" width="21" height="21"/>
<path d="M4.57861 0.511438C5.03893 0.491813 5.62205 0.507143 6.09175 0.507234L8.92915 0.507278L11.3692 0.507239C11.7446 0.507156 12.2796 0.490865 12.6445 0.511165C13.0847 0.531506 13.4977 0.729451 13.7892 1.05974C13.9821 1.27475 14.1134 1.53793 14.169 1.82141C14.2163 2.05967 14.2034 2.41151 14.2034 2.66605L14.203 3.80947L14.2035 5.37365C14.2036 5.62345 14.2138 5.96756 14.1989 6.21153C14.5838 6.21593 14.9688 6.2171 15.3536 6.21499L17.295 6.21474L18.0118 6.21437C18.4847 6.2138 18.8089 6.19164 19.1703 6.54874C19.5521 6.92605 19.493 7.36802 19.4932 7.85529L19.4933 8.93062C19.4933 10.1548 19.4933 11.3794 19.4926 12.604C19.4973 12.9458 19.3932 13.2311 19.1476 13.4728C18.797 13.8178 18.4263 13.7882 17.9765 13.7879L17.0852 13.7871L15.143 13.7873C14.8339 13.7874 14.5104 13.793 14.2024 13.7877L14.2031 16.3844L14.2033 17.3135C14.2035 17.6302 14.2236 17.9849 14.1431 18.2883C14.1351 18.3293 14.1126 18.3885 14.0981 18.4276C13.9156 18.9263 13.4576 19.3311 12.9399 19.4512C12.6723 19.5133 12.3195 19.4963 12.0399 19.4963L11.0136 19.4959L5.59609 19.4963C5.24461 19.4964 4.88564 19.5013 4.53437 19.4874C4.39506 19.482 4.21162 19.408 4.08132 19.4121C3.98724 19.4151 3.83512 19.4576 3.73185 19.4712C2.98249 19.5689 2.22495 19.3661 1.62463 18.9071C1.02264 18.4478 0.629046 17.7671 0.531322 17.0162C0.434911 16.2709 0.63743 15.5176 1.09463 14.9211C1.58658 14.2821 2.24446 13.9282 3.04023 13.8236L3.04066 5.49987L3.04047 3.1491L3.04027 2.44094C3.04034 2.27344 3.03604 2.07288 3.05797 1.90882C3.10188 1.59996 3.2336 1.3102 3.43747 1.07406C3.7353 0.723637 4.12646 0.549837 4.57861 0.511438ZM3.65689 13.8214C4.45453 13.9362 5.12729 14.2866 5.61798 14.9413C6.0758 15.5463 6.27129 16.3099 6.16048 17.0605C6.07715 17.6272 5.82449 18.1554 5.43565 18.576C5.3605 18.6577 5.24513 18.7733 5.15583 18.8389C5.14512 18.8467 5.13421 18.8543 5.12313 18.8618C5.30701 18.8728 5.52705 18.8673 5.71323 18.8671L6.68019 18.8664L9.70365 18.8663H11.6896L12.2587 18.8672C12.4004 18.8675 12.5591 18.8718 12.6987 18.8541C12.8962 18.8292 13.0814 18.7447 13.2296 18.6118C13.4314 18.4335 13.5672 18.1789 13.5729 17.9105C13.5811 17.5231 13.576 17.1256 13.5759 16.7376V14.4481C13.5758 14.2318 13.5726 14.0054 13.5765 13.7899L10.2734 13.7874L9.42916 13.7879C9.23698 13.7879 9.01525 13.7977 8.82567 13.7642C8.41958 13.6925 8.03348 13.3264 7.95738 12.9183C7.91561 12.6943 7.93018 12.3969 7.9301 12.1648L7.92983 11.0389L7.92985 8.62745C7.92992 8.21526 7.92942 7.8018 7.93068 7.38955C7.93382 7.28743 7.93636 7.17598 7.9587 7.07633C8.05111 6.66432 8.39688 6.3127 8.81526 6.23523C9.01653 6.19797 9.26598 6.20977 9.47362 6.20983L10.3997 6.21028L13.5744 6.21143L13.5756 3.27915L13.5766 2.50144C13.5768 2.33619 13.5851 2.10013 13.5563 1.94579C13.5189 1.75044 13.4241 1.57066 13.2841 1.42936C13.1581 1.30249 13.0001 1.21209 12.8269 1.16776C12.6007 1.11211 12.0876 1.13087 11.8367 1.1313L10.6824 1.13026C10.5715 1.13068 10.4716 1.1268 10.3965 1.21259C10.3232 1.29627 10.2611 1.40198 10.1982 1.49211C9.98926 1.79177 9.74998 1.9692 9.37365 1.96955C9.15291 1.96974 8.9145 1.97843 8.69017 1.97236C8.35275 1.96322 7.96994 2.00457 7.64505 1.92444C7.46482 1.87999 7.36617 1.78926 7.22975 1.67705C7.07326 1.54834 6.92205 1.27113 6.79271 1.1615C6.59633 1.1225 6.20202 1.13613 5.98306 1.13614L4.69515 1.13734C4.5425 1.14624 4.41465 1.15734 4.27178 1.21751C3.91982 1.36571 3.68421 1.70253 3.6658 2.0838C3.66011 2.20172 3.6598 2.31332 3.65974 2.43125L3.65966 2.99347L3.66008 4.94097L3.66015 10.8829L3.66016 12.8204C3.6602 13.1159 3.67353 13.5348 3.65689 13.8214ZM18.7221 13.0111C18.7786 12.9447 18.8526 12.8455 18.8569 12.755C18.8996 11.8455 18.846 10.9212 18.8723 10.011C17.9949 9.99701 17.0931 10.0074 16.2143 10.0073H11.3385L9.41035 10.0076L8.86059 10.0087C8.77699 10.009 8.63671 10.0151 8.5586 10.003L8.55838 11.8707L8.5571 12.3984C8.55658 12.6076 8.53317 12.8369 8.69156 13.0039C8.87736 13.1997 9.15859 13.1579 9.41019 13.1576L10.1042 13.1571L12.3624 13.1569L16.3247 13.1568L17.6185 13.1573C17.8552 13.1574 18.0925 13.1582 18.3292 13.1561C18.4988 13.1545 18.5952 13.1283 18.7221 13.0111ZM7.59848 1.13629C7.60895 1.20167 7.79747 1.32651 7.8611 1.32875C8.3925 1.34746 8.93647 1.34847 9.46775 1.3276C9.50302 1.3262 9.56153 1.27486 9.58294 1.25342C9.61816 1.214 9.65332 1.17234 9.6923 1.13695L7.59848 1.13629ZM18.8658 7.67536C18.8693 7.44793 18.9017 7.16951 18.7271 6.98991C18.5461 6.80363 18.2627 6.84336 18.0188 6.84337L17.3897 6.8433L15.3391 6.84321L11.1785 6.84422C10.5068 6.84431 9.83467 6.84433 9.16284 6.84319C9.12429 6.84312 9.06138 6.84467 9.02407 6.84931C8.52736 6.89435 8.54685 7.29391 8.55695 7.67177C9.67285 7.69072 10.8372 7.67477 11.9559 7.67477L18.4133 7.67472C18.5619 7.67479 18.7178 7.6724 18.8658 7.67536ZM3.51093 18.8579C4.73262 18.7695 5.65054 17.7062 5.55988 16.4847C5.46922 15.2631 4.40439 14.3471 3.18302 14.4399C1.96465 14.5325 1.05132 15.5941 1.14176 16.8126C1.2322 18.0311 2.29224 18.9463 3.51093 18.8579ZM8.55578 9.37826L15.3066 9.37881C16.4846 9.3788 17.6856 9.36637 18.8619 9.38071C18.8728 9.31826 18.8691 9.08039 18.8683 9.00369C18.8656 8.77458 18.8712 8.53889 18.8669 8.31052C18.5963 8.32004 18.2915 8.31127 18.0168 8.31119L16.3394 8.31103L11.2618 8.31106L9.28679 8.31119C9.16662 8.31125 8.64165 8.32265 8.57114 8.30331C8.54269 8.3494 8.55569 9.27078 8.55578 9.37826Z"/>
</mask>
<path d="M4.57861 0.511438C5.03893 0.491813 5.62205 0.507143 6.09175 0.507234L8.92915 0.507278L11.3692 0.507239C11.7446 0.507156 12.2796 0.490865 12.6445 0.511165C13.0847 0.531506 13.4977 0.729451 13.7892 1.05974C13.9821 1.27475 14.1134 1.53793 14.169 1.82141C14.2163 2.05967 14.2034 2.41151 14.2034 2.66605L14.203 3.80947L14.2035 5.37365C14.2036 5.62345 14.2138 5.96756 14.1989 6.21153C14.5838 6.21593 14.9688 6.2171 15.3536 6.21499L17.295 6.21474L18.0118 6.21437C18.4847 6.2138 18.8089 6.19164 19.1703 6.54874C19.5521 6.92605 19.493 7.36802 19.4932 7.85529L19.4933 8.93062C19.4933 10.1548 19.4933 11.3794 19.4926 12.604C19.4973 12.9458 19.3932 13.2311 19.1476 13.4728C18.797 13.8178 18.4263 13.7882 17.9765 13.7879L17.0852 13.7871L15.143 13.7873C14.8339 13.7874 14.5104 13.793 14.2024 13.7877L14.2031 16.3844L14.2033 17.3135C14.2035 17.6302 14.2236 17.9849 14.1431 18.2883C14.1351 18.3293 14.1126 18.3885 14.0981 18.4276C13.9156 18.9263 13.4576 19.3311 12.9399 19.4512C12.6723 19.5133 12.3195 19.4963 12.0399 19.4963L11.0136 19.4959L5.59609 19.4963C5.24461 19.4964 4.88564 19.5013 4.53437 19.4874C4.39506 19.482 4.21162 19.408 4.08132 19.4121C3.98724 19.4151 3.83512 19.4576 3.73185 19.4712C2.98249 19.5689 2.22495 19.3661 1.62463 18.9071C1.02264 18.4478 0.629046 17.7671 0.531322 17.0162C0.434911 16.2709 0.63743 15.5176 1.09463 14.9211C1.58658 14.2821 2.24446 13.9282 3.04023 13.8236L3.04066 5.49987L3.04047 3.1491L3.04027 2.44094C3.04034 2.27344 3.03604 2.07288 3.05797 1.90882C3.10188 1.59996 3.2336 1.3102 3.43747 1.07406C3.7353 0.723637 4.12646 0.549837 4.57861 0.511438ZM3.65689 13.8214C4.45453 13.9362 5.12729 14.2866 5.61798 14.9413C6.0758 15.5463 6.27129 16.3099 6.16048 17.0605C6.07715 17.6272 5.82449 18.1554 5.43565 18.576C5.3605 18.6577 5.24513 18.7733 5.15583 18.8389C5.14512 18.8467 5.13421 18.8543 5.12313 18.8618C5.30701 18.8728 5.52705 18.8673 5.71323 18.8671L6.68019 18.8664L9.70365 18.8663H11.6896L12.2587 18.8672C12.4004 18.8675 12.5591 18.8718 12.6987 18.8541C12.8962 18.8292 13.0814 18.7447 13.2296 18.6118C13.4314 18.4335 13.5672 18.1789 13.5729 17.9105C13.5811 17.5231 13.576 17.1256 13.5759 16.7376V14.4481C13.5758 14.2318 13.5726 14.0054 13.5765 13.7899L10.2734 13.7874L9.42916 13.7879C9.23698 13.7879 9.01525 13.7977 8.82567 13.7642C8.41958 13.6925 8.03348 13.3264 7.95738 12.9183C7.91561 12.6943 7.93018 12.3969 7.9301 12.1648L7.92983 11.0389L7.92985 8.62745C7.92992 8.21526 7.92942 7.8018 7.93068 7.38955C7.93382 7.28743 7.93636 7.17598 7.9587 7.07633C8.05111 6.66432 8.39688 6.3127 8.81526 6.23523C9.01653 6.19797 9.26598 6.20977 9.47362 6.20983L10.3997 6.21028L13.5744 6.21143L13.5756 3.27915L13.5766 2.50144C13.5768 2.33619 13.5851 2.10013 13.5563 1.94579C13.5189 1.75044 13.4241 1.57066 13.2841 1.42936C13.1581 1.30249 13.0001 1.21209 12.8269 1.16776C12.6007 1.11211 12.0876 1.13087 11.8367 1.1313L10.6824 1.13026C10.5715 1.13068 10.4716 1.1268 10.3965 1.21259C10.3232 1.29627 10.2611 1.40198 10.1982 1.49211C9.98926 1.79177 9.74998 1.9692 9.37365 1.96955C9.15291 1.96974 8.9145 1.97843 8.69017 1.97236C8.35275 1.96322 7.96994 2.00457 7.64505 1.92444C7.46482 1.87999 7.36617 1.78926 7.22975 1.67705C7.07326 1.54834 6.92205 1.27113 6.79271 1.1615C6.59633 1.1225 6.20202 1.13613 5.98306 1.13614L4.69515 1.13734C4.5425 1.14624 4.41465 1.15734 4.27178 1.21751C3.91982 1.36571 3.68421 1.70253 3.6658 2.0838C3.66011 2.20172 3.6598 2.31332 3.65974 2.43125L3.65966 2.99347L3.66008 4.94097L3.66015 10.8829L3.66016 12.8204C3.6602 13.1159 3.67353 13.5348 3.65689 13.8214ZM18.7221 13.0111C18.7786 12.9447 18.8526 12.8455 18.8569 12.755C18.8996 11.8455 18.846 10.9212 18.8723 10.011C17.9949 9.99701 17.0931 10.0074 16.2143 10.0073H11.3385L9.41035 10.0076L8.86059 10.0087C8.77699 10.009 8.63671 10.0151 8.5586 10.003L8.55838 11.8707L8.5571 12.3984C8.55658 12.6076 8.53317 12.8369 8.69156 13.0039C8.87736 13.1997 9.15859 13.1579 9.41019 13.1576L10.1042 13.1571L12.3624 13.1569L16.3247 13.1568L17.6185 13.1573C17.8552 13.1574 18.0925 13.1582 18.3292 13.1561C18.4988 13.1545 18.5952 13.1283 18.7221 13.0111ZM7.59848 1.13629C7.60895 1.20167 7.79747 1.32651 7.8611 1.32875C8.3925 1.34746 8.93647 1.34847 9.46775 1.3276C9.50302 1.3262 9.56153 1.27486 9.58294 1.25342C9.61816 1.214 9.65332 1.17234 9.6923 1.13695L7.59848 1.13629ZM18.8658 7.67536C18.8693 7.44793 18.9017 7.16951 18.7271 6.98991C18.5461 6.80363 18.2627 6.84336 18.0188 6.84337L17.3897 6.8433L15.3391 6.84321L11.1785 6.84422C10.5068 6.84431 9.83467 6.84433 9.16284 6.84319C9.12429 6.84312 9.06138 6.84467 9.02407 6.84931C8.52736 6.89435 8.54685 7.29391 8.55695 7.67177C9.67285 7.69072 10.8372 7.67477 11.9559 7.67477L18.4133 7.67472C18.5619 7.67479 18.7178 7.6724 18.8658 7.67536ZM3.51093 18.8579C4.73262 18.7695 5.65054 17.7062 5.55988 16.4847C5.46922 15.2631 4.40439 14.3471 3.18302 14.4399C1.96465 14.5325 1.05132 15.5941 1.14176 16.8126C1.2322 18.0311 2.29224 18.9463 3.51093 18.8579ZM8.55578 9.37826L15.3066 9.37881C16.4846 9.3788 17.6856 9.36637 18.8619 9.38071C18.8728 9.31826 18.8691 9.08039 18.8683 9.00369C18.8656 8.77458 18.8712 8.53889 18.8669 8.31052C18.5963 8.32004 18.2915 8.31127 18.0168 8.31119L16.3394 8.31103L11.2618 8.31106L9.28679 8.31119C9.16662 8.31125 8.64165 8.32265 8.57114 8.30331C8.54269 8.3494 8.55569 9.27078 8.55578 9.37826Z" fill="#B7B7B7"/>
<path d="M4.57861 0.511438C5.03893 0.491813 5.62205 0.507143 6.09175 0.507234L8.92915 0.507278L11.3692 0.507239C11.7446 0.507156 12.2796 0.490865 12.6445 0.511165C13.0847 0.531506 13.4977 0.729451 13.7892 1.05974C13.9821 1.27475 14.1134 1.53793 14.169 1.82141C14.2163 2.05967 14.2034 2.41151 14.2034 2.66605L14.203 3.80947L14.2035 5.37365C14.2036 5.62345 14.2138 5.96756 14.1989 6.21153C14.5838 6.21593 14.9688 6.2171 15.3536 6.21499L17.295 6.21474L18.0118 6.21437C18.4847 6.2138 18.8089 6.19164 19.1703 6.54874C19.5521 6.92605 19.493 7.36802 19.4932 7.85529L19.4933 8.93062C19.4933 10.1548 19.4933 11.3794 19.4926 12.604C19.4973 12.9458 19.3932 13.2311 19.1476 13.4728C18.797 13.8178 18.4263 13.7882 17.9765 13.7879L17.0852 13.7871L15.143 13.7873C14.8339 13.7874 14.5104 13.793 14.2024 13.7877L14.2031 16.3844L14.2033 17.3135C14.2035 17.6302 14.2236 17.9849 14.1431 18.2883C14.1351 18.3293 14.1126 18.3885 14.0981 18.4276C13.9156 18.9263 13.4576 19.3311 12.9399 19.4512C12.6723 19.5133 12.3195 19.4963 12.0399 19.4963L11.0136 19.4959L5.59609 19.4963C5.24461 19.4964 4.88564 19.5013 4.53437 19.4874C4.39506 19.482 4.21162 19.408 4.08132 19.4121C3.98724 19.4151 3.83512 19.4576 3.73185 19.4712C2.98249 19.5689 2.22495 19.3661 1.62463 18.9071C1.02264 18.4478 0.629046 17.7671 0.531322 17.0162C0.434911 16.2709 0.63743 15.5176 1.09463 14.9211C1.58658 14.2821 2.24446 13.9282 3.04023 13.8236L3.04066 5.49987L3.04047 3.1491L3.04027 2.44094C3.04034 2.27344 3.03604 2.07288 3.05797 1.90882C3.10188 1.59996 3.2336 1.3102 3.43747 1.07406C3.7353 0.723637 4.12646 0.549837 4.57861 0.511438ZM3.65689 13.8214C4.45453 13.9362 5.12729 14.2866 5.61798 14.9413C6.0758 15.5463 6.27129 16.3099 6.16048 17.0605C6.07715 17.6272 5.82449 18.1554 5.43565 18.576C5.3605 18.6577 5.24513 18.7733 5.15583 18.8389C5.14512 18.8467 5.13421 18.8543 5.12313 18.8618C5.30701 18.8728 5.52705 18.8673 5.71323 18.8671L6.68019 18.8664L9.70365 18.8663H11.6896L12.2587 18.8672C12.4004 18.8675 12.5591 18.8718 12.6987 18.8541C12.8962 18.8292 13.0814 18.7447 13.2296 18.6118C13.4314 18.4335 13.5672 18.1789 13.5729 17.9105C13.5811 17.5231 13.576 17.1256 13.5759 16.7376V14.4481C13.5758 14.2318 13.5726 14.0054 13.5765 13.7899L10.2734 13.7874L9.42916 13.7879C9.23698 13.7879 9.01525 13.7977 8.82567 13.7642C8.41958 13.6925 8.03348 13.3264 7.95738 12.9183C7.91561 12.6943 7.93018 12.3969 7.9301 12.1648L7.92983 11.0389L7.92985 8.62745C7.92992 8.21526 7.92942 7.8018 7.93068 7.38955C7.93382 7.28743 7.93636 7.17598 7.9587 7.07633C8.05111 6.66432 8.39688 6.3127 8.81526 6.23523C9.01653 6.19797 9.26598 6.20977 9.47362 6.20983L10.3997 6.21028L13.5744 6.21143L13.5756 3.27915L13.5766 2.50144C13.5768 2.33619 13.5851 2.10013 13.5563 1.94579C13.5189 1.75044 13.4241 1.57066 13.2841 1.42936C13.1581 1.30249 13.0001 1.21209 12.8269 1.16776C12.6007 1.11211 12.0876 1.13087 11.8367 1.1313L10.6824 1.13026C10.5715 1.13068 10.4716 1.1268 10.3965 1.21259C10.3232 1.29627 10.2611 1.40198 10.1982 1.49211C9.98926 1.79177 9.74998 1.9692 9.37365 1.96955C9.15291 1.96974 8.9145 1.97843 8.69017 1.97236C8.35275 1.96322 7.96994 2.00457 7.64505 1.92444C7.46482 1.87999 7.36617 1.78926 7.22975 1.67705C7.07326 1.54834 6.92205 1.27113 6.79271 1.1615C6.59633 1.1225 6.20202 1.13613 5.98306 1.13614L4.69515 1.13734C4.5425 1.14624 4.41465 1.15734 4.27178 1.21751C3.91982 1.36571 3.68421 1.70253 3.6658 2.0838C3.66011 2.20172 3.6598 2.31332 3.65974 2.43125L3.65966 2.99347L3.66008 4.94097L3.66015 10.8829L3.66016 12.8204C3.6602 13.1159 3.67353 13.5348 3.65689 13.8214ZM18.7221 13.0111C18.7786 12.9447 18.8526 12.8455 18.8569 12.755C18.8996 11.8455 18.846 10.9212 18.8723 10.011C17.9949 9.99701 17.0931 10.0074 16.2143 10.0073H11.3385L9.41035 10.0076L8.86059 10.0087C8.77699 10.009 8.63671 10.0151 8.5586 10.003L8.55838 11.8707L8.5571 12.3984C8.55658 12.6076 8.53317 12.8369 8.69156 13.0039C8.87736 13.1997 9.15859 13.1579 9.41019 13.1576L10.1042 13.1571L12.3624 13.1569L16.3247 13.1568L17.6185 13.1573C17.8552 13.1574 18.0925 13.1582 18.3292 13.1561C18.4988 13.1545 18.5952 13.1283 18.7221 13.0111ZM7.59848 1.13629C7.60895 1.20167 7.79747 1.32651 7.8611 1.32875C8.3925 1.34746 8.93647 1.34847 9.46775 1.3276C9.50302 1.3262 9.56153 1.27486 9.58294 1.25342C9.61816 1.214 9.65332 1.17234 9.6923 1.13695L7.59848 1.13629ZM18.8658 7.67536C18.8693 7.44793 18.9017 7.16951 18.7271 6.98991C18.5461 6.80363 18.2627 6.84336 18.0188 6.84337L17.3897 6.8433L15.3391 6.84321L11.1785 6.84422C10.5068 6.84431 9.83467 6.84433 9.16284 6.84319C9.12429 6.84312 9.06138 6.84467 9.02407 6.84931C8.52736 6.89435 8.54685 7.29391 8.55695 7.67177C9.67285 7.69072 10.8372 7.67477 11.9559 7.67477L18.4133 7.67472C18.5619 7.67479 18.7178 7.6724 18.8658 7.67536ZM3.51093 18.8579C4.73262 18.7695 5.65054 17.7062 5.55988 16.4847C5.46922 15.2631 4.40439 14.3471 3.18302 14.4399C1.96465 14.5325 1.05132 15.5941 1.14176 16.8126C1.2322 18.0311 2.29224 18.9463 3.51093 18.8579ZM8.55578 9.37826L15.3066 9.37881C16.4846 9.3788 17.6856 9.36637 18.8619 9.38071C18.8728 9.31826 18.8691 9.08039 18.8683 9.00369C18.8656 8.77458 18.8712 8.53889 18.8669 8.31052C18.5963 8.32004 18.2915 8.31127 18.0168 8.31119L16.3394 8.31103L11.2618 8.31106L9.28679 8.31119C9.16662 8.31125 8.64165 8.32265 8.57114 8.30331C8.54269 8.3494 8.55569 9.27078 8.55578 9.37826Z" stroke="#B7B7B7" stroke-width="0.26" mask="url(#path-1-outside-1_108_22075)"/>
<path d="M7.93164 17.4399C8.22873 17.436 8.53967 17.4402 8.83496 17.438C8.89701 17.4375 9.01075 17.4364 9.12207 17.437C9.23142 17.4376 9.34649 17.4402 9.40918 17.4507L9.49316 17.4751C9.5197 17.4865 9.54516 17.5014 9.56836 17.519H9.56738C9.62883 17.5654 9.67469 17.6287 9.69824 17.7007L9.71387 17.7749C9.72391 17.8785 9.69081 17.982 9.62305 18.061L9.62402 18.062C9.53022 18.1725 9.42124 18.1863 9.3125 18.1958L9.30859 18.1968C9.01402 18.2024 8.70748 18.1958 8.41406 18.1978H8.41113C8.32008 18.1935 8.22428 18.1982 8.12207 18.1997C8.02219 18.2012 7.91794 18.2 7.81934 18.1821C7.67383 18.1557 7.57862 18.051 7.54297 17.9302C7.50778 17.8105 7.52906 17.6703 7.61719 17.5649C7.70553 17.4596 7.83199 17.4465 7.92871 17.4399L7.93164 17.439V17.4399Z" fill="#B7B7B7" stroke="#B7B7B7" stroke-width="0.13"/>
<path d="M12.0967 11.0713H12.8184C12.8912 11.0712 13.018 11.0643 13.1338 11.0693C13.1929 11.0719 13.253 11.0781 13.3076 11.0898C13.3614 11.1014 13.4161 11.1195 13.458 11.1514H13.457C13.5397 11.214 13.593 11.3081 13.6045 11.4111C13.6187 11.5426 13.5745 11.6467 13.4932 11.7178C13.4144 11.7864 13.3062 11.8209 13.1982 11.8291H13.1943C12.5314 11.8456 11.799 11.831 11.1357 11.8311H10.3564C10.2092 11.8311 10.0679 11.8304 9.91699 11.8242C9.75083 11.8174 9.62686 11.7262 9.57324 11.5996C9.52009 11.4737 9.53918 11.3199 9.6416 11.1943H9.64258C9.72902 11.0888 9.85413 11.0788 9.9502 11.0723H9.95312C10.6534 11.0601 11.395 11.0713 12.0967 11.0713Z" fill="#B7B7B7" stroke="#B7B7B7" stroke-width="0.13"/>
<path d="M4.57617 15.4644L4.64453 15.4663C4.79788 15.4816 4.90765 15.5774 4.9541 15.7017C5.00644 15.8417 4.9771 16.014 4.84863 16.1382C4.74441 16.239 4.63738 16.3388 4.5332 16.438L3.91797 17.0288L3.43359 17.4937C3.34473 17.5789 3.26844 17.6563 3.2002 17.7134C3.13193 17.7704 3.06249 17.8155 2.98633 17.8306C2.90689 17.8461 2.82944 17.8268 2.74805 17.7778C2.66842 17.7299 2.58068 17.6513 2.47754 17.5405C2.36236 17.4168 2.20973 17.2706 2.08594 17.146L1.94531 17.0132C1.89316 16.962 1.83938 16.905 1.79785 16.8452C1.75534 16.784 1.72051 16.7139 1.71191 16.6382C1.70312 16.56 1.72352 16.4801 1.78027 16.4048C1.87845 16.2746 1.99321 16.224 2.11621 16.2417C2.23084 16.2582 2.33963 16.333 2.43555 16.4185C2.53275 16.505 2.62725 16.6118 2.71094 16.7046C2.79743 16.8004 2.8697 16.8774 2.92871 16.9165L2.93652 16.9214C2.93466 16.9215 2.93611 16.922 2.94238 16.9175C2.94945 16.9123 2.95794 16.9045 2.96973 16.8921C2.9802 16.8811 2.99436 16.8645 3.00977 16.8511C3.45762 16.4132 3.90959 15.9729 4.37207 15.5493C4.43289 15.4936 4.50879 15.4767 4.56738 15.4653L4.57617 15.4634V15.4644Z" fill="#B7B7B7" stroke="#B7B7B7" stroke-width="0.13"/>
</g>
<defs>
<clipPath id="clip0_108_22075">
<rect width="20" height="20" fill="white"/>
</clipPath>
</defs>
</svg>
