<svg width="30" height="30" viewBox="0 0 30 30" fill="none" xmlns="http://www.w3.org/2000/svg">
<path d="M6.03704 7.22222C5.74846 7.22222 5.50673 7.11556 5.31185 6.90222C5.11698 6.68889 5.0192 6.42519 5.01852 6.11111C5.01784 5.79704 5.11562 5.53333 5.31185 5.32C5.50809 5.10667 5.74981 5 6.03704 5H16.2222C16.5108 5 16.7529 5.10667 16.9484 5.32C17.144 5.53333 17.2414 5.79704 17.2407 6.11111C17.2401 6.42519 17.1423 6.68926 16.9474 6.90333C16.7525 7.11741 16.5108 7.2237 16.2222 7.22222H6.03704ZM11.1296 21.1111C11.554 21.1111 11.9149 20.9493 12.2123 20.6256C12.5097 20.3019 12.6581 19.9081 12.6574 19.4444V18.3333H13.6759C14.1003 18.3333 14.4612 18.1715 14.7586 17.8478C15.056 17.5241 15.2044 17.1304 15.2037 16.6667C15.203 16.203 15.0547 15.8096 14.7586 15.4867C14.4626 15.1637 14.1017 15.0015 13.6759 15H12.6574V13.8889C12.6574 13.4259 12.509 13.0326 12.2123 12.7089C11.9156 12.3852 11.5547 12.223 11.1296 12.2222C10.7046 12.2215 10.344 12.3837 10.048 12.7089C9.75191 13.0341 9.60321 13.4274 9.60185 13.8889V15H8.58333C8.15895 15 7.79839 15.1622 7.50167 15.4867C7.20494 15.8111 7.05623 16.2044 7.05556 16.6667C7.05488 17.1289 7.20358 17.5226 7.50167 17.8478C7.79975 18.173 8.16031 18.3348 8.58333 18.3333H9.60185V19.4444C9.60185 19.9074 9.75056 20.3011 10.048 20.6256C10.3454 20.95 10.7059 21.1119 11.1296 21.1111ZM6.03704 25C5.47685 25 4.99747 24.7826 4.59889 24.3478C4.20031 23.913 4.00068 23.3896 4 22.7778V10.5556C4 9.94444 4.19963 9.42148 4.59889 8.98667C4.99815 8.55185 5.47753 8.33407 6.03704 8.33333H16.2222C16.7824 8.33333 17.2621 8.55111 17.6614 8.98667C18.0606 9.42222 18.2599 9.94518 18.2593 10.5556V22.7778C18.2593 23.3889 18.06 23.9122 17.6614 24.3478C17.2628 24.7833 16.7831 25.0007 16.2222 25H6.03704ZM22.1042 18.1111C21.9005 17.8889 21.7986 17.6252 21.7986 17.32C21.7986 17.0148 21.9005 16.7507 22.1042 16.5278L22.4861 16.1111H20.2963C20.0077 16.1111 19.766 16.0044 19.5711 15.7911C19.3762 15.5778 19.2785 15.3141 19.2778 15C19.2771 14.6859 19.3749 14.4222 19.5711 14.2089C19.7673 13.9956 20.0091 13.8889 20.2963 13.8889H22.4861L22.1042 13.4722C21.9005 13.25 21.7986 12.9907 21.7986 12.6944C21.7986 12.3981 21.9005 12.1389 22.1042 11.9167C22.3079 11.6944 22.5499 11.5833 22.8304 11.5833C23.1108 11.5833 23.3525 11.6944 23.5556 11.9167L25.6944 14.2222C25.8981 14.4444 26 14.7037 26 15C26 15.2963 25.8981 15.5556 25.6944 15.7778L23.5556 18.1111C23.3519 18.3333 23.1098 18.4444 22.8293 18.4444C22.5489 18.4444 22.3072 18.3333 22.1042 18.1111Z" fill="#B7B7B7"/>
</svg>
