<svg width="27" height="24" viewBox="0 0 27 24" fill="none" xmlns="http://www.w3.org/2000/svg">
<path d="M2.44444 2.66667C2.09815 2.66667 1.80807 2.53867 1.57422 2.28267C1.34037 2.02667 1.22304 1.71022 1.22222 1.33333C1.22141 0.956444 1.33874 0.64 1.57422 0.384C1.8097 0.128 2.09978 0 2.44444 0H14.6667C15.013 0 15.3034 0.128 15.5381 0.384C15.7728 0.64 15.8897 0.956444 15.8889 1.33333C15.8881 1.71022 15.7707 2.02711 15.5369 2.284C15.303 2.54089 15.013 2.66844 14.6667 2.66667H2.44444ZM8.55556 19.3333C9.06482 19.3333 9.49789 19.1391 9.85478 18.7507C10.2117 18.3622 10.3897 17.8898 10.3889 17.3333V16H11.6111C12.1204 16 12.5534 15.8058 12.9103 15.4173C13.2672 15.0289 13.4453 14.5564 13.4444 14C13.4436 13.4436 13.2656 12.9716 12.9103 12.584C12.5551 12.1964 12.122 12.0018 11.6111 12H10.3889V10.6667C10.3889 10.1111 10.2109 9.63911 9.85478 9.25066C9.4987 8.86222 9.06563 8.66755 8.55556 8.66667C8.04548 8.66578 7.61282 8.86044 7.25756 9.25066C6.9023 9.64089 6.72385 10.1129 6.72222 10.6667V12H5.5C4.99074 12 4.55807 12.1947 4.202 12.584C3.84593 12.9733 3.66748 13.4453 3.66667 14C3.66585 14.5547 3.8443 15.0271 4.202 15.4173C4.5597 15.8076 4.99237 16.0018 5.5 16H6.72222V17.3333C6.72222 17.8889 6.90067 18.3613 7.25756 18.7507C7.61445 19.14 8.04711 19.3342 8.55556 19.3333ZM2.44444 24C1.77222 24 1.19696 23.7391 0.718667 23.2173C0.24037 22.6956 0.000814815 22.0676 0 21.3333V6.66667C0 5.93333 0.239556 5.30578 0.718667 4.784C1.19778 4.26222 1.77304 4.00089 2.44444 4H14.6667C15.3389 4 15.9146 4.26133 16.3937 4.784C16.8728 5.30667 17.1119 5.93422 17.1111 6.66667V21.3333C17.1111 22.0667 16.872 22.6947 16.3937 23.2173C15.9154 23.74 15.3397 24.0009 14.6667 24H2.44444ZM21.725 15.7333C21.4806 15.4667 21.3583 15.1502 21.3583 14.784C21.3583 14.4178 21.4806 14.1009 21.725 13.8333L22.1833 13.3333H19.5556C19.2093 13.3333 18.9192 13.2053 18.6853 12.9493C18.4515 12.6933 18.3342 12.3769 18.3333 12C18.3325 11.6231 18.4499 11.3067 18.6853 11.0507C18.9208 10.7947 19.2109 10.6667 19.5556 10.6667H22.1833L21.725 10.1667C21.4806 9.9 21.3583 9.58889 21.3583 9.23333C21.3583 8.87778 21.4806 8.56667 21.725 8.3C21.9694 8.03333 22.2599 7.9 22.5964 7.9C22.933 7.9 23.223 8.03333 23.4667 8.3L26.0333 11.0667C26.2778 11.3333 26.4 11.6444 26.4 12C26.4 12.3556 26.2778 12.6667 26.0333 12.9333L23.4667 15.7333C23.2222 16 22.9317 16.1333 22.5952 16.1333C22.2587 16.1333 21.9686 16 21.725 15.7333Z" fill="#1E1E1E"/>
</svg>
