<svg width="35" height="35" viewBox="0 0 35 35" fill="none" xmlns="http://www.w3.org/2000/svg">
<path d="M11.668 6.5625V8.75H9.48047V10.2083H11.668V12.3958H13.1263V10.2083H15.3138V8.75H13.1263V6.5625H11.668Z" fill="#117A7A"/>
<path fill-rule="evenodd" clip-rule="evenodd" d="M9.47917 4.375C8.89901 4.375 8.34261 4.60547 7.93237 5.0157C7.52213 5.42594 7.29167 5.98234 7.29167 6.5625V7.29167H4.375V21.1458H20.4167V7.29167H17.5V6.5625C17.5 5.98234 17.2695 5.42594 16.8593 5.0157C16.4491 4.60547 15.8927 4.375 15.3125 4.375H9.47917ZM15.3125 14.5833C15.8927 14.5833 16.4491 14.3529 16.8593 13.9426C17.2695 13.5324 17.5 12.976 17.5 12.3958V11.6667H18.9583V19.6875H15.3125V15.3125H9.47917V19.6875H5.83333V11.6667H7.29167V12.3958C7.29167 12.976 7.52213 13.5324 7.93237 13.9426C8.34261 14.3529 8.89901 14.5833 9.47917 14.5833H15.3125ZM8.75 6.5625C8.75 6.36911 8.82682 6.18365 8.96357 6.0469C9.10031 5.91016 9.28578 5.83333 9.47917 5.83333H15.3125C15.5059 5.83333 15.6914 5.91016 15.8281 6.0469C15.9648 6.18365 16.0417 6.36911 16.0417 6.5625V12.3958C16.0417 12.5892 15.9648 12.7747 15.8281 12.9114C15.6914 13.0482 15.5059 13.125 15.3125 13.125H9.47917C9.28578 13.125 9.10031 13.0482 8.96357 12.9114C8.82682 12.7747 8.75 12.5892 8.75 12.3958V6.5625ZM5.83333 8.75H7.29167V10.2083H5.83333V8.75ZM18.9583 10.2083H17.5V8.75H18.9583V10.2083ZM13.8542 16.7708V19.6875H10.9375V16.7708H13.8542ZM21.875 20.4167C21.875 19.6431 22.1823 18.9013 22.7293 18.3543C23.2763 17.8073 24.0181 17.5 24.7917 17.5C25.5652 17.5 26.3071 17.8073 26.8541 18.3543C27.401 18.9013 27.7083 19.6431 27.7083 20.4167C27.7083 21.1902 27.401 21.9321 26.8541 22.4791C26.3071 23.026 25.5652 23.3333 24.7917 23.3333C24.0181 23.3333 23.2763 23.026 22.7293 22.4791C22.1823 21.9321 21.875 21.1902 21.875 20.4167ZM24.7917 18.9583C24.4049 18.9583 24.034 19.112 23.7605 19.3855C23.487 19.659 23.3333 20.0299 23.3333 20.4167C23.3333 20.8034 23.487 21.1744 23.7605 21.4479C24.034 21.7214 24.4049 21.875 24.7917 21.875C25.1784 21.875 25.5494 21.7214 25.8229 21.4479C26.0964 21.1744 26.25 20.8034 26.25 20.4167C26.25 20.0299 26.0964 19.659 25.8229 19.3855C25.5494 19.112 25.1784 18.9583 24.7917 18.9583ZM24.7917 24.0625C22.8448 24.0625 18.9583 25.1285 18.9583 27.2446V29.1667H12.3958C11.8643 29.1667 11.5194 28.9749 11.2999 28.7277C11.0687 28.4674 10.9375 28.0999 10.9375 27.7083V25.0935L13.3386 27.4947L14.3697 26.4636L10.2083 22.3023L6.04698 26.4636L7.07802 27.4947L9.47917 25.0935V27.7083C9.47917 28.4105 9.7125 29.1368 10.2105 29.6968C10.7202 30.2699 11.4691 30.625 12.3958 30.625H30.625V27.2446C30.625 25.1285 26.7385 24.0625 24.7917 24.0625ZM20.631 26.8822C20.4247 27.09 20.4167 27.2037 20.4167 27.2446V29.1667H29.1667V27.2446C29.1667 27.2037 29.1594 27.09 28.9523 26.8822C28.7335 26.6613 28.3653 26.4199 27.8542 26.1968C26.8246 25.7454 25.5646 25.5208 24.7917 25.5208C24.0188 25.5208 22.7587 25.7469 21.7292 26.196C21.218 26.4192 20.8505 26.6613 20.631 26.8822Z" fill="#117A7A"/>
</svg>
