<svg width="35" height="35" viewBox="0 0 35 35" fill="none" xmlns="http://www.w3.org/2000/svg">
<path d="M17.4988 14.5837C20.7217 14.5837 23.3321 11.9732 23.3321 8.75033C23.3321 5.52741 20.7217 2.91699 17.4988 2.91699C14.2759 2.91699 11.6655 5.52741 11.6655 8.75033C11.6655 11.9732 14.2759 14.5837 17.4988 14.5837ZM17.4988 5.83366C19.103 5.83366 20.4155 7.14616 20.4155 8.75033C20.4155 10.3545 19.103 11.667 17.4988 11.667C15.8946 11.667 14.5821 10.3545 14.5821 8.75033C14.5821 7.14616 15.8946 5.83366 17.4988 5.83366ZM26.8175 18.317C24.3675 17.0628 21.1884 16.042 17.4988 16.042C13.8092 16.042 10.63 17.0628 8.18004 18.317C7.46846 18.6835 6.87236 19.24 6.4579 19.9248C6.04344 20.6095 5.82683 21.3958 5.83213 22.1962V32.0837H8.74879V22.1962C8.74879 21.642 9.04046 21.1462 9.47796 20.9128C11.2425 20.0232 14.0425 18.9587 17.4988 18.9587C18.6071 18.9587 19.6425 19.0607 20.605 19.2503L18.3446 24.0628H14.2175C12.0009 24.0628 10.2071 25.8566 10.2071 28.0732C10.2071 30.2899 12.0009 32.0837 14.2175 32.0837H26.2488C27.853 32.0837 29.1655 30.7712 29.1655 29.167V22.1962C29.1655 20.5628 28.2759 19.0607 26.8175 18.317ZM15.953 29.167H14.2175C13.6196 29.167 13.1238 28.6712 13.1238 28.0732C13.1238 27.4753 13.6196 26.9795 14.2175 26.9795H16.9738L15.953 29.167ZM26.2488 29.167H19.1759L23.4634 20.0232C24.2509 20.3149 24.9363 20.6212 25.5196 20.9128C25.9571 21.1462 26.2488 21.642 26.2488 22.1962V29.167Z" fill="#117A7A"/>
</svg>
