<svg width="20" height="20" viewBox="0 0 20 20" fill="none" xmlns="http://www.w3.org/2000/svg">
<path d="M18.3346 18.333H1.66797" stroke="black" stroke-linecap="round"/>
<path d="M17.5 18.3332V12.0832C17.5 11.7517 17.3683 11.4337 17.1339 11.1993C16.8995 10.9649 16.5815 10.8332 16.25 10.8332H13.75C13.4185 10.8332 13.1005 10.9649 12.8661 11.1993C12.6317 11.4337 12.5 11.7517 12.5 12.0832V18.3332V4.1665C12.5 2.98817 12.5 2.399 12.1333 2.03317C11.7683 1.6665 11.1792 1.6665 10 1.6665C8.82083 1.6665 8.2325 1.6665 7.86667 2.03317C7.5 2.39817 7.5 2.98734 7.5 4.1665V18.3332V7.9165C7.5 7.58498 7.3683 7.26704 7.13388 7.03262C6.89946 6.7982 6.58152 6.6665 6.25 6.6665H3.75C3.41848 6.6665 3.10054 6.7982 2.86612 7.03262C2.6317 7.26704 2.5 7.58498 2.5 7.9165V18.3332" stroke="black"/>
</svg>
