<svg width="24" height="24" viewBox="0 0 24 24" fill="none" xmlns="http://www.w3.org/2000/svg">
<path d="M10.1668 3.89062V5.96875H8.12507C7.64017 5.96875 7.25006 6.36582 7.25006 6.85938V8.64062C7.25006 9.13418 7.64017 9.53125 8.12507 9.53125H10.1668V11.6094C10.1668 12.1029 10.5569 12.5 11.0418 12.5H12.7918C13.2767 12.5 13.6668 12.1029 13.6668 11.6094V9.53125H15.7085C16.1934 9.53125 16.5835 9.13418 16.5835 8.64062V6.85938C16.5835 6.36582 16.1934 5.96875 15.7085 5.96875H13.6668V3.89062C13.6668 3.39707 13.2767 3 12.7918 3H11.0418C10.5569 3 10.1668 3.39707 10.1668 3.89062ZM22.406 17.5543C23.0549 17.0682 23.1935 16.1404 22.7159 15.4799C22.2382 14.8193 21.3268 14.6783 20.6778 15.1645L16.3137 18.4375H11.9168C11.5959 18.4375 11.3334 18.1703 11.3334 17.8438C11.3334 17.5172 11.5959 17.25 11.9168 17.25H14.8335C15.4788 17.25 16.0002 16.7193 16.0002 16.0625C16.0002 15.4057 15.4788 14.875 14.8335 14.875H9.06206C8.00111 14.875 6.97297 15.2424 6.14536 15.9141L4.50836 17.25H3.16668C2.52136 17.25 2 17.7807 2 18.4375V20.8125C2 21.4693 2.52136 22 3.16668 22H14.8517C15.909 22 16.9408 21.6549 17.7939 21.0166L22.4096 17.5543H22.406Z" fill="#1E1E1E"/>
</svg>
