<svg width="35" height="35" viewBox="0 0 35 35" fill="none" xmlns="http://www.w3.org/2000/svg">
<path d="M8.75 8.74935C8.75 8.36257 8.90365 7.99164 9.17714 7.71815C9.45063 7.44466 9.82156 7.29102 10.2083 7.29102H24.7917C25.1784 7.29102 25.5494 7.44466 25.8229 7.71815C26.0964 7.99164 26.25 8.36257 26.25 8.74935C26.25 9.13612 26.0964 9.50706 25.8229 9.78055C25.5494 10.054 25.1784 10.2077 24.7917 10.2077H10.2083C9.82156 10.2077 9.45063 10.054 9.17714 9.78055C8.90365 9.50706 8.75 9.13612 8.75 8.74935ZM8.75 14.5827C8.75 14.1959 8.90365 13.825 9.17714 13.5515C9.45063 13.278 9.82156 13.1243 10.2083 13.1243H24.7917C25.1784 13.1243 25.5494 13.278 25.8229 13.5515C26.0964 13.825 26.25 14.1959 26.25 14.5827C26.25 14.9695 26.0964 15.3404 25.8229 15.6139C25.5494 15.8874 25.1784 16.041 24.7917 16.041H10.2083C9.82156 16.041 9.45063 15.8874 9.17714 15.6139C8.90365 15.3404 8.75 14.9695 8.75 14.5827ZM10.2083 18.9577C9.82156 18.9577 9.45063 19.1113 9.17714 19.3848C8.90365 19.6583 8.75 20.0292 8.75 20.416C8.75 20.8028 8.90365 21.1737 9.17714 21.4472C9.45063 21.7207 9.82156 21.8743 10.2083 21.8743H24.7917C25.1784 21.8743 25.5494 21.7207 25.8229 21.4472C26.0964 21.1737 26.25 20.8028 26.25 20.416C26.25 20.0292 26.0964 19.6583 25.8229 19.3848C25.5494 19.1113 25.1784 18.9577 24.7917 18.9577H10.2083ZM8.75 26.2493C8.75 25.8626 8.90365 25.4916 9.17714 25.2182C9.45063 24.9447 9.82156 24.791 10.2083 24.791H16.0417C16.4284 24.791 16.7994 24.9447 17.0729 25.2182C17.3464 25.4916 17.5 25.8626 17.5 26.2493C17.5 26.6361 17.3464 27.0071 17.0729 27.2805C16.7994 27.554 16.4284 27.7077 16.0417 27.7077H10.2083C9.82156 27.7077 9.45063 27.554 9.17714 27.2805C8.90365 27.0071 8.75 26.6361 8.75 26.2493Z" fill="#117A7A"/>
<path fill-rule="evenodd" clip-rule="evenodd" d="M2.91797 5.83301C2.91797 4.67269 3.37891 3.55989 4.19938 2.73942C5.01985 1.91894 6.13265 1.45801 7.29297 1.45801H27.7096C28.87 1.45801 29.9828 1.91894 30.8032 2.73942C31.6237 3.55989 32.0846 4.67269 32.0846 5.83301V29.1663C32.0846 30.3267 31.6237 31.4395 30.8032 32.2599C29.9828 33.0804 28.87 33.5413 27.7096 33.5413H7.29297C6.13265 33.5413 5.01985 33.0804 4.19938 32.2599C3.37891 31.4395 2.91797 30.3267 2.91797 29.1663V5.83301ZM7.29297 4.37467H27.7096C28.0964 4.37467 28.4673 4.52832 28.7408 4.80181C29.0143 5.0753 29.168 5.44623 29.168 5.83301V29.1663C29.168 29.5531 29.0143 29.9241 28.7408 30.1975C28.4673 30.471 28.0964 30.6247 27.7096 30.6247H7.29297C6.90619 30.6247 6.53526 30.471 6.26177 30.1975C5.98828 29.9241 5.83464 29.5531 5.83464 29.1663V5.83301C5.83464 5.44623 5.98828 5.0753 6.26177 4.80181C6.53526 4.52832 6.90619 4.37467 7.29297 4.37467Z" fill="#117A7A"/>
</svg>
