<svg width="24" height="24" viewBox="0 0 24 24" fill="none" xmlns="http://www.w3.org/2000/svg">
<path d="M18.0242 7.04299C16.8531 5.87629 15.3628 5.08233 13.7412 4.76114C12.1196 4.43996 10.4392 4.60592 8.91176 5.23811C7.38431 5.87031 6.07815 6.94045 5.15785 8.31371C4.23755 9.68696 3.7443 11.3019 3.74023 12.955" stroke="#1E1E1E" stroke-width="1.5" stroke-miterlimit="10" stroke-linecap="round"/>
<path d="M17.351 2.75L18.183 6.122C18.2213 6.26895 18.2295 6.42214 18.2069 6.57231C18.1843 6.72248 18.1315 6.86652 18.0517 6.9957C17.9719 7.12488 17.8667 7.23654 17.7424 7.3239C17.6182 7.41127 17.4776 7.47254 17.329 7.504L13.957 8.347" stroke="#1E1E1E" stroke-width="1.5" stroke-linecap="round" stroke-linejoin="round"/>
<path d="M5.97656 16.9569C7.14766 18.124 8.63801 18.9182 10.2598 19.2396C11.8816 19.561 13.5622 19.3951 15.0898 18.7629C16.6175 18.1306 17.9238 17.0603 18.8442 15.6869C19.7645 14.3134 20.2577 12.6982 20.2616 11.0449" stroke="#1E1E1E" stroke-width="1.5" stroke-miterlimit="10" stroke-linecap="round"/>
<path d="M6.64931 21.2498L5.81731 17.8778C5.77914 17.7308 5.77117 17.5776 5.79388 17.4274C5.81658 17.2772 5.86948 17.1332 5.94939 17.0041C6.0293 16.8749 6.13456 16.7633 6.25881 16.6759C6.38306 16.5886 6.52372 16.5273 6.67231 16.4958L10.0433 15.6528" stroke="#1E1E1E" stroke-width="1.5" stroke-linecap="round" stroke-linejoin="round"/>
</svg>
