<svg width="55" height="55" viewBox="0 0 55 55" fill="none" xmlns="http://www.w3.org/2000/svg">
<g opacity="0.05">
<path d="M32.486 19.7848C33.291 19.7321 34.4694 19.765 35.2899 19.7646L40.4071 19.7637L47.3845 19.7608C48.6762 19.7606 49.9754 19.7324 51.2661 19.7751C51.4857 19.7824 51.7028 19.7887 51.9107 19.8685C52.0929 19.9385 52.2356 20.0366 52.3142 20.2214C52.3181 20.2304 52.3217 20.2395 52.3255 20.2485C52.3375 20.2762 52.3498 20.3033 52.3598 20.3318C52.527 20.8117 52.4263 27.789 52.4264 28.8299L52.4273 42.9265C52.4273 45.3392 52.4322 47.7523 52.4232 50.1649C52.4206 50.8551 52.44 51.3083 51.7163 51.5544C50.6643 51.6213 49.3289 51.5833 48.2531 51.5838L42.1635 51.5854L36.1349 51.5862C34.89 51.5864 33.451 51.6719 32.223 51.4672C31.9244 51.4174 31.8059 50.8841 31.8046 50.6215C31.7939 48.3222 31.7989 46.0219 31.7993 43.7223L31.8014 30.3021L31.7973 24.0668C31.7964 23.0872 31.7146 20.8684 31.939 20.0501C32.1657 19.9078 32.2333 19.8764 32.486 19.7848ZM48.8098 48.9835C49.529 48.9873 49.7588 49.0416 50.437 48.7819C50.5465 48.5548 50.6801 48.3129 50.6871 48.0633C50.7204 46.8756 50.7075 45.6716 50.7078 44.4825L50.7083 37.9547L50.7075 27.6264C50.7082 25.8791 50.7762 23.8209 50.6252 22.0665C50.5767 21.504 49.8196 21.5614 49.4241 21.5123C47.7581 21.4881 46.0891 21.5001 44.4225 21.5015L35.407 21.5104C34.4104 21.5238 33.5439 21.3247 33.519 22.656C33.4967 23.8521 33.5273 25.0505 33.5253 26.2469L33.5203 34.2254L33.5208 43.2395C33.5202 44.8028 33.5104 46.3648 33.5297 47.9285C33.5405 48.8109 33.9155 48.9538 34.7453 48.9713C36.3259 49.0047 37.9144 48.9867 39.4962 48.9859L48.8098 48.9835Z" fill="black"/>
<path d="M35.2544 23.2041L48.9921 23.2112C48.9601 23.951 48.9877 24.8899 48.9884 25.641L48.9891 30.2487C48.9895 35.8879 49.0504 41.6445 48.9793 47.2749C44.4275 47.3241 39.7854 47.2907 35.2282 47.2805C35.2981 45.3647 35.2362 43.067 35.2363 41.1046L35.2369 29.0287C35.2369 27.2546 35.1664 24.9379 35.2544 23.2041ZM39.9474 37.2672C39.1307 37.604 38.2781 38.0377 37.9207 38.8975C37.3935 40.1655 38.5807 41.2456 39.6557 41.6638C40.6707 42.0587 41.6555 42.1388 42.7235 42.0727C43.0897 42.03 43.446 41.9876 43.8004 41.9081C46.352 41.3352 47.6634 38.8345 44.7286 37.4592C44.5562 37.3784 44.3992 37.4132 44.317 37.2519C44.5093 36.7179 45.0266 36.1428 45.3137 35.6461C46.6155 33.3942 47.9868 31.3346 46.7714 28.7507C46.1886 27.5197 45.1438 26.5683 43.8638 26.103C43.1286 25.8476 42.345 25.7627 41.5721 25.8546C40.1062 26.0231 38.9957 26.5791 38.0728 27.735C35.8421 30.529 37.4405 33.3459 39.0883 35.9184C39.3454 36.3198 39.7424 36.8668 39.9474 37.2672Z" fill="black"/>
<path d="M41.8323 27.5174C42.6307 27.4615 43.4244 27.6784 44.0834 28.1326C44.8254 28.6443 45.3304 29.433 45.4847 30.3211C45.8057 32.2699 43.3818 35.4727 42.2544 37.0663C42.1746 37.1599 42.2103 37.1302 42.0819 37.1697C41.9409 37.0974 41.5201 36.4738 41.3866 36.2704C40.3911 34.7524 39.0788 33.0323 38.7182 31.2292C38.5644 30.4603 38.8984 29.4878 39.3547 28.8836C40.0266 27.9939 40.7537 27.6692 41.8323 27.5174Z" fill="black"/>
<path d="M43.1127 38.7803C43.5669 38.8611 44.5554 39.0565 44.5618 39.6095C44.4251 39.8919 44.1035 39.994 43.8175 40.1217C42.8658 40.4438 40.143 40.5661 39.5956 39.5758C39.599 39.1182 40.4647 38.9169 40.841 38.839C41.6313 38.7817 41.7824 40.5189 43.1127 38.7803Z" fill="black" fill-opacity="0.988235"/>
<path d="M6.02382 12.0326C8.86889 12.0301 11.7675 12.0031 14.6084 12.0418C14.6037 12.4229 14.5271 13.4072 14.9821 13.5807C15.1787 13.6556 15.6367 13.7369 15.861 13.7404C18.1895 13.7767 20.5215 13.7478 22.8505 13.7556C23.8237 13.7577 24.8028 13.7691 25.7734 13.7197C25.9714 13.7096 26.1909 13.6209 26.3719 13.5447C26.6739 12.9702 26.6405 12.6799 26.6582 12.0385C29.4084 11.9851 32.4847 12.0101 35.2353 12.0411L35.24 18.9109C34.6854 18.9328 34.0658 18.9178 33.5063 18.916C33.5442 18.2202 33.7973 14.8322 32.9668 14.7346C31.2655 14.5349 29.3758 14.6398 27.6501 14.655C27.2567 14.6585 26.7665 14.7739 26.7359 15.2456C26.6637 16.2593 26.4323 20.4702 26.8713 21.203C27.4137 21.6425 29.849 21.4864 30.6706 21.4806C30.5616 21.9095 30.6176 22.8411 30.5106 23.0532C29.8065 23.2812 28.0166 23.058 27.2372 23.1318C27.2065 23.1347 27.1301 23.2444 27.1005 23.281C26.3353 24.0021 26.7254 25.3277 26.6382 26.3403C26.5981 26.8066 26.5842 29.6402 26.8646 29.7945C27.714 30.2619 29.8888 30.0788 30.9435 30.0869C30.8913 32.1091 30.9374 34.3014 30.9381 36.339L30.9383 48.1343L28.3521 48.1418C28.3947 47.1267 28.3598 45.8383 28.3597 44.8046L28.3679 37.8144C28.9956 37.8196 29.2211 37.8426 29.8071 37.6151C30.2442 36.8441 30.1956 33.8459 29.9062 32.9821C29.7651 32.5608 26.7919 32.6743 26.2431 32.6745L21.1732 32.6757L15.2096 32.6754C14.1741 32.6756 13.1384 32.6684 12.1033 32.6942C11.5861 32.6959 11.1899 33.0097 11.1848 33.5451C11.1797 34.2428 11.1553 34.9508 11.1657 35.6474C11.1934 37.4913 10.968 37.7801 12.8972 37.8307C12.8649 38.9548 12.8929 40.2225 12.8931 41.3587L12.8945 48.1337C10.6362 48.1756 8.27447 48.1424 6.00781 48.1408C6.05481 46.9622 6.0171 45.4894 6.01732 44.2858L6.01823 36.9049L6.02382 12.0326ZM17.9014 14.632C17.6667 14.7088 17.4404 14.7889 17.3248 15.027C17.0779 15.5358 17.1135 20.4466 17.3163 21.0195C17.3751 21.1856 17.4515 21.2585 17.6125 21.3255C18.2916 21.608 22.377 21.5227 23.3405 21.4565C23.6014 21.3618 23.7908 21.3086 23.9191 21.0447C24.1754 20.5172 24.1143 16.551 24.0539 15.7523C24.0368 15.5256 23.998 15.2945 23.918 15.0811C23.8737 14.9628 23.8089 14.816 23.6866 14.7625C23.0145 14.4681 18.8757 14.5878 17.9014 14.632ZM13.4369 30.0757C13.8266 30.0582 13.9748 30.0316 14.3429 29.8773C14.4709 29.6196 14.5519 29.4032 14.5881 29.1146C14.6763 28.4105 14.6643 24.2046 14.5079 23.74C14.4604 23.5987 14.4042 23.4766 14.2625 23.408C13.6011 23.0876 10.0782 23.202 9.10822 23.2269C8.73719 23.2378 8.24675 23.1918 7.96842 23.4881C7.81943 23.6467 7.77866 24.0056 7.75739 24.2137C7.67538 25.0146 7.73032 25.8645 7.73016 26.6723C7.72995 27.4432 7.67677 28.2639 7.75068 29.0281C7.77281 29.2568 7.83796 29.6977 8.02004 29.8628C8.42121 30.2265 12.624 30.0784 13.4369 30.0757ZM22.8911 30.0756C23.2789 30.0581 23.4296 30.031 23.796 29.877C23.9241 29.6194 24.0051 29.4031 24.0412 29.1146C24.1294 28.4109 24.1174 24.2042 23.9611 23.7401C23.9135 23.5988 23.8572 23.4767 23.7157 23.408C23.0505 23.0853 19.5366 23.2043 18.5613 23.2267C18.1935 23.2373 17.6933 23.1901 17.4196 23.4878C17.2732 23.647 17.2323 24.0068 17.2111 24.2139C17.1279 25.025 17.1837 25.8861 17.1836 26.7041C17.1836 27.4648 17.1313 28.2743 17.2046 29.0284C17.2268 29.257 17.2916 29.6974 17.4736 29.8624C17.8756 30.2268 22.0775 30.0783 22.8911 30.0756ZM13.3861 21.4827C13.8006 21.4698 13.9471 21.4512 14.3436 21.2827C14.4766 21.0161 14.5577 20.7932 14.5919 20.4939C14.6683 19.8247 14.6568 15.6234 14.5209 15.1967C14.4755 15.0543 14.3998 14.8839 14.2637 14.8074C13.7094 14.4957 10.0517 14.6136 9.15103 14.6336C8.79219 14.642 8.28022 14.594 8.00516 14.874C7.8385 15.0437 7.77947 15.3297 7.75208 15.5577C7.65024 16.4044 7.73553 17.3485 7.7423 18.2049C7.74799 18.9298 7.70143 19.6666 7.72952 20.3887C7.74047 20.6703 7.78887 21.051 8.01773 21.2467C8.48421 21.6455 12.4992 21.485 13.3861 21.4827Z" fill="black"/>
<path d="M18.9273 16.3303C20.0689 16.324 21.2106 16.3259 22.3521 16.336C22.3059 17.3571 22.3521 18.7205 22.3414 19.7747C21.2397 19.8091 20.0076 19.7848 18.8997 19.7797C18.9169 18.6747 18.8676 17.4095 18.9273 16.3303Z" fill="black"/>
<path d="M9.47424 24.9236C10.6158 24.9171 11.7573 24.9191 12.8988 24.9298C12.8537 25.9591 12.8991 27.3076 12.8881 28.3687C11.7853 28.4022 10.5557 28.3786 9.44663 28.3736C9.46344 27.2695 9.41435 26.0019 9.47424 24.9236Z" fill="black"/>
<path d="M18.9273 24.9238C20.0688 24.917 21.2104 24.9191 22.3519 24.93C22.3067 25.9663 22.3533 27.2994 22.3409 28.3687C21.2369 28.4023 20.0104 28.3784 18.8995 28.3738C18.917 27.2672 18.868 26.005 18.9273 24.9238Z" fill="black"/>
<path d="M9.47478 16.3304C10.6161 16.3238 11.7575 16.3259 12.8988 16.3365C12.8538 17.3637 12.8987 18.7177 12.8882 19.7753C11.7875 19.8094 10.5539 19.7854 9.44668 19.7801C9.46178 18.6844 9.4144 17.399 9.47478 16.3304Z" fill="black"/>
<path d="M16.3513 3.44012C19.1002 3.41107 22.1749 3.40208 24.9218 3.44857C24.9249 6.30226 24.9514 9.18938 24.9197 12.041C23.6237 12.0715 22.3246 12.0393 21.0278 12.0359L16.3196 12.0478C16.3708 10.1335 16.317 8.17043 16.3296 6.25209C16.3355 5.3612 16.2947 4.31803 16.3513 3.44012ZM17.1797 8.5948C18.0439 8.58658 18.9082 8.58943 19.7723 8.60345C19.7678 9.42125 19.7937 10.3651 19.7615 11.1663L21.4207 11.1815C21.546 11.0092 21.4712 8.99323 21.4977 8.59485L24.077 8.59609C24.0701 8.03368 24.0738 7.47122 24.0882 6.90898C23.2898 6.90113 22.2569 6.86053 21.4772 6.89243C21.4856 6.0366 21.48 5.16619 21.4975 4.3132C20.9867 4.30688 20.2711 4.32303 19.7885 4.28957C19.7529 5.14175 19.7677 6.02812 19.7709 6.88384C19.0729 6.89501 17.8353 6.94373 17.1908 6.8702L17.1797 8.5948Z" fill="black"/>
<path d="M14.6313 37.8148C16.3451 37.806 18.0588 37.8083 19.7726 37.8216C19.7623 38.1383 19.7696 38.4609 19.7675 38.7782C19.7472 41.8947 19.8034 45.0186 19.7606 48.1343C18.0706 48.163 16.2966 48.1446 14.6033 48.1399C14.7239 44.7536 14.4432 41.176 14.6313 37.8148Z" fill="black"/>
<path d="M21.5063 37.8145C23.2188 37.807 24.9313 37.809 26.6437 37.8206C26.6406 41.2407 26.681 44.7195 26.6356 48.134C24.9354 48.1649 23.1824 48.1353 21.4764 48.1424C21.5135 47.3274 21.4855 46.3006 21.4856 45.4732L21.4847 40.3751C21.4843 39.5601 21.4616 38.6133 21.5063 37.8145Z" fill="black"/>
<path d="M3.46432 49.8488C7.51768 49.7982 11.6537 49.8413 15.7136 49.8412L30.9361 49.853C30.9216 50.4465 30.9277 50.9845 31.0615 51.5658C27.4819 51.6351 23.7556 51.5841 20.1671 51.584L3.43748 51.5749C3.43502 51.0235 3.41696 50.3917 3.46432 49.8488Z" fill="black"/>
<path d="M12.916 34.3799L28.3631 34.3832L28.3553 36.1006C26.4607 36.1635 24.2726 36.1151 22.3542 36.1147L12.892 36.1036C12.8893 35.5424 12.8737 34.9362 12.916 34.3799Z" fill="black"/>
<path d="M6.05026 8.59971C8.76605 8.55046 11.6186 8.58935 14.3425 8.59708C14.1468 9.06044 14.3807 9.82437 14.1697 10.1498C13.5182 10.4342 10.1329 10.1103 9.84398 10.3177C8.75606 10.3839 7.14017 10.3268 6.0131 10.325C6.01256 9.82437 5.99065 9.07752 6.05026 8.59971Z" fill="black"/>
<path d="M26.6752 8.60053C29.3862 8.54977 32.248 8.58597 34.9677 8.59779C34.7639 9.04714 35.0133 9.79753 34.8217 10.1645C34.0269 10.2529 27.1192 10.3658 26.7792 10.1409C26.6823 9.9092 26.7114 9.88154 26.6524 9.68742C26.6185 9.45829 26.647 8.83756 26.6752 8.60053Z" fill="black"/>
<path d="M28.3804 16.33C29.522 16.3233 30.6637 16.3254 31.8052 16.3362C31.772 17.1364 31.8826 19.0867 31.7401 19.7476C31.0321 19.8407 29.1624 19.7818 28.353 19.78C28.3696 18.6754 28.321 17.4092 28.3804 16.33Z" fill="black"/>
<path d="M28.3673 24.9231L30.667 24.9185C30.4204 25.5394 30.7688 27.7384 30.5026 28.1979C30.1207 28.2601 29.0049 28.2399 28.5629 28.2403C28.4361 28.146 28.4153 28.0457 28.3574 27.8962L28.3673 24.9231Z" fill="black"/>
<path d="M30.6671 24.9185C30.7437 24.9316 30.8996 24.9418 30.904 24.9898C30.9773 25.792 30.9416 27.6576 30.9396 28.3697C30.5689 28.3733 28.5819 28.4323 28.3877 28.3101C28.3417 28.1276 28.3484 28.0813 28.3574 27.8962C28.4153 28.0457 28.4361 28.146 28.563 28.2403C29.0049 28.2399 30.1207 28.2601 30.5027 28.1979C30.7688 27.7384 30.4204 25.5394 30.6671 24.9185Z" fill="black" fill-opacity="0.980392"/>
<path d="M34.9676 8.59766C35.0181 8.60625 35.1506 8.6171 35.1636 8.646C35.3176 8.98894 35.2328 9.93087 35.2404 10.3207C34.4748 10.3365 26.9397 10.387 26.6879 10.2666C26.6115 10.095 26.6421 9.87957 26.6523 9.68729C26.7114 9.8814 26.6822 9.90906 26.7791 10.1408C27.1191 10.3657 34.0268 10.2528 34.8217 10.1644C35.0132 9.7974 34.7638 9.047 34.9676 8.59766Z" fill="black" fill-opacity="0.972549"/>
<path d="M14.3426 8.59717C14.4246 8.60866 14.5332 8.60415 14.5541 8.66065C14.6691 8.9718 14.6169 10.0054 14.6157 10.3202C13.518 10.3355 12.4201 10.3416 11.3222 10.3384C11.0812 10.3385 10.0271 10.3506 9.84399 10.3178C10.1329 10.1104 13.5183 10.4343 14.1698 10.1499C14.3807 9.82446 14.1468 9.06053 14.3426 8.59717Z" fill="black" fill-opacity="0.972549"/>
<path d="M30.6706 21.481C30.7218 21.4908 30.8606 21.5056 30.8723 21.5352C31.0187 21.9043 30.9322 22.8069 30.9409 23.2133C29.8194 23.2208 28.1847 23.1764 27.1005 23.2813C27.1301 23.2448 27.2065 23.1351 27.2372 23.1322C28.0166 23.0584 29.8065 23.2816 30.5106 23.0536C30.6176 22.8415 30.5615 21.9099 30.6706 21.481Z" fill="black" fill-opacity="0.976471"/>
</g>
</svg>
