<svg width="35" height="35" viewBox="0 0 35 35" fill="none" xmlns="http://www.w3.org/2000/svg">
<g clip-path="url(#clip0_483_5876)">
<path d="M23.3333 28.4378H9.47917V26.9795C9.47917 25.8192 9.9401 24.7064 10.7606 23.8859C11.581 23.0654 12.6938 22.6045 13.8542 22.6045C15.3125 22.6045 34.8542 24.792 34.8542 24.792M0 32.8128H35M21.1458 19.6878L16.8904 16.6472C16.5146 16.3786 16.2418 15.9898 16.1172 15.545C15.9926 15.1003 16.0235 14.6263 16.205 14.2016L17.6415 10.8518C18.1796 10.5382 20.2271 9.47949 23.3333 9.47949C26.4396 9.47949 28.4871 10.5382 29.0252 10.8503L30.4617 14.2016C30.6435 14.6265 30.6747 15.1008 30.55 15.5459C30.4254 15.9909 30.1524 16.38 29.7762 16.6487L25.5208 19.6878M0.729167 0.729492L3.15875 3.15908M3.15875 3.15908C2.77257 3.54511 2.4886 4.02033 2.3302 4.54288C2.1718 5.06544 2.14483 5.61901 2.25167 6.15449L2.91667 9.47949H3.28125L9.47917 3.28158V2.91699L6.15563 2.25199C5.62018 2.14495 5.0666 2.17172 4.54399 2.32993C4.02137 2.48813 3.54493 2.77304 3.15875 3.15908ZM6.5625 26.1045C6.5625 26.1045 5.10417 28.4378 3.28125 28.4378C2.6044 28.4378 1.95526 28.1689 1.47665 27.6903C0.998046 27.2117 0.729167 26.5626 0.729167 25.8857C0.729167 24.477 1.87104 23.3395 3.28125 23.3395C5.10417 23.3395 6.5625 25.667 6.5625 25.667V26.1045ZM23.1175 6.56283C23.1175 6.56283 20.7842 5.10449 20.7842 3.28158C20.7842 1.87283 21.9275 0.729492 23.3363 0.729492C24.7465 0.729492 25.8825 1.87283 25.8825 3.28158C25.8825 5.10449 23.555 6.56283 23.555 6.56283H23.1175Z" stroke="#117A7A" stroke-width="2"/>
</g>
<defs>
<clipPath id="clip0_483_5876">
<rect width="35" height="35" fill="white"/>
</clipPath>
</defs>
</svg>
