<svg width="73" height="60" viewBox="0 0 73 60" fill="none" xmlns="http://www.w3.org/2000/svg">
<path d="M48.5273 5.70117C49.028 5.70121 49.4471 6.08914 49.4473 6.58301C49.4473 7.077 49.0281 7.46481 48.5273 7.46484C44.1899 7.46484 40.3036 10.2206 39.0713 14.1543C38.934 14.5939 38.4751 14.8493 38.0215 14.7676L38.0186 14.7715L37.9297 14.7461C37.4471 14.6093 37.1608 14.1215 37.3096 13.6475C38.746 9.06168 43.2159 5.70117 48.5273 5.70117Z" fill="#117A7A" stroke="#F9FFF9" stroke-width="0.3"/>
<path d="M59.3092 42.4384H54.6878C54.2625 42.4384 53.9176 42.1107 53.9176 41.7067C53.9176 41.3027 54.2625 40.9749 54.6878 40.9749H59.3092C65.6796 40.9749 70.8628 36.0509 70.8628 29.999C70.8628 23.9471 65.6796 19.023 59.3092 19.023H59.1981C58.9747 19.023 58.7623 18.9311 58.616 18.7706C58.4696 18.6101 58.4036 18.3974 58.4355 18.1873C58.5043 17.7315 58.539 17.2737 58.539 16.8279C58.539 11.5829 54.0467 7.31531 48.5258 7.31531C46.3779 7.31531 44.3296 7.95296 42.602 9.15978C42.2223 9.42478 41.6832 9.30718 41.4637 8.91047C36.571 0.0596993 23.7919 -1.12887 17.1665 6.57053C14.3756 9.81417 13.279 14.0336 14.1577 18.146C14.2545 18.6002 13.8886 19.0236 13.4028 19.0236H13.0942C6.72379 19.0236 1.54056 23.9477 1.54056 29.9996C1.54056 36.0514 6.72379 40.9755 13.0942 40.9755H17.7156C18.1409 40.9755 18.4858 41.3032 18.4858 41.7072C18.4858 42.1113 18.1409 42.439 17.7156 42.439H13.0942C5.87421 42.439 0 36.8585 0 29.9995C0 23.3329 5.549 17.8742 12.4895 17.5731C11.8376 13.3066 13.0843 9.00295 15.9738 5.64437C23.0671 -2.5996 36.661 -1.67556 42.4075 7.51707C44.2407 6.42522 46.3385 5.85244 48.5255 5.85244C55.2145 5.85244 60.5149 11.261 60.0511 17.58C66.9277 17.9463 72.403 23.3763 72.403 29.999C72.403 36.8585 66.5288 42.4384 59.3089 42.4384L59.3092 42.4384Z" fill="#117A7A"/>
<path d="M36.0977 22.8496C46.7912 22.8496 55.5039 31.1168 55.5039 41.2939C55.5036 51.4707 46.791 59.7373 36.0977 59.7373C25.4047 59.7371 16.6917 51.4707 16.6914 41.2939C16.6914 31.1171 25.4044 22.8498 36.0977 22.8496ZM36.0977 24.6143C26.4051 24.6145 18.5322 32.1043 18.5322 41.2939C18.5325 50.4835 26.4054 57.9734 36.0977 57.9736C45.7901 57.9736 53.6628 50.4835 53.6631 41.2939C53.6631 32.1041 45.7903 24.6143 36.0977 24.6143Z" fill="#117A7A" stroke="#F9FFF9" stroke-width="0.3"/>
<path d="M36.4502 34.043C36.8371 34.043 37.1641 34.3437 37.1641 34.7295V48.6572C37.1641 49.0435 36.837 49.3438 36.4502 49.3438C36.0635 49.3435 35.7363 49.0429 35.7363 48.6572V34.7295C35.7363 34.3439 36.0635 34.0432 36.4502 34.043Z" fill="#117A7A" stroke="#117A7A" stroke-width="0.3"/>
<path d="M35.9502 34.2422C36.228 33.9781 36.676 33.9783 36.9541 34.2422L41.4658 38.5283C41.748 38.7967 41.7479 39.2345 41.4658 39.5029C41.326 39.6362 41.1434 39.7001 40.9639 39.7002V39.7012C40.7839 39.7012 40.6007 39.6357 40.4609 39.5029L36.4521 35.6943L32.4434 39.5029C32.1655 39.7674 31.7166 39.7672 31.4385 39.5029C31.1564 39.2345 31.1563 38.7967 31.4385 38.5283L35.9502 34.2422Z" fill="#117A7A" stroke="#117A7A" stroke-width="0.3"/>
</svg>
