<svg width="24" height="24" viewBox="0 0 24 24" fill="none" xmlns="http://www.w3.org/2000/svg">
<path fill-rule="evenodd" clip-rule="evenodd" d="M6.5 3C6.23478 3 5.98043 3.10536 5.79289 3.29289C5.60536 3.48043 5.5 3.73478 5.5 4V4.5H3V14H14V4.5H11.5V4C11.5 3.73478 11.3946 3.48043 11.2071 3.29289C11.0196 3.10536 10.7652 3 10.5 3H6.5ZM10.5 9C10.7652 9 11.0196 8.89464 11.2071 8.70711C11.3946 8.51957 11.5 8.26522 11.5 8V7.5H13V13H10.5V10H6.5V13H4V7.5H5.5V8C5.5 8.26522 5.60536 8.51957 5.79289 8.70711C5.98043 8.89464 6.23478 9 6.5 9H10.5ZM4 5.5H5.5V6.5H4V5.5ZM13 6.5H11.5V5.5H13V6.5ZM9.5 11V13H7.5V11H9.5ZM8 4V5.5H6.5V6.5H8V8H9V6.5H10.5V5.5H9V4H8Z" fill="#1E1E1E"/>
<path d="M15 13.5C15 12.9696 15.2107 12.4609 15.5858 12.0858C15.9608 11.7107 16.4696 11.5 17 11.5C17.5304 11.5 18.0391 11.7107 18.4142 12.0858C18.7893 12.4609 19 12.9696 19 13.5C19 14.0304 18.7893 14.5391 18.4142 14.9142C18.0391 15.2893 17.5304 15.5 17 15.5C16.4696 15.5 15.9608 15.2893 15.5858 14.9142C15.2107 14.5391 15 14.0304 15 13.5ZM17 16.5C15.665 16.5 13 17.231 13 18.682V20H8.49998C8.13548 20 7.89898 19.8685 7.74848 19.699C7.58998 19.5205 7.49998 19.2685 7.49998 19V17.207L9.14648 18.8535L9.85348 18.1465L6.99998 15.293L4.14648 18.1465L4.85348 18.8535L6.49998 17.207V19C6.49998 19.4815 6.65998 19.9795 7.00148 20.3635C7.35098 20.7565 7.86448 21 8.49998 21H21V18.682C21 17.231 18.335 16.5 17 16.5Z" fill="#1E1E1E"/>
</svg>
