<svg width="35" height="35" viewBox="0 0 35 35" fill="none" xmlns="http://www.w3.org/2000/svg">
<path d="M13.1237 29.1663C12.6619 29.1663 12.2487 29.0327 11.8841 28.7653C11.5195 28.4979 11.2522 28.1577 11.082 27.7445L7.72787 18.958H1.45703V16.0413H9.76953L13.1237 24.9372L19.832 7.25488C20.0022 6.84169 20.2695 6.50141 20.6341 6.23405C20.9987 5.96669 21.4119 5.83301 21.8737 5.83301C22.3355 5.83301 22.7487 5.96669 23.1133 6.23405C23.4779 6.50141 23.7452 6.84169 23.9154 7.25488L27.2695 16.0413H33.5404V18.958H25.2279L21.8737 10.0622L15.1654 27.7445C14.9952 28.1577 14.7279 28.4979 14.3633 28.7653C13.9987 29.0327 13.5855 29.1663 13.1237 29.1663Z" fill="#117A7A"/>
</svg>
