<svg width="24" height="24" viewBox="0 0 24 24" fill="none" xmlns="http://www.w3.org/2000/svg">
<path d="M21.2602 10.891V12.3961H2.74533V7H1V17.7939H2.74533V15.3272H21.2602V18H23V10.8893L21.2602 10.891Z" fill="#1E1E1E"/>
<path d="M9.24806 11.0315C9.24806 11.566 8.84416 12 8.3448 12H4.90325C4.78457 12.0002 4.66701 11.9754 4.55732 11.9268C4.44763 11.8782 4.34796 11.8069 4.26404 11.7169C4.18012 11.6269 4.11359 11.5201 4.06828 11.4024C4.02297 11.2848 3.99977 11.1588 4 11.0315V11.0296C4 10.4952 4.4039 10.0612 4.90325 10.0612H8.3448C8.84327 10.0612 9.24806 10.4942 9.24806 11.0296V11.0315ZM19 7.24015H16.9054V5H15.4206V7.2411H13.3304V8.83308H15.4197V11.0742H16.9045V8.83308H18.9991L19 7.24015Z" fill="#1E1E1E"/>
</svg>
