<svg width="24" height="24" viewBox="0 0 24 24" fill="none" xmlns="http://www.w3.org/2000/svg">
<path d="M15.6172 2.90039C16.1213 2.90047 16.5539 3.09843 16.9092 3.48828L17.0342 3.6377C17.3066 3.99586 17.4424 4.41476 17.4424 4.88965V7.58105H18.8633C19.4969 7.58113 20.0316 7.81725 20.46 8.28711C20.8878 8.75642 21.0996 9.33667 21.0996 10.0205V14.4307C21.0996 14.974 20.9225 15.4432 20.5674 15.832C20.2563 16.1727 19.886 16.3674 19.46 16.4111L19.2744 16.4209H17.4424V19.1104C17.4424 19.6536 17.2649 20.1229 16.9092 20.5117C16.5532 20.9007 16.1206 21.0987 15.6172 21.0996H8.38379C7.879 21.0995 7.44615 20.9016 7.09082 20.5117C6.73597 20.1223 6.55844 19.6539 6.55762 19.1123V16.4209H4.72559C4.22131 16.4209 3.78897 16.222 3.43359 15.832C3.07869 15.4426 2.90124 14.974 2.90039 14.4316V10.0205C2.9004 9.33502 3.11343 8.75497 3.54297 8.28711C3.97262 7.81755 4.50586 7.58113 5.13672 7.58105H6.55762V4.89062C6.55762 4.3473 6.73511 3.87784 7.09082 3.48828L7.22754 3.35156C7.55529 3.05215 7.94147 2.90046 8.38281 2.90039H15.6172ZM8.38281 14.6201C8.21801 14.6202 8.08755 14.6762 7.98438 14.7891L7.98535 14.79C7.88132 14.9046 7.82624 15.0516 7.82617 15.2402V19.1104C7.82617 19.2992 7.88046 19.4468 7.98438 19.5605C8.08749 19.6734 8.21808 19.7304 8.38379 19.7305H15.6172C15.7821 19.7304 15.9124 19.6735 16.0156 19.5605C16.1195 19.4468 16.1738 19.2991 16.1738 19.1094V15.2402C16.1738 15.0509 16.1192 14.9036 16.0156 14.79C15.9124 14.677 15.7821 14.6202 15.6172 14.6201H8.38281ZM5.09668 8.95215C4.84023 8.96159 4.62658 9.06109 4.4502 9.25488C4.26414 9.45931 4.1697 9.71258 4.16895 10.0215V14.4307C4.16895 14.6195 4.22323 14.7671 4.32715 14.8809C4.4304 14.9939 4.56057 15.0508 4.72559 15.0508H6.56641C6.61198 14.5742 6.79616 14.1596 7.12109 13.8115C7.46881 13.44 7.89139 13.2511 8.38379 13.251H15.6172C16.109 13.2511 16.5313 13.4403 16.8789 13.8125C17.2039 14.1599 17.388 14.5742 17.4336 15.0508H19.2744C19.4394 15.0508 19.5696 14.9939 19.6729 14.8809C19.7768 14.7671 19.8311 14.6195 19.8311 14.4307V10.0205C19.831 9.71233 19.7369 9.45938 19.5508 9.25488C19.3744 9.06114 19.1605 8.96157 18.9033 8.95215H5.09668ZM18 9.33594C18.3298 9.33508 18.6104 9.4593 18.835 9.70508C19.0591 9.95047 19.1696 10.2532 19.1689 10.6064C19.1682 10.9596 19.0577 11.2622 18.835 11.5068C18.6117 11.752 18.3318 11.8769 18.001 11.877H18C17.667 11.8752 17.3864 11.7509 17.165 11.5068C16.9445 11.2636 16.8343 10.9615 16.832 10.6074C16.8297 10.2525 16.9399 9.94925 17.165 9.70508C17.3901 9.46116 17.6707 9.3369 18 9.33594ZM8.38281 4.27148C8.21794 4.27155 8.08757 4.3275 7.98438 4.44043C7.88046 4.5542 7.82617 4.70182 7.82617 4.89062V7.58105H16.1738V4.89062C16.1738 4.70104 16.1192 4.55421 16.0156 4.44141V4.44043C15.9124 4.3275 15.7821 4.27155 15.6172 4.27148H8.38281Z" fill="#1E1E1E" stroke="#1E1E1E" stroke-width="0.2"/>
</svg>
